<?xml version="1.0" ?><svg viewBox="0 0 40 40" xmlns="http://www.w3.org/2000/svg"><title/><g id="Bootstrap"><path d="M23,21.4a2.5,2.5,0,0,0-1.73-.55H17v4.37h4.34A2.46,2.46,0,0,0,23,24.64,2.16,2.16,0,0,0,23.66,23,2.09,2.09,0,0,0,23,21.4Zm-.6-2.82A1.8,1.8,0,0,0,23,17.14a1.82,1.82,0,0,0-.53-1.49A2.34,2.34,0,0,0,21,15.22H17v3.86h4A2.2,2.2,0,0,0,22.44,18.58ZM28,8H12a4,4,0,0,0-4,4V28a4,4,0,0,0,4,4H28a4,4,0,0,0,4-4V12A4,4,0,0,0,28,8ZM25.81,24.85a3,3,0,0,1-.92,1.24,4.52,4.52,0,0,1-1.61.82,7.65,7.65,0,0,1-2.33.31H14.52v-14h6.8a4.83,4.83,0,0,1,3,.86,3.05,3.05,0,0,1,1.14,2.61A3.09,3.09,0,0,1,25,18.5a3.37,3.37,0,0,1-1.48,1.17v0a3.05,3.05,0,0,1,2,1.22,4.08,4.08,0,0,1,.67,2.38A3.92,3.92,0,0,1,25.81,24.85Z"/></g></svg>