<svg xmlns="http://www.w3.org/2000/svg" xmlns:xlink="http://www.w3.org/1999/xlink" version="1.1" id="Capa_1" x="0px" y="0px" viewBox="-16 -15 90 90" style="enable-background:new 0 0 57 57;" fill="white" xml:space="preserve">
<g>
	<path d="M28.5,29c1.104,0,2-0.896,2-2V2c0-1.104-0.896-2-2-2s-2,0.896-2,2v25C26.5,28.104,27.396,29,28.5,29z"></path>
	<path d="M54.418,29.025c-0.007-0.091-0.013-0.183-0.021-0.274c-0.86-10.027-7.407-18.423-16.403-21.955   c-0.092-0.036-0.182-0.073-0.274-0.108c-0.584-0.221-1.177-0.422-1.78-0.602c-0.044-0.013-0.086-0.031-0.13-0.044   c-0.012-0.003-0.024,0-0.036-0.003C34.551,5.683,33.29,5.419,32,5.244v4.038C42.473,10.963,50.5,20.06,50.5,31   c0,12.131-9.869,22-22,22s-22-9.869-22-22c0-10.94,8.027-20.037,18.5-21.719V5.243c-1.278,0.174-2.529,0.435-3.742,0.786   c-0.012,0.003-0.025,0-0.037,0.003c-0.047,0.014-0.091,0.032-0.137,0.046c-0.604,0.179-1.198,0.379-1.783,0.601   c-0.09,0.034-0.178,0.071-0.268,0.106c-1.255,0.491-2.463,1.076-3.614,1.748c-0.01,0.006-0.02,0.011-0.031,0.017   C8.292,12.705,3.344,20.123,2.603,28.748c-0.008,0.091-0.014,0.183-0.021,0.275C2.533,29.676,2.5,30.334,2.5,31   c0,14.359,11.641,26,26,26s26-11.641,26-26C54.5,30.335,54.467,29.677,54.418,29.025z"></path>
</g>
<g>
</g>
<g>
</g>
<g>
</g>
<g>
</g>
<g>
</g>
<g>
</g>
<g>
</g>
<g>
</g>
<g>
</g>
<g>
</g>
<g>
</g>
<g>
</g>
<g>
</g>
<g>
</g>
<g>
</g>
</svg>