<?xml version="1.0"?>
<!DOCTYPE svg PUBLIC '-//W3C//DTD SVG 1.1//EN' 'http://www.w3.org/Graphics/SVG/1.1/DTD/svg11.dtd'>
<svg height="512px" style="enable-background:new 0 0 512 512;" version="1.1" viewBox="0 0 512 512" width="512px" xml:space="preserve" xmlns="http://www.w3.org/2000/svg" xmlns:xlink="http://www.w3.org/1999/xlink">
    <g id="_x33_03-sketch">
        <g>
            <polygon points="388.237,206.012 123.654,206.054 258.146,449.346   " style="fill:#FFAE00;" />
            <polygon points="123.654,206.122 44.846,206.122 258.154,449.346   " style="fill:#EC6C00;" />
            <polygon points="388.237,205.529 258.139,449.335 467.154,206.095 388.237,205.622   " style="fill:#EC6C00;" />
            <polygon points="384.122,87.156 375.374,75.43 376.211,91.529 387.904,206.179 466.939,206.179   " style="fill:#FFAE00;" />
            <polygon points="45.036,206.512 124.071,206.512 130.123,92.217 130.96,76.118 122.212,87.843   " style="fill:#FFAE00;" />
            <polygon points="128.395,122.69 123.914,206.095 256.154,62.694 130.929,76.116   " style="fill:#FED305;" />
            <polygon points="375.837,75.427 256.161,62.676 388.154,206.012 375.837,75.427   " style="fill:#FED305;" />
            <polygon points="123.907,206.06 388.199,206.06 312.355,123.702 256.146,62.654   " style="fill:#FFEFB4;" />
        </g>
    </g>
    <g id="Layer_1" />
</svg>