<svg version="1.1" xmlns="http://www.w3.org/2000/svg" xmlns:xlink="http://www.w3.org/1999/xlink" x="0px" y="0px"  viewBox="0 0 48 48" enable-background="new 0 0 48 48" xml:space="preserve">
<g>
	<path fill="#388E3C" d="M24,20L9,40c0,0,5,4,15,4s15-4,15-4L24,20z"/>
	<path fill="#388E3C" d="M24,16L12,31c0,0,4,3,12,3s12-3,12-3L24,16z"/>
	<path fill="#388E3C" d="M24,11l-9,12c0,0,3,2,9,2s9-2,9-2L24,11z"/>
</g>
<polygon fill="#FFCA28" points="24,4 25.667,7.098 29,7.574 26.618,9.955 27.098,13.529 24,11.862 20.902,13.529 21.383,9.955 &#10;&#9;19,7.574 22.333,7.098 "/>
<g>
	<path fill="#1B5E20" d="M34.528,34.038l-1.239-1.653C31.294,33.172,28.205,34,24,34c-4.206,0-7.294-0.828-9.289-1.615l-1.239,1.653&#10;&#9;&#9;C15.658,34.966,19.175,36,24,36C28.825,36,32.342,34.966,34.528,34.038z"/>
	<path fill="#1B5E20" d="M24,25c-2.824,0-4.975-0.443-6.47-0.913l-1.332,1.665C17.879,26.363,20.463,27,24,27&#10;&#9;&#9;s6.121-0.637,7.802-1.248l-1.332-1.665C28.976,24.557,26.824,25,24,25z"/>
	<polygon fill="#1B5E20" points="24,11.862 22.916,12.446 20.06,16.254 21.85,15.291 24,14.133 26.15,15.291 27.94,16.254 &#10;&#9;&#9;25.084,12.446 &#9;"/>
</g>
<g>
	<circle fill="#18FFFF" cx="22.5" cy="18.5" r="1.5"/>
	<circle fill="#18FFFF" cx="27" cy="21" r="1"/>
	<circle fill="#18FFFF" cx="19" cy="29" r="1"/>
	<circle fill="#18FFFF" cx="23" cy="32" r="1"/>
	<circle fill="#18FFFF" cx="24" cy="41" r="1"/>
	<circle fill="#18FFFF" cx="32.5" cy="39.5" r="1.5"/>
	<circle fill="#18FFFF" cx="28" cy="30" r="1.5"/>
	<circle fill="#18FFFF" cx="17.5" cy="39" r="1.5"/>
</g>
</svg>