<?xml version="1.0" encoding="utf-8"?>
<!-- Generator: Adobe Illustrator 21.1.0, SVG Export Plug-In . SVG Version: 6.00 Build 0)  -->
<svg version="1.1" id="Layer_1" xmlns="http://www.w3.org/2000/svg" xmlns:xlink="http://www.w3.org/1999/xlink" x="0px" y="0px"
	 viewBox="0 0 422 422" style="enable-background:new 0 0 422 422;" xml:space="preserve">
<style type="text/css">
	.st0{fill:#CCCCCC;}
	.st1{fill:#99CCFF;}
</style>
<path class="st0" d="M192.9,354.4c5.6,0,9.1-3.1,9.1-10v-26.5c0-6.9-3.4-10-9.1-10c-5.6,0-8.9,3.1-8.9,10v26.5
	C184,351.3,187.4,354.4,192.9,354.4z"/>
<path class="st1" d="M374.5,62H338v27.4c0,4.4-3.6,8-8,8s-8-3.6-8-8V62H105v27.4c0,4.4-3.6,8-8,8c-4.4,0-8-3.6-8-8V62H47.6
	c-8.4,0-16.5,3.3-22.4,9.3c-5.9,6-9.2,14-9.1,22.5V157h390V93.7c0.1-8.4-3.2-16.5-9.1-22.5C390.9,65.3,382.9,62,374.5,62z"/>
<path d="M374.5,46H338V18c0-4.4-3.6-8-8-8s-8,3.6-8,8v28H105V18c0-4.4-3.6-8-8-8c-4.4,0-8,3.6-8,8v28H47.6c-12.6,0-24.8,5-33.7,13.9
	C4.9,68.9-0.1,81.1,0,93.7V364c-0.1,12.7,4.9,24.9,13.8,33.9c8.9,9,21.1,14.1,33.7,14.1h326.9c12.7,0,24.8-5.1,33.7-14.1
	c8.9-9,13.9-21.2,13.8-33.9V93.7c0.1-12.6-4.9-24.8-13.8-33.8C399.2,51,387.1,46,374.5,46z M406,364c0.1,8.4-3.2,16.6-9.1,22.6
	c-5.9,6-14,9.4-22.4,9.4H47.6c-8.4,0-16.5-3.4-22.4-9.4c-5.9-6-9.2-14.1-9.1-22.6V173h390V364z M406,157H16V93.7
	c-0.1-8.4,3.2-16.5,9.1-22.5c5.9-6,14-9.3,22.4-9.3H89v27.4c0,4.4,3.6,8,8,8c4.4,0,8-3.6,8-8V62h217v27.4c0,4.4,3.6,8,8,8s8-3.6,8-8
	V62h36.5c8.4,0,16.5,3.3,22.4,9.3c5.9,6,9.2,14,9.1,22.5V157z"/>
<path d="M141.2,278c13.1,0,23.8-6.4,23.8-23.6v-45.3c0-3.2-3.1-5.1-6.5-5.1H141c-3.3,0-4.7,3.7-4.7,6.9c0,3.7,1.7,7.1,4.7,7.1h9
	v36.4c0,6.8-3.4,10-9.2,10c-8,0-8.6-6.1-8.9-10c-0.3-3.7-3.7-4.7-7.7-4.7c-5.4,0-8,1.4-8,7.4C116.1,270.4,126.9,278,141.2,278z"/>
<path d="M190.8,277.4c2.5,0,4.5-0.8,5.1-2.9l3.4-12.5h21.1l3.4,12.5c0.6,2.1,2.6,2.9,5.1,2.9c4.3,0,10-2.7,10-6.4
	c0-0.4-0.1-0.7-0.2-1.1l-18.7-61c-1.1-3.5-5.6-5.2-10.2-5.2c-4.6,0-9.1,1.7-10.2,5.2l-18.6,61c-0.1,0.4-0.2,0.7-0.2,1.1
	C180.8,274.7,186.5,277.4,190.8,277.4z M209.8,223.2l7.3,26.8h-14.6L209.8,223.2z"/>
<path d="M262.5,277.4c3.9,0,7.5-1.6,7.5-4.8v-34l19.2,34.6c1.9,3.5,5.3,4.2,8.9,4.2c3.9,0,8-1.6,8-4.8V209c0-3.3-4.1-4.7-8-4.7
	c-3.9,0-8,1.4-8,4.7v34l-16.1-30.9c-3.8-7.3-5.7-7.8-11.3-7.8c-3.9,0-7.6,1.5-7.6,4.8v63.5C255,275.8,258.6,277.4,262.5,277.4z"/>
<path d="M192.9,368c13.8,0,25.1-6.4,25.1-23.6v-26.5c0-17.2-11.2-23.6-25.1-23.6c-13.8,0-24.9,6.4-24.9,23.6v26.5
	C168,361.6,179.1,368,192.9,368z M184,317.9c0-6.9,3.4-10,8.9-10c5.6,0,9.1,3.1,9.1,10v26.5c0,6.9-3.4,10-9.1,10
	c-5.6,0-8.9-3.1-8.9-10V317.9z"/>
<path d="M231.2,308.1c0,3.1,2,6.2,4.9,6.2c1,0,1.9-0.3,2.7-0.8l3.1-1.8v50.9c0,3.2,3.6,4.8,7.5,4.8c3.9,0,7.5-1.6,7.5-4.8V299
	c0-3-3.6-4.9-6.8-4.9c-1,0-2,0.2-2.9,0.7l-13.2,8C232.3,303.9,231.2,306,231.2,308.1z"/>
</svg>
