<?xml version="1.0" encoding="utf-8"?>
<!-- Generator: Adobe Illustrator 24.0.2, SVG Export Plug-In . SVG Version: 6.00 Build 0)  -->
<svg version="1.1" id="Layer_1" xmlns="http://www.w3.org/2000/svg" xmlns:xlink="http://www.w3.org/1999/xlink" x="0px" y="0px"
	 viewBox="0 0 512 512" style="enable-background:new 0 0 512 512;" xml:space="preserve">
<style type="text/css">
	.st0{fill:#C1E8F7;}
	.st1{fill:#6D815C;}
	.st2{fill:#D59A80;}
	.st3{fill:#F8F8F8;}
	.st4{fill:#ECEEEE;}
	.st5{fill:#E0A384;}
	.st6{fill:#75784B;}
	.st7{fill:#595E3B;}
	.st8{fill:#656B44;}
	.st9{fill:#554C44;}
	.st10{fill:#373737;}
	.st11{fill:#859C74;}
</style>
<circle id="XMLID_8227_" class="st0" cx="256.0887" cy="255.7101" r="248.8166"/>
<g id="XMLID_7650_">
	<path id="XMLID_7687_" class="st1" d="M355.371,173.747l0.0007-0.0052c-1.9285,5.7721-4.3812,11.4787-5.6478,15.3944
		C351.3538,184.98,353.565,180.103,355.371,173.747z"/>
	<path id="XMLID_7686_" class="st1" d="M156.9675,173.747c1.8049,6.3559,4.0171,11.2322,5.6466,15.3892
		c-1.2662-3.9169-3.7197-9.6231-5.6485-15.3955L156.9675,173.747z"/>
	<path id="XMLID_7685_" class="st1" d="M191.7638,232.6499c-9.027,6.0647-14.8102-11.9893-15.9383-22.7083
		c-0.9106-8.6485,2.0975-13.2499,5.664-12.3374c-1.7398-8.5675-3.7896-22.278-3.2313-36.0266
		c-0.3315-0.1265-0.6741-0.2512-0.962-0.3833c-13.9421-6.4055-25.6221-9.0429-18.8399,9.7959
		c6.7822,18.8399,38.509,42.5742-30.0658,64.8033c0,0,1.7128-1.9351,4.3686-4.9666c-9.7315,9.2346-5.9774,11.8616-5.0687,13.6051
		c5.6,10.7405,21.165,29.6104,31.0548,34.3164c11.5149,5.4798,20.4849,12.3064,49.2857,15.7959
		c1.4064-3.3567,2.4417-6.6397,3.1598-9.777C195.5867,268.4911,195.6519,229.873,191.7638,232.6499z"/>
	<path id="XMLID_7684_" class="st1" d="M353.8813,170.9901c6.7822-18.8388-4.8981-16.2014-18.8391-9.7959
		c-0.0803,0.0374-0.1861,0.0707-0.2701,0.1077c1.9114,14.9863-0.7452,28.1703-3.037,36.4303
		c3.7245-1.3368,6.9757,3.2638,6.0333,12.2094c-1.1281,10.719-6.9113,28.773-15.9372,22.7083
		c-3.9494-2.8213-3.8084,37.0941-20.1697,52.8918c-1.0848,1.0479-2.1971,2.0668-3.3252,3.0659
		c0.6449,2.0125,1.4245,4.046,2.3765,6.0795c33.8787-3.5865,47.3998-10.84,53.452-15.2031
		c8.8842-6.4055,33.5491-28.3619,33.8236-35.9863c0.0425-1.1677,0.8528-2.3547-0.6686-4.9862
		C319.97,216.3438,347.1313,189.7405,353.8813,170.9901z"/>
	<path id="XMLID_7683_" class="st2" d="M256.3855,351.4669c41.1027-0.4285,57.8809-18.717,64.6712-34.79
		c-10.436-6.2971-16.6572-14.1246-20.344-21.9897c-0.952-2.0335-1.7316-4.0671-2.3765-6.0795
		c-0.0929,0.0833-0.1806,0.1717-0.2745,0.2538c-3.8047,3.3434-7.877,6.4-12.2512,8.9619
		c-3.7296,2.1841-7.6791,3.9983-11.7954,5.3206c-3.7426,1.2025-7.6088,1.9929-11.5186,2.3884
		c-1.8311,0.1854-3.6819,0.2494-5.5345,0.2538c-0.3071,0.0118-0.6368,0.03-0.8943,0.03c-0.2161,0-0.4977-0.0163-0.7481-0.0244
		c-0.128-0.0037-0.2564-0.0092-0.3855-0.0137c-0.2187-0.01-0.441-0.0244-0.6804-0.0414c-2.1542-0.0958-4.3043-0.2919-6.4218-0.6279
		c-3.9602-0.6279-7.8463-1.6857-11.5789-3.1517c-4.1877-1.645-8.166-3.7922-11.9067-6.2864
		c-4.4504-2.9674-8.5678-6.4162-12.4125-10.1288c-0.2557-0.2468-0.4951-0.5158-0.7426-0.7744
		c-0.7182,3.1373-1.7534,6.4203-3.1598,9.777c-3.0847,7.3631-8.1283,15.0629-16.2291,22.3708
		C198.5235,333.0162,215.1008,351.0365,256.3855,351.4669z"/>
	<path id="XMLID_7682_" class="st3" d="M415.8759,344.7468c0.0045-0.0514,0.0263-0.1654,0.0263-0.2024
		c0-2.6071-28.5374-12.2952-53.8186-19.7656c20.9012,7.1045,46.6875,17.3717,52.7726,19.8137
		C415.1841,344.6184,415.5363,344.6961,415.8759,344.7468z"/>
	<path id="XMLID_7681_" class="st3" d="M324.7731,315.5602l6.7866,1.0541C328.2951,315.9091,325.9267,315.5257,324.7731,315.5602z"
		/>
	<path id="XMLID_7680_" class="st3" d="M97.439,343.4677c5.5671-2.216,16.0667-6.3504,27.6482-10.6802
		C111.7748,337.1488,100.7598,341.2274,97.439,343.4677z"/>
	<path id="XMLID_7679_" class="st3" d="M377.2567,458.144c-0.0326,4.5092,0.0785,9.0773,0.3297,13.6879
		C377.4173,467.2927,377.3082,462.7172,377.2567,458.144z"/>
	<path id="XMLID_7678_" class="st3" d="M336.8101,317.8338c-0.2564-0.0633-0.5184-0.1284-0.7696-0.1887
		c-0.0174,0.0425-0.0381,0.0903-0.0551,0.1336C336.2303,317.7816,336.5281,317.8123,336.8101,317.8338z"/>
	<path id="XMLID_7677_" class="st3" d="M312.6839,348.69c-12.0684,9.2608-29.3784,16.5363-54.2467,17.0176c0,0-1.8241,0-2.8546,0
		h-0.6242h0.6242c-27.2001-0.5265-46.7656-9.0485-60.2271-19.4297c24.363,40.622,58.9969,109.5968,58.9969,109.5968v48.6057
		c0.2601,0.0015,0.5158,0.0189,0.7766,0.0196v-48.6253C255.129,455.8747,288.4205,389.5692,312.6839,348.69z"/>
	<path id="XMLID_7676_" class="st4" d="M175.3793,318.1339c4.0641,2.9963,11.3873,13.8226,19.9762,28.144
		c13.4615,10.3812,33.027,18.9031,60.2271,19.4297c1.0305,0,2.8546,0,2.8546,0c24.8684-0.4814,42.1783-7.7568,54.2467-17.0176
		c9.2102-15.5184,17.1271-27.3925,21.417-30.5561c0.3478-0.2568,0.9938-0.3667,1.8844-0.3552
		c0.017-0.0433,0.0377-0.091,0.0551-0.1336c0.0396-0.1014,0.0921-0.215,0.131-0.3152l-4.6117-0.7156l-6.7866-1.0541l-3.0451-0.4725
		c-0.2024,0.5239-0.447,1.059-0.6712,1.5892c-6.7903,16.073-23.5685,34.3616-64.6712,34.79
		c-41.2847-0.4303-57.862-18.4507-64.5835-34.5518c-0.1917-0.4581-0.4048-0.9195-0.5802-1.3731l-1.6909,0.2042l-8.1527,0.9846
		l-8.6304,1.0434l0.0237,0.0525C174.0243,317.738,174.9475,317.8149,175.3793,318.1339z"/>
	<path id="XMLID_7675_" class="st5" d="M321.8311,232.6499c9.0259,6.0647,14.8091-11.9893,15.9372-22.7083
		c0.9424-8.9456-2.3088-13.5462-6.0333-12.2094c-1.2861,4.638-2.4517,7.7309-2.6189,8.711
		c-0.6575,3.8599-6.521,2.2988-8.8198,6.0621c-2.3,3.7626-1.3146-13.2861-4.5992-18.111
		c-3.2853-4.8245-5.0757-13.3105-11.9745-14.5967c-6.8995-1.2865-57.3433,4.3043-87.9656-11.9837
		c-10.6458-5.6629-12.4133,14.0361-18.3267,22.7205c-5.9142,8.6848-1.6432,24.7677-5.2563,21.5517
		c-3.6135-3.2164-7.3209-3.4751-8.5356-5.7199c-0.1754-0.3241-1.1048-3.6168-2.149-8.7621
		c-3.5665-0.9124-6.5746,3.6889-5.664,12.3374c1.1281,10.719,6.9113,28.773,15.9383,22.7083
		c3.888-2.7769,3.8229,35.8412,19.4271,52.1173c0.2475,0.2586,0.4869,0.5276,0.7426,0.7744
		c3.8447,3.7126,7.9621,7.1614,12.4125,10.1288c3.7408,2.4942,7.719,4.6414,11.9067,6.2864
		c3.7326,1.466,7.6188,2.5238,11.5789,3.1517c2.1175,0.336,4.2676,0.5321,6.4218,0.6279
		c-8.4794-0.6035-29.3173-5.3695-28.6221-24.623c0.7526-20.802,19.9022-24.7026,30.4362-24.7026
		c10.5318,0,29.8867,3.9006,30.639,24.7026c0.7237,20.0106-21.9842,24.3692-29.7447,24.6726
		c1.8526-0.0045,3.7034-0.0685,5.5345-0.2538c3.9099-0.3955,7.776-1.1859,11.5186-2.3884
		c4.1163-1.3224,8.0657-3.1365,11.7954-5.3206c4.3742-2.5619,8.4465-5.6185,12.2512-8.9619
		c0.094-0.0822,0.1817-0.1706,0.2745-0.2538c1.1281-0.999,2.2404-2.018,3.3252-3.0659
		C318.0227,269.744,317.8817,229.8286,321.8311,232.6499z"/>
	<path id="XMLID_7674_" class="st5" d="M255.3195,305.7917c-0.1291-0.0045-0.2483-0.0063-0.3855-0.0137
		C255.0631,305.7824,255.1915,305.788,255.3195,305.7917z"/>
	<path id="XMLID_7673_" class="st5" d="M241.7633,290.5397c11.6522,2.9249,5.2755-3.5753,6.4048-6.5014
		c1.1281-2.9249,7.8996,0.4444,7.8996,0.4444s6.7704-3.3693,7.8996-0.4444c1.1281,2.926-5.2485,9.4262,6.4037,6.5014
		c11.6522-2.926,12.4055-16.577,3.7526-19.8271c-8.6514-3.2505-18.0558-2.6-18.0558-2.6s-9.4048-0.6505-18.0569,2.6
		C229.3589,273.9627,230.1111,287.6137,241.7633,290.5397z"/>
	<path id="XMLID_7672_" class="st4" d="M93.2501,345.1453c0,0,0.2105-0.0851,0.5158-0.2079
		c-0.3648,0.0777-0.7045,0.1014-1.083,0.2079c-11.4812,3.2283-23.5859,32.7484-31.1847,65.4346
		c19.416,24.3726,43.2994,44.9992,70.4289,60.6722C135.1413,409.1265,111.5047,354.8694,93.2501,345.1453z"/>
	<path id="XMLID_7671_" class="st4" d="M417.9498,345.1453c-0.7252-0.2042-1.3972-0.2964-2.0739-0.3985
		c-0.3397-0.0507-0.6919-0.1284-1.0197-0.1543c0.8607,0.3448,1.3738,0.5528,1.3738,0.5528
		c-16.9573,9.0333-38.5622,56.4978-38.9733,112.9987c0.0515,4.5732,0.1606,9.1487,0.3297,13.6879
		c0.0181,0.336,0.0388,0.6742,0.0588,1.0109c27.6534-15.5047,52.0419-36.1161,71.8808-60.589
		C441.9561,378.9053,429.6272,348.4287,417.9498,345.1453z"/>
	<path id="XMLID_7668_" class="st6" d="M195.3555,346.2779c-8.5889-14.3214-15.912-25.1477-19.9762-28.144
		c-0.4318-0.3189-1.355-0.3959-2.6078-0.3071c-7.6162,0.5402-28.9873,7.9725-47.6843,14.9608
		c-11.5815,4.3298-22.0811,8.4642-27.6482,10.6802c-1.776,0.7074-3.0363,1.2132-3.673,1.4696
		c-0.3053,0.1229-0.5158,0.2079-0.5158,0.2079c18.2545,9.7241,41.8912,63.9812,38.6769,126.1068
		c4.1951,2.4236,8.4628,4.7324,12.8077,6.9139v-3.9276c0-3.185,2.5815-5.7669,5.7669-5.7669h75.7477
		c3.1854,0,5.7687,2.5819,5.7687,5.7669V503.34c7.3549,0.7086,14.8057,1.086,22.3342,1.1404v-48.6057
		C254.3523,455.8747,219.7184,386.9,195.3555,346.2779z M154.171,452.0474v-33.1035v-24.6419h61.9709v24.6419v33.1035H154.171z"/>
	<polygon id="XMLID_7667_" class="st7" points="216.142,418.9438 204.1705,427.3944 165.7903,427.3944 154.171,418.9438 
		154.171,452.0474 216.142,452.0474 	"/>
	<polygon id="XMLID_7666_" class="st8" points="204.1705,427.3944 216.142,418.9438 216.142,394.3019 154.171,394.3019 
		154.171,418.9438 165.7903,427.3944 	"/>
	<path id="XMLID_7665_" class="st8" d="M226.2494,468.4715h-75.7477c-3.1854,0-5.7669,2.5819-5.7669,5.7669v3.9276
		c4.157,2.0868,8.3684,4.0786,12.6545,5.9349v-6.4532h61.9713v24.1498c4.1862,0.6205,8.4065,1.1326,12.6575,1.5425v-29.1016
		C232.0181,471.0534,229.4347,468.4715,226.2494,468.4715z"/>
	<path id="XMLID_7664_" class="st7" d="M157.3893,477.6476v6.4532c19.4948,8.4435,40.2698,14.4779,61.9713,17.6966v-24.1498
		H157.3893z"/>
	<path id="XMLID_7661_" class="st6" d="M377.2567,458.144c0.4111-56.5008,22.016-103.9654,38.9733-112.9987
		c0,0-0.5132-0.2079-1.3738-0.5528c-6.0851-2.442-31.8714-12.7093-52.7726-19.8137c-11.0099-3.7419-20.6133-6.5828-25.2735-6.945
		c-0.282-0.0215-0.5798-0.0522-0.8247-0.0551c-0.8906-0.0115-1.5367,0.0984-1.8844,0.3552
		c-4.2899,3.1635-12.2068,15.0377-21.417,30.5561c-24.2634,40.8792-57.5549,107.1848-57.5549,107.1848V504.5
		c0.3485,0.0018,0.6912,0.0262,1.0408,0.0262c7.1796,0,14.2681-0.373,21.293-0.9694v-29.3184c0-3.185,2.5819-5.7669,5.7687-5.7669
		h75.747c3.1854,0,5.768,2.5819,5.768,5.7669v5.391c4.3801-2.1283,8.6666-4.4134,12.8987-6.7866
		c-0.02-0.3367-0.0407-0.6749-0.0588-1.0109C377.3352,467.2213,377.2242,462.6532,377.2567,458.144z M355.3095,418.9438v33.1035
		h-61.9713v-33.1035v-24.6419h61.9713V418.9438z"/>
	<polygon id="XMLID_7660_" class="st7" points="305.3101,427.3944 293.3382,418.9438 293.3382,452.0474 355.3095,452.0474 
		355.3095,418.9438 343.6899,427.3944 	"/>
	<polygon id="XMLID_7659_" class="st8" points="293.3382,394.3019 293.3382,418.9438 305.3101,427.3944 343.6899,427.3944 
		355.3095,418.9438 355.3095,394.3019 	"/>
	<path id="XMLID_7658_" class="st8" d="M358.9785,468.4715h-75.747c-3.1868,0-5.7687,2.5819-5.7687,5.7669v29.3184
		c4.2502-0.3604,8.4698-0.8247,12.656-1.3964v-24.5128h61.9709v7.6928c4.2802-1.7905,8.5012-3.6919,12.6567-5.711v-5.391
		C364.7465,471.0534,362.1639,468.4715,358.9785,468.4715z"/>
	<path id="XMLID_7657_" class="st7" d="M290.1188,477.6476v24.5128c21.6664-2.9575,42.4547-8.6585,61.9709-16.82v-7.6928H290.1188z"
		/>
	<path id="XMLID_7654_" class="st9" d="M286.7066,281.1135c-0.7522-20.802-20.1071-24.7026-30.639-24.7026
		c-10.534,0-29.6836,3.9006-30.4362,24.7026c-0.6952,19.2535,20.1427,24.0196,28.6221,24.623
		c0.2394,0.017,0.4618,0.0315,0.6804,0.0414c0.1373,0.0074,0.2564,0.0092,0.3855,0.0137c0.2505,0.0081,0.5321,0.0244,0.7481,0.0244
		c0.2575,0,0.5872-0.0181,0.8943-0.03C264.7224,305.4827,287.4304,301.1241,286.7066,281.1135z M238.0107,270.7126
		c8.6522-3.2505,18.0569-2.6,18.0569-2.6s9.4044-0.6505,18.0558,2.6c8.6529,3.2501,7.8996,16.9011-3.7526,19.8271
		c-11.6522,2.9249-5.2755-3.5753-6.4037-6.5014c-1.1292-2.9249-7.8996,0.4444-7.8996,0.4444s-6.7714-3.3693-7.8996-0.4444
		c-1.1293,2.926,5.2474,9.4262-6.4048,6.5014C230.1111,287.6137,229.3589,273.9627,238.0107,270.7126z"/>
	<path id="XMLID_7653_" class="st10" d="M192.1742,212.0862c3.6131,3.2161-0.6579-12.8669,5.2563-21.5517
		c5.9134-8.6844,7.6809-28.3834,18.3267-22.7205c30.6223,16.288,81.0661,10.6972,87.9656,11.9837
		c6.8987,1.2861,8.6892,9.7722,11.9745,14.5967c3.2845,4.8249,2.2992,21.8736,4.5992,18.111
		c2.2988-3.7633,8.1623-2.2023,8.8198-6.0621c0.1672-0.9801,1.3328-4.073,2.6189-8.711c2.2918-8.26,4.9484-21.444,3.037-36.4303
		c-14.4468,6.2853-78.6034,5.5438-78.6034,5.5438s-62.2396,0.7182-77.9104-5.2681c-0.5583,13.7486,1.4915,27.4592,3.2313,36.0266
		c1.0441,5.1453,1.9736,8.4379,2.149,8.7621C184.8533,208.6111,188.5607,208.8697,192.1742,212.0862z"/>
	<path id="XMLID_7652_" class="st1" d="M256.1687,129.9211c45.8425,1.13,75.357,18.0855,75.357,18.0855
		c0.2094,0.0969,0.3918,0.1635,0.5961,0.2538c-0.73-5.0594-3.4137-20.2381-10.8238-33.4114
		c-9.0422-16.0756-37.1758-22.1037-64.3046-22.1037c-27.128,0-55.2602,6.0281-64.3035,22.1037
		c-3.2431,5.7662-5.5693,11.9086-7.2351,17.4298c-1.9422,6.4355-2.9719,11.9819-3.4525,15.0858
		C187.8444,144.3021,215.5866,130.922,256.1687,129.9211z"/>
	<path id="XMLID_7651_" class="st11" d="M158.4564,170.9901c-6.7822-18.8388,4.8978-16.2014,18.8399-9.7959
		c0.2879,0.1321,0.6305,0.2568,0.962,0.3833c15.6708,5.9863,77.9104,5.2681,77.9104,5.2681s64.1566,0.7415,78.6034-5.5438
		c0.084-0.037,0.1898-0.0703,0.2701-0.1077c13.941-6.4055,25.6213-9.0429,18.8391,9.7959
		c-6.75,18.7504-33.9113,45.3537,33.4384,67.5214c0.3197,0.1055,0.6061,0.2124,0.9313,0.3171c0,0-37.7519-40.827-39.2678-45.2316
		c-0.2746-0.797,0.0688-2.3832,0.7407-4.4608c1.2665-3.9158,3.7193-9.6223,5.6478-15.3944
		c2.7055-8.095,4.3412-16.2835,0.017-19.7072c-8.8986-7.0441-10.6565-0.1672-23.267-5.7743
		c-0.2043-0.0903-0.3867-0.1569-0.5961-0.2538c0,0-29.5145-16.9555-75.357-18.0855c-40.5821,1.0009-68.3243,14.381-74.1663,17.4435
		c-0.757,0.3963-1.1903,0.642-1.1903,0.642c-0.3896,0.1809-0.7363,0.3138-1.1059,0.4706
		c-12.1424,5.1934-13.9817-1.3894-22.7568,5.5575c-4.3242,3.4236-2.6881,11.6115,0.0163,19.7061
		c1.9288,5.7724,4.3823,11.4787,5.6485,15.3955c0.6712,2.0776,1.0145,3.6638,0.74,4.4608
		c-1.1733,3.4107-21.4832,26.8279-30.5949,37.2299c-2.6559,3.0314-4.3686,4.9666-4.3686,4.9666
		C196.9654,213.5643,165.2386,189.83,158.4564,170.9901z"/>
</g>
</svg>
