<?xml version="1.0" encoding="utf-8"?>
<!-- Generator: Adobe Illustrator 18.0.0, SVG Export Plug-In . SVG Version: 6.00 Build 0)  -->
<!DOCTYPE svg PUBLIC "-//W3C//DTD SVG 1.1//EN" "http://www.w3.org/Graphics/SVG/1.1/DTD/svg11.dtd">
<svg version="1.1" id="Layer_1" xmlns="http://www.w3.org/2000/svg" xmlns:xlink="http://www.w3.org/1999/xlink" x="0px" y="0px"
	 viewBox="0 0 61.5 62" enable-background="new 0 0 61.5 62" xml:space="preserve">
<g>
	<path fill="#6A5766" d="M31.4,16.1c-0.5,0-0.9,0.4-0.9,0.9v7.5c0,0.5,0.4,0.9,0.9,0.9c0.5,0,0.9-0.4,0.9-0.9V17
		C32.3,16.5,31.9,16.1,31.4,16.1L31.4,16.1z M31.4,16.1"/>
	<path fill="#E0DEDF" d="M45.7,35H17.1V23.7c0-1.1,0.9-2.1,2.1-2.1h24.6c1.1,0,2.1,0.9,2.1,2.1V35z M45.7,35"/>
	<path fill="#D4D0D3" d="M43.7,21.6h-6.2c1.1,0,2.1,0.9,2.1,2.1v4.2c0,0.9-0.7,1.7-1.7,1.7H17.1V35h28.7V23.7
		C45.7,22.5,44.8,21.6,43.7,21.6L43.7,21.6z M43.7,21.6"/>
	<path fill="#E0DEDF" d="M51.6,45.4H11.2V34.1c0-1.1,0.9-2.1,2.1-2.1h36.3c1.1,0,2.1,0.9,2.1,2.1L51.6,45.4L51.6,45.4z M51.6,45.4"
		/>
	<path fill="#D4D0D3" d="M49.5,32.1h-6.2c1.1,0,2.1,0.9,2.1,2.1v5c0,1.1-0.9,2-2,2H11.2v4.4h40.4V34.1C51.6,33,50.7,32.1,49.5,32.1
		L49.5,32.1z M49.5,32.1"/>
	<path fill="#E0DEDF" d="M57.9,57h-53V45.7c0-1.1,0.9-2.1,2.1-2.1h48.9c1.1,0,2.1,0.9,2.1,2.1V57z M57.9,57"/>
	<path fill="#D4D0D3" d="M55.8,43.6h-6.2c1.1,0,2.1,0.9,2.1,2.1v5.6c0,1.5-1.2,2.7-2.8,2.7h-44v3h53V45.7
		C57.9,44.6,57,43.6,55.8,43.6L55.8,43.6z M55.8,43.6"/>
	<path fill="#F6A1AF" d="M35.2,4.7c-1.3,0-2.4,0.5-3.3,1.3c-0.3,0.3-0.8,0.3-1.1,0c-0.9-0.8-2-1.3-3.3-1.3c-2.9,0-5.1,2.6-4.8,5.4
		c0.5,5.7,8.6,8.9,8.6,8.9s8.1-3.2,8.6-8.9C40.3,7.2,38.1,4.7,35.2,4.7L35.2,4.7z M33.9,14.1c-0.9,0.7-1.8,1.2-2.4,1.5
		c0,0-0.1,0-0.1,0c0,0-0.1,0-0.1,0c-0.7-0.3-1.5-0.8-2.4-1.5c-2.4-1.8-2.9-3.4-2.9-4.4c0-1.1,0.9-2,2-2c1.5,0,2.6,1.2,3.1,1.8
		c0,0,0,0,0,0c0.1,0.2,0.4,0.2,0.6,0c0,0,0,0,0,0c0.5-0.7,1.6-1.8,3.1-1.8c1.1,0,2,0.9,2,2C36.8,10.7,36.3,12.3,33.9,14.1L33.9,14.1
		z M33.9,14.1"/>
	<path fill="#978A94" d="M43.7,21.6H19.1c-1.1,0-2.1,0.9-2.1,2.1v3.6c2.4,0,2.4-2.1,4.8-2.1c2.4,0,2.4,2.1,4.8,2.1
		c2.4,0,2.4-2.1,4.8-2.1c2.4,0,2.4,2.1,4.8,2.1c2.4,0,2.4-2.1,4.8-2.1c2.4,0,2.4,2.1,4.8,2.1v-3.6C45.7,22.5,44.8,21.6,43.7,21.6
		L43.7,21.6z M43.7,21.6"/>
	<path fill="#8B7D88" d="M43.7,21.6h-6.2c1.1,0,2.1,0.9,2.1,2.1v1.8c0.4-0.2,0.8-0.3,1.4-0.3c2.4,0,2.4,2.1,4.8,2.1v-3.6
		C45.7,22.5,44.8,21.6,43.7,21.6L43.7,21.6z M43.7,21.6"/>
	<path fill="#FCDBDF" d="M49.5,32.1H13.3c-1.1,0-2.1,0.9-2.1,2.1v3.6c2.5,0,2.5-2.1,5.1-2.1c2.5,0,2.5,2.1,5.1,2.1
		c2.5,0,2.5-2.1,5.1-2.1c2.5,0,2.5,2.1,5.1,2.1c2.5,0,2.5-2.1,5-2.1c2.5,0,2.5,2.1,5.1,2.1c2.5,0,2.5-2.1,5-2.1
		c2.5,0,2.5,2.1,5.1,2.1v-3.6C51.6,33,50.7,32.1,49.5,32.1L49.5,32.1z M49.5,32.1"/>
	<path fill="#F9BEC7" d="M49.5,32.1h-6.2c1.1,0,2.1,0.9,2.1,2.1v1.6c0.3-0.1,0.7-0.2,1.2-0.2c2.5,0,2.5,2.1,5.1,2.1v-3.6
		C51.6,33,50.7,32.1,49.5,32.1L49.5,32.1z M49.5,32.1"/>
	<path fill="#F48D9D" d="M55.8,43.6H7c-1.1,0-2.1,0.9-2.1,2.1v3.6c2.6,0,2.6-2.1,5.3-2.1c2.7,0,2.7,2.1,5.3,2.1
		c2.7,0,2.7-2.1,5.3-2.1c2.7,0,2.7,2.1,5.3,2.1c2.7,0,2.7-2.1,5.3-2.1c2.7,0,2.7,2.1,5.3,2.1c2.7,0,2.7-2.1,5.3-2.1
		c2.7,0,2.7,2.1,5.3,2.1c2.7,0,2.7-2.1,5.3-2.1c2.6,0,2.7,2.1,5.3,2.1v-3.6C57.9,44.6,57,43.6,55.8,43.6L55.8,43.6z M55.8,43.6"/>
	<path fill="#F37B8E" d="M55.8,43.6h-6.2c1.1,0,2.1,0.9,2.1,2.1v1.5c0.3-0.1,0.6-0.1,1-0.1c2.6,0,2.7,2.1,5.3,2.1v-3.6
		C57.9,44.6,57,43.6,55.8,43.6L55.8,43.6z M55.8,43.6"/>
	<path fill="#F9BEC7" d="M59.9,60.9h-57c-0.6,0-1-0.5-1-1v-2.4c0-0.6,0.5-1,1-1h57c0.6,0,1,0.5,1,1v2.4
		C60.9,60.5,60.5,60.9,59.9,60.9L59.9,60.9z M59.9,60.9"/>
	<path fill="#F7ABB7" d="M59.9,56.5h-5.2v0.7c0,1-0.8,1.8-1.8,1.8h-50c-0.6,0-1-0.5-1-1v2c0,0.6,0.5,1,1,1h57c0.2,0,0.3,0,0.5-0.1
		c0.1,0,0.2-0.1,0.2-0.2c0,0,0.1-0.1,0.1-0.2c0-0.1,0.1-0.1,0.1-0.2c0.1-0.1,0.1-0.3,0.1-0.4v-2.4C60.9,57,60.5,56.5,59.9,56.5
		L59.9,56.5z M59.9,56.5"/>
	<path fill="#F593A3" d="M35.2,4.7c-1.3,0-2.4,0.5-3.3,1.3c-0.2,0.1-0.4,0.2-0.6,0.2v3.6c0.1,0,0.2,0,0.3-0.1c0,0,0,0,0,0
		c0.5-0.7,1.6-1.8,3.1-1.8c1.1,0,2,0.9,2,2c0,1-0.5,2.6-2.9,4.4c-0.9,0.7-1.8,1.2-2.4,1.5c0,0-0.1,0-0.1,0V19c0,0,8.1-3.2,8.6-8.9
		C40.3,7.2,38.1,4.7,35.2,4.7L35.2,4.7z M35.2,4.7"/>
</g>
</svg>
