<?xml version="1.0" encoding="utf-8"?>
<!-- Generator: Adobe Illustrator 18.0.0, SVG Export Plug-In . SVG Version: 6.00 Build 0)  -->
<!DOCTYPE svg PUBLIC "-//W3C//DTD SVG 1.1//EN" "http://www.w3.org/Graphics/SVG/1.1/DTD/svg11.dtd">
<svg version="1.1" id="Layer_1" xmlns="http://www.w3.org/2000/svg" xmlns:xlink="http://www.w3.org/1999/xlink" x="0px" y="0px"
	 viewBox="0 0 61.5 62" enable-background="new 0 0 61.5 62" xml:space="preserve">
<g>
	<g>
		<defs>
			<rect id="SVGID_1_" x="5.9" y="2.7" width="52.1" height="59.2"/>
		</defs>
		<clipPath id="SVGID_2_">
			<use xlink:href="#SVGID_1_"  overflow="visible"/>
		</clipPath>
		<path clip-path="url(#SVGID_2_)" fill="#6A5766" d="M34.2,42.5c-0.5,0-0.9-0.4-0.9-0.9v-2.3c0-0.5,0.4-0.9,0.9-0.9
			c0.5,0,0.9,0.4,0.9,0.9v2.3C35,42.1,34.7,42.5,34.2,42.5L34.2,42.5z M34.2,42.5"/>
		<path clip-path="url(#SVGID_2_)" fill="#FACDD4" d="M53.6,36.7L46,6c-0.2-0.8-1-1.4-1.8-1.3l-0.5,0c-0.5,0-1,0.3-1.2,0.8
			c-3,8.4-9.3,15.1-17.3,18.7c-2.1,0.9-4.4,1.5-6.5,2.3c-2.3,0.9-4.5,2-6.5,3.4c-2.8,2-5.2,4.8-6.1,8.1c-0.5,2.2-0.3,4.5,0.1,6.7
			c0.3,1.3,1.4,6.2,2,7.2c0.7,1.1,1.9,2,3.2,2.4c0.3,0.1,0.6,0.2,1,0.2c0.2,0,0.3,0,0.5,0l0.1,0l0.1,0l0.2,0l1.5,0
			c2-0.1,4-0.1,6.1-0.2c0.4,0,0.8-0.4,0.8-0.8c0-0.5-0.3-0.9-0.8-0.9c-2-0.2-4-0.3-6-0.5c0,0,0,0,0,0c-1.7-0.1-3.4-0.1-4.1-1.9
			c-0.4-0.9-1.4-7.7-0.9-10c0.6-2.8,2.9-5,5.4-6.4c2.7-1.4,6.3-2.7,9.4-3.1c9.3-1.2,18.8,1.6,25.9,8c0.5,0.4,1.1,0.6,1.7,0.5
			C53.3,38.7,53.9,37.7,53.6,36.7L53.6,36.7z M53.6,36.7"/>
	</g>
	<path fill="#746370" d="M50,52.4H18.9v-8.1c0-1.4,1.2-2.6,2.6-2.6h25.9c1.4,0,2.6,1.2,2.6,2.6V52.4z M50,52.4"/>
	<path fill="#6A5766" d="M47.4,41.6h-6.1c1.4,0,2.6,1.2,2.6,2.6v8.1H50v-8.1C50,42.8,48.9,41.6,47.4,41.6L47.4,41.6z M47.4,41.6"/>
	<path fill="#F48D9D" d="M54.7,59.5H14.2V46.9c0-1,0.8-1.9,1.9-1.9h36.8c1,0,1.9,0.8,1.9,1.9V59.5z M54.7,59.5"/>
	<path fill="#F37B8E" d="M52.8,45h-6.1c1,0,1.9,0.8,1.9,1.9v12.6h6.1V46.9C54.7,45.8,53.9,45,52.8,45L52.8,45z M52.8,45"/>
	<path fill="#F15C73" d="M56.9,61.8H12c-0.6,0-1.1-0.5-1.1-1.1v-0.8c0-0.6,0.5-1.1,1.1-1.1h44.8c0.6,0,1.1,0.5,1.1,1.1v0.8
		C58,61.3,57.5,61.8,56.9,61.8L56.9,61.8z M56.9,61.8"/>
	<g>
		<defs>
			<rect id="SVGID_3_" x="5.9" y="2.7" width="52.1" height="59.2"/>
		</defs>
		<clipPath id="SVGID_4_">
			<use xlink:href="#SVGID_3_"  overflow="visible"/>
		</clipPath>
		<path clip-path="url(#SVGID_4_)" fill="#FBD1D7" d="M36.1,48.5c-0.8,0-1.5,0.4-2,1c-0.5-0.6-1.2-1-2-1c-1.4,0-2.5,1.1-2.5,2.5
			c0,3.1,4.4,4.9,4.4,4.9s4.4-1.7,4.4-4.9C38.6,49.6,37.5,48.5,36.1,48.5L36.1,48.5z M36.1,48.5"/>
		<path clip-path="url(#SVGID_4_)" fill="#F9C2CA" d="M54.4,37.9L46.1,4.4c-0.3-1.1-1.4-1.8-2.5-1.6c0,0,0,0,0,0
			c-1.2,0.3-1.9,1.4-1.6,2.6L50.2,39c0.3,1.1,1.4,1.8,2.5,1.6c0,0,0,0,0,0C54,40.2,54.7,39.1,54.4,37.9L54.4,37.9z M54.4,37.9"/>
	</g>
	<path fill="#F0536A" d="M57,58.7h-5.1v3.1h4.9c0.6,0,1.1-0.5,1.1-1.1v-0.8C58,59.2,57.6,58.7,57,58.7L57,58.7z M57,58.7"/>
</g>
</svg>
