<?xml version="1.0" encoding="utf-8"?>
<!-- Generator: Adobe Illustrator 21.1.0, SVG Export Plug-In . SVG Version: 6.00 Build 0)  -->
<svg version="1.1" id="Capa_1" xmlns="http://www.w3.org/2000/svg" xmlns:xlink="http://www.w3.org/1999/xlink" x="0px" y="0px"
	 viewBox="0 0 512 512" style="enable-background:new 0 0 512 512;" xml:space="preserve">
<style type="text/css">
	.st0{fill:#CC3300;}
	.st1{fill:#99CC00;}
	.st2{fill:#00CCCC;}
	.st3{fill:#FFFFFF;}
</style>
<path class="st0" d="M289.4,315.3c0-0.2-0.1-0.3-0.1-0.4c0,0,0,0,0,0c0-0.1-0.1-0.3-0.1-0.4c-0.1-0.4-0.3-0.9-0.4-1.3c0,0,0,0,0,0
	c-0.2-0.4-0.3-0.8-0.5-1.2c0,0,0-0.1,0-0.1c-0.2-0.4-0.4-0.8-0.5-1.2c0-0.1-0.1-0.2-0.1-0.3c-0.2-0.3-0.3-0.6-0.5-0.9
	c0-0.1-0.1-0.2-0.1-0.2c-0.2-0.4-0.4-0.8-0.7-1.1c0,0,0-0.1-0.1-0.1c-2.8-4.4-6.9-8.3-11.3-10.4c-0.2-0.1-0.3-0.2-0.5-0.3
	c-2.1-1-4.4-1.5-6.6-1.5c-4.3,0-8.5,2-12.1,5c-0.2,0.2-0.4,0.4-0.6,0.5c-4.2,3.7-7.4,8.7-8.8,13.3c0,0.1,0,0.1-0.1,0.2
	c-0.1,0.3-0.1,0.5-0.2,0.8c-0.1,0.2-0.1,0.5-0.2,0.7c-0.1,0.3-0.1,0.6-0.1,0.8c0,0.1,0,0.2-0.1,0.4c-0.2,1.7-0.1,3.3,0.3,4.6
	c0,0,0,0.1,0,0.1c0.8,2.3,2.5,3.3,3.4,3.8c3.4,1.9,5.6,2.3,6.8,2.3c1.1,0,2.4-0.3,4-2.1c0.1-0.1,0.1-0.1,0.2-0.2
	c0.2-0.2,0.3-0.3,0.5-0.5c0.1-0.1,0.2-0.2,0.3-0.2c0.2-0.2,0.3-0.3,0.5-0.4c0.1-0.1,0.2-0.1,0.3-0.2c0.2-0.1,0.4-0.3,0.6-0.4
	c0.1-0.1,0.2-0.1,0.3-0.2c0.2-0.1,0.4-0.2,0.6-0.3c0.1-0.1,0.2-0.1,0.3-0.2c0.2-0.1,0.4-0.2,0.6-0.2c0.1,0,0.3-0.1,0.4-0.1
	c0.2-0.1,0.4-0.1,0.6-0.2c0.2,0,0.3-0.1,0.5-0.1c0.1,0,0.1,0,0.1,0c0.1,0,0.3,0,0.4-0.1c0.1,0,0.3,0,0.4-0.1c0.3,0,0.5,0,0.8,0
	c0.1,0,0.1,0,0.2,0c0,0,0,0,0,0c1.4,0,2.8,0.3,4.1,0.9c0.1,0,0.1,0.1,0.2,0.1c0.2,0.1,0.5,0.2,0.7,0.4c0.1,0,0.2,0.1,0.3,0.2
	c0.2,0.1,0.4,0.3,0.6,0.4c0.1,0.1,0.2,0.1,0.3,0.2c0.2,0.1,0.4,0.3,0.5,0.4c0.1,0.1,0.2,0.2,0.2,0.2c0.2,0.2,0.3,0.3,0.5,0.5
	c0,0,0.1,0.1,0.1,0.1c1.6,1.9,2.9,2.1,4,2.1c1.3,0,3.5-0.4,6.8-2.3c0.7-0.4,1.9-1.1,2.8-2.6c0,0,0-0.1,0-0.1c1.3-2.2,1.1-5,0.6-7.2
	C289.6,316,289.5,315.7,289.4,315.3z"/>
<path class="st0" d="M380.6,147.9c0-0.6,0-1.2,0-1.8c0-0.3,0-0.7,0-1c0-0.9,0-1.7-0.1-2.6c0-0.1,0-0.2,0-0.2
	c-0.1-1.9-0.2-3.8-0.3-5.7c0,0,0,0,0,0C375,71.3,326.6,20,267.7,20c-57.8,0-105.6,49.6-112.1,113.2c-0.1,1.1-0.2,2.2-0.3,3.4
	c0,0.1,0,0.2,0,0.3c-0.1,1.1-0.2,2.2-0.2,3.4c0,0.1,0,0.3,0,0.4c-0.1,1.1-0.1,2.1-0.1,3.2c0,0.2,0,0.4,0,0.5c0,1.2,0,2.4,0,3.6
	c0,1,0,2.1,0,3.1c0,0.5,0,1,0,1.5c0,0.5,0,1,0.1,1.5c0,0.7,0.1,1.4,0.1,2.1c0,0.3,0,0.5,0,0.8c0.1,0.9,0.1,1.8,0.2,2.6
	c0,0.1,0,0.1,0,0.2c3.9,47.6,31.2,88.5,69.3,106.5c0,0,0,0,0,0c0.8,0.4,1.5,0.7,2.3,1c0.1,0,0.2,0.1,0.3,0.1
	c0.7,0.3,1.4,0.6,2.1,0.9c0.2,0.1,0.3,0.1,0.5,0.2c0.7,0.3,1.3,0.5,2,0.8c0.2,0.1,0.4,0.1,0.6,0.2c0.9,0.4,1.9,0.7,2.9,1
	c0.5,0.2,1,0.3,1.5,0.5c0.4,0.1,0.7,0.2,1.1,0.3c0.5,0.2,1,0.3,1.5,0.5c0.4,0.1,0.8,0.2,1.2,0.3c0.5,0.1,1,0.3,1.4,0.4
	c0.4,0.1,0.8,0.2,1.3,0.3c0.4,0.1,0.9,0.2,1.3,0.3c0.5,0.1,0.9,0.2,1.4,0.3c0.4,0.1,0.8,0.2,1.2,0.3c0.5,0.1,1,0.2,1.5,0.3
	c0.3,0.1,0.7,0.1,1,0.2c0.6,0.1,1.2,0.2,1.7,0.3c5.3,0.9,10.7,1.3,16.2,1.3c3.3,0,6.6-0.2,9.9-0.5c0.8-0.1,1.6-0.2,2.4-0.3
	c0.1,0,0.2,0,0.3,0c0.8-0.1,1.6-0.2,2.5-0.3c0,0,0,0,0,0C338.1,266.3,380.6,211.8,380.6,147.9z"/>
<path class="st1" d="M177.4,386.7c-1.1,0-2.2,0.1-3.2,0.4c-7.9,2.1-13.8,13-13.8,21.2c0,6.7,3.5,7.7,4.8,8c1.6,0.4,3.1,0.7,4.3,0.7
	c2.3,0,3.3-0.6,4.2-2.6c0-0.1,0.1-0.2,0.1-0.2c0.1-0.2,0.2-0.4,0.3-0.6c0.1-0.1,0.1-0.2,0.2-0.3c0.1-0.2,0.3-0.4,0.4-0.5
	c0.1-0.1,0.1-0.2,0.2-0.3c0.1-0.2,0.3-0.3,0.4-0.5c0.1-0.1,0.2-0.2,0.2-0.3c0.2-0.2,0.3-0.3,0.5-0.5c0.1-0.1,0.2-0.2,0.3-0.2
	c0.2-0.1,0.3-0.3,0.5-0.4c0.1-0.1,0.2-0.2,0.3-0.2c0.2-0.1,0.3-0.2,0.5-0.3c0.1-0.1,0.3-0.2,0.4-0.2c0,0,0.1-0.1,0.1-0.1
	c0.1-0.1,0.3-0.1,0.4-0.2c0.1-0.1,0.3-0.1,0.4-0.2c0.2-0.1,0.4-0.2,0.7-0.2c0.1,0,0.2-0.1,0.3-0.1c0,0,0,0,0.1,0
	c0.3-0.1,0.6-0.1,0.9-0.2c0,0,0.1,0,0.1,0c0.7-0.1,1.4-0.1,2.1-0.1c0.1,0,0.2,0,0.2,0c0.3,0,0.5,0,0.8,0.1c0.1,0,0.2,0,0.4,0.1
	c0.2,0,0.4,0.1,0.6,0.1c0.1,0,0.3,0.1,0.4,0.1c0.2,0.1,0.4,0.1,0.6,0.2c0.1,0.1,0.3,0.1,0.4,0.2c0.2,0.1,0.4,0.2,0.6,0.3
	c0.1,0.1,0.2,0.1,0.4,0.2c0.2,0.1,0.4,0.2,0.6,0.3c0.1,0,0.1,0.1,0.2,0.1c0.9,0.6,1.7,0.9,2.4,0.9c1.5,0,3.7-1.3,5.9-3.6
	c1.5-1.5,2.7-3.5,1-7.5C194.7,393.1,185.2,386.7,177.4,386.7z"/>
<path class="st1" d="M232.6,290.6c-0.7-0.2-1.4-0.4-2.1-0.6c-0.9-0.3-1.9-0.6-2.8-1c-0.7-0.2-1.4-0.5-2.1-0.8
	c-0.6-0.2-1.2-0.5-1.8-0.7c-1.4-0.5-2.8-1.1-4.1-1.7c-0.3-0.1-0.6-0.2-0.9-0.4c-19.6-8.7-37.3-22.5-51.4-40.6
	c-10.6-13.6-18.8-29.2-24.3-45.8c-0.1-0.3-0.2-0.7-0.3-1c-0.2-0.7-0.4-1.3-0.6-2c-0.2-0.6-0.4-1.2-0.5-1.8c-0.1-0.4-0.2-0.8-0.4-1.3
	c-0.2-0.8-0.4-1.5-0.6-2.3c-0.1-0.2-0.1-0.5-0.2-0.7c-0.2-0.9-0.5-1.8-0.7-2.7c0-0.1,0-0.1,0-0.2c-1.5-6.2-2.7-12.6-3.5-19.1
	c0-0.1,0-0.1,0-0.2c-0.1-0.9-0.2-1.9-0.3-2.8c0-0.3-0.1-0.5-0.1-0.8c-0.1-0.8-0.2-1.6-0.2-2.4c0-0.4-0.1-0.8-0.1-1.2
	c-0.1-0.7-0.1-1.4-0.2-2.1c0-0.5-0.1-1.1-0.1-1.6c0-0.6-0.1-1.2-0.1-1.8c0-0.7-0.1-1.4-0.1-2.1c0-0.5,0-1,0-1.4c0-1.2,0-2.4,0-3.6
	c0-1.2,0-2.4,0-3.6c0-0.7,0-1.5,0.1-2.2c0-0.4,0-0.7,0-1.1c-0.8,0-1.7,0-2.5,0c-7.9,0-15.8,1-23.5,3.1c-26.1,7-47.6,25.1-60.6,50.9
	c-13.2,26.2-16,57.2-7.9,87.3c14,52.1,57.1,88.5,105,88.5c7.9,0,15.8-1,23.5-3.1c23.6-6.3,43.7-21.9,56.9-44.1c0-0.3-0.1-0.7-0.1-1
	c0-0.1,0-0.1,0-0.2c-0.1-0.6-0.1-1.2-0.1-1.8c0-0.3,0-0.6,0-0.8c0-0.2,0-0.5,0-0.7c0-3,0.4-6,1.2-9.2c0.6-2.1,1.3-4.3,2.3-6.4
	c0.2-0.4,0.3-0.7,0.5-1.1c0.1-0.2,0.2-0.3,0.2-0.5c1.2-2.5,2.7-5,4.4-7.4c0,0,0,0,0,0c0.3-0.5,0.7-0.9,1.1-1.4
	c0.4-0.5,0.8-0.9,1.1-1.4c0,0,0,0,0.1-0.1c-0.3-0.1-0.6-0.2-0.8-0.2C234.6,291.2,233.6,290.9,232.6,290.6z"/>
<path class="st2" d="M347.8,374.8c-0.9-0.2-1.8-0.4-2.8-0.4c-7,0-15.5,5.8-18.2,12.3c-1.6,3.8,0,5.4,0.8,6.2c2,2,3.8,3.1,5,3.1
	c0.5,0,1.2-0.3,1.9-0.7c0,0,0.1,0,0.1-0.1c0.4-0.2,0.8-0.5,1.2-0.7c0,0,0.1,0,0.2-0.1c0.4-0.2,0.7-0.3,1.1-0.4
	c0.1,0,0.1-0.1,0.2-0.1c0.4-0.1,0.9-0.2,1.3-0.3c0.1,0,0.1,0,0.2,0c0.4-0.1,0.8-0.1,1.2-0.1c0,0,0.1,0,0.1,0c0,0,0,0,0.1,0
	c0.4,0,0.8,0,1.2,0.1c0,0,0,0,0,0c0.4,0.1,0.7,0.1,1.1,0.2c0,0,0.1,0,0.1,0c0.1,0,0.2,0.1,0.3,0.1c0.1,0,0.2,0.1,0.3,0.1
	c0.1,0,0.1,0.1,0.2,0.1c0.1,0.1,0.3,0.1,0.4,0.2c0.2,0.1,0.4,0.2,0.5,0.2c0.1,0.1,0.2,0.1,0.4,0.2c0.2,0.1,0.4,0.2,0.6,0.3
	c0.1,0.1,0.2,0.1,0.3,0.2c0.2,0.1,0.4,0.3,0.6,0.4c0.1,0.1,0.2,0.1,0.3,0.2c0.2,0.2,0.4,0.3,0.5,0.5c0.1,0.1,0.2,0.1,0.2,0.2
	c0.2,0.2,0.3,0.4,0.5,0.6c0.1,0.1,0.1,0.1,0.2,0.2c0.2,0.2,0.3,0.5,0.5,0.7c0,0,0.1,0.1,0.1,0.1c0.2,0.3,0.3,0.6,0.5,0.9
	c0,0,0,0,0,0c0.8,1.6,1.5,2,3.3,2c1.1,0,2.4-0.2,3.9-0.6c1.2-0.3,3.9-1.1,3.9-6.8C360.2,386.5,354.9,376.7,347.8,374.8z"/>
<path class="st2" d="M408.5,148.5c-2.6-0.7-5.2-1.3-7.9-1.7c0,0.3,0,0.6,0,0.9c0,0.1,0,0.2,0,0.3c0,0.7,0,1.3,0,2c0,0.5,0,1,0,1.6
	c0,0.7,0,1.4-0.1,2c0,0.5,0,1-0.1,1.6c0,0.7-0.1,1.4-0.1,2.1c0,0.5-0.1,1-0.1,1.5c0,0.7-0.1,1.4-0.2,2.1c0,0.5-0.1,1-0.1,1.5
	c-0.1,0.7-0.1,1.4-0.2,2c-0.1,0.5-0.1,1-0.2,1.5c-0.1,0.7-0.1,1.3-0.2,2c-0.1,0.5-0.1,1.1-0.2,1.6c-0.1,0.6-0.2,1.2-0.3,1.9
	c-0.1,0.6-0.2,1.2-0.3,1.8c-0.1,0.6-0.2,1.1-0.3,1.7c-0.1,0.7-0.2,1.4-0.4,2.1c-0.1,0.4-0.2,0.9-0.2,1.3c-0.2,0.9-0.3,1.8-0.5,2.7
	c0,0.2-0.1,0.5-0.1,0.7c-5.1,24.6-15.8,47.4-31.4,66.3c-17.3,21.1-39.4,35.9-63.8,43.1c-0.6,0.2-1.2,0.4-1.9,0.5
	c-0.4,0.1-0.8,0.2-1.2,0.3c3,3.6,5.5,7.5,7.4,11.8c0,0.1,0.1,0.1,0.1,0.2c0.1,0.3,0.3,0.6,0.4,1c0.2,0.4,0.3,0.8,0.5,1.2
	c0.1,0.2,0.2,0.4,0.2,0.6c0.3,0.7,0.5,1.4,0.7,2.1c0,0,0,0,0,0c0,0,0,0,0,0c0.1,0.5,0.3,0.9,0.4,1.4c0.1,0.2,0.1,0.4,0.1,0.6
	c0.1,0.4,0.2,0.8,0.3,1.2c0.1,0.4,0.2,0.9,0.3,1.3c0.1,0.4,0.1,0.8,0.2,1.2c0.1,0.4,0.1,0.8,0.2,1.2c0.1,0.5,0.1,1,0.1,1.5
	c0,0.3,0,0.6,0.1,0.8c0.1,3.1-0.2,6.2-0.9,9c11.7,14.2,26.8,24,44,28.6c7.1,1.9,14.4,2.9,21.7,2.9c44.2,0,84.2-33.7,97.1-81.9
	c7.5-27.8,4.9-56.5-7.3-80.8C452.5,171.7,432.6,155,408.5,148.5z"/>
<path d="M413.6,129.2c-4.8-1.3-9.6-2.2-14.5-2.8C389.8,55,334.4,0,267.7,0c-65,0-119.3,52.3-130.6,121.2
	c-11.2-0.4-22.4,0.8-33.2,3.7c-31.7,8.5-57.7,30.2-73.3,61.2c-15.4,30.6-18.7,66.6-9.4,101.5c8,29.9,24.3,55.7,47.2,74.6
	c22.1,18.2,48.9,28.4,75.7,28.7c-2.5,5.7-3.8,11.8-3.8,17.5c0,13.6,7.5,24.1,19.6,27.3c3.3,0.9,6.5,1.3,9.5,1.3c2.5,0,4.9-0.3,7.2-1
	c0.9,6.4,1.7,14.3,2.5,21.9c0.9,9.5,2,20.3,3.5,31.3c0.7,5,5,8.6,9.9,8.6c0.5,0,0.9,0,1.4-0.1c5.5-0.8,9.3-5.8,8.5-11.3
	c-1.5-10.6-2.5-21.2-3.4-30.5c-1-9.8-1.8-18.2-2.9-25.2c5.1-1.2,10.1-4.1,14.8-8.8c7.9-7.9,9.8-18.5,5.4-29.3
	c-2.8-6.8-7.9-12.9-14.1-17.4c13.8-8.2,25.8-19.4,35.5-33c0.6,0.4,1.1,0.8,1.8,1.1c5.8,3.3,11.4,5,16.8,5c0.5,0,0.9,0,1.3,0
	c-0.8,7.2-2.3,16-3.8,25.1c-6.7,40.8-15.9,96.7,5.3,133.5c1.9,3.2,5.2,5,8.7,5c1.7,0,3.4-0.4,5-1.3c4.8-2.8,6.4-8.9,3.7-13.7
	c-17.7-30.6-9.1-82.4-2.9-120.3c1.8-11.1,3.4-20.5,4.1-28.3c0.6,0,1.1,0.1,1.7,0.1h0c5.4,0,11-1.7,16.8-5c0.2-0.1,0.3-0.2,0.5-0.3
	c7.1,8,15.3,14.7,24.1,20.1c-5.5,4.2-9.9,9.7-12.5,15.9c-4.2,10.1-2.3,20.6,5.2,28c4.1,4.1,8.4,6.8,12.9,8.1
	c-10,40.3-2.6,68.9-2.3,70.2c1.2,4.5,5.2,7.4,9.7,7.4c0.9,0,1.7-0.1,2.6-0.3c5.3-1.4,8.5-6.9,7.1-12.2c-0.1-0.3-6.4-24.8,2.3-59.9
	c2.1,0.6,4.4,0.9,6.8,0.9c0,0,0,0,0,0c2.8,0,5.9-0.4,9-1.3c11.6-3.1,18.8-13.1,18.8-26.1c0-5.1-1.1-10.5-3.2-15.6
	c24.8-0.6,49.5-10,69.9-26.9c21.4-17.7,36.7-41.8,44.2-69.8c8.7-32.6,5.6-66.3-8.8-95C467.7,157.6,443.3,137.2,413.6,129.2z
	 M196.6,407.9c-2.3,2.3-4.4,3.6-5.9,3.6c-0.7,0-1.5-0.3-2.4-0.9c-0.1,0-0.1-0.1-0.2-0.1c-0.2-0.1-0.4-0.2-0.6-0.3
	c-0.1-0.1-0.2-0.1-0.4-0.2c-0.2-0.1-0.4-0.2-0.6-0.3c-0.1-0.1-0.3-0.1-0.4-0.2c-0.2-0.1-0.4-0.1-0.6-0.2c-0.1,0-0.3-0.1-0.4-0.1
	c-0.2-0.1-0.4-0.1-0.6-0.1c-0.1,0-0.2-0.1-0.4-0.1c-0.3,0-0.5-0.1-0.8-0.1c-0.1,0-0.2,0-0.2,0c-0.7,0-1.4,0-2.1,0.1c0,0-0.1,0-0.1,0
	c-0.3,0-0.6,0.1-0.9,0.2c0,0,0,0-0.1,0c-0.1,0-0.2,0.1-0.3,0.1c-0.2,0.1-0.4,0.1-0.7,0.2c-0.1,0.1-0.3,0.1-0.4,0.2
	c-0.1,0.1-0.3,0.1-0.4,0.2c0,0-0.1,0.1-0.1,0.1c-0.1,0.1-0.3,0.1-0.4,0.2c-0.2,0.1-0.3,0.2-0.5,0.3c-0.1,0.1-0.2,0.2-0.3,0.2
	c-0.2,0.1-0.3,0.3-0.5,0.4c-0.1,0.1-0.2,0.2-0.3,0.2c-0.2,0.1-0.3,0.3-0.5,0.5c-0.1,0.1-0.2,0.2-0.2,0.3c-0.2,0.2-0.3,0.3-0.4,0.5
	c-0.1,0.1-0.2,0.2-0.2,0.3c-0.1,0.2-0.3,0.4-0.4,0.5c-0.1,0.1-0.1,0.2-0.2,0.3c-0.1,0.2-0.2,0.4-0.3,0.6c0,0.1-0.1,0.2-0.1,0.2
	c-0.9,1.9-2,2.6-4.2,2.6c-1.2,0-2.7-0.2-4.3-0.7c-1.3-0.4-4.8-1.3-4.8-8c0-8.3,5.9-19.1,13.8-21.2c1-0.3,2.1-0.4,3.2-0.4
	c7.8,0,17.3,6.4,20.3,13.7C199.3,404.4,198.1,406.5,196.6,407.9z M236.5,291.8c-0.4,0.5-0.8,0.9-1.1,1.4c-0.4,0.5-0.7,0.9-1.1,1.4
	c0,0,0,0,0,0c-1.7,2.4-3.2,4.8-4.4,7.4c-0.1,0.2-0.2,0.3-0.2,0.5c-0.2,0.4-0.3,0.7-0.5,1.1c-0.9,2.1-1.7,4.3-2.3,6.4
	c-0.8,3.1-1.2,6.2-1.2,9.2c0,0.2,0,0.5,0,0.7c0,0.3,0,0.6,0,0.8c0,0.6,0.1,1.2,0.1,1.8c0,0.1,0,0.1,0,0.2c0,0.3,0.1,0.7,0.1,1
	c-13.2,22.2-33.3,37.8-56.9,44.1c-7.7,2.1-15.6,3.1-23.5,3.1c-47.8,0-91-36.4-105-88.5c-8.1-30.1-5.2-61.1,7.9-87.3
	c13-25.8,34.5-43.9,60.6-50.9c7.7-2.1,15.6-3.1,23.5-3.1c0.8,0,1.7,0,2.5,0c0,0.4,0,0.7,0,1.1c0,0.7-0.1,1.5-0.1,2.2
	c0,1.2,0,2.4,0,3.6c0,1.2,0,2.4,0,3.6c0,0.5,0,1,0,1.4c0,0.7,0,1.4,0.1,2.1c0,0.6,0.1,1.2,0.1,1.8c0,0.5,0.1,1.1,0.1,1.6
	c0,0.7,0.1,1.4,0.2,2.1c0,0.4,0.1,0.8,0.1,1.2c0.1,0.8,0.1,1.6,0.2,2.4c0,0.3,0.1,0.5,0.1,0.8c0.1,0.9,0.2,1.9,0.3,2.8
	c0,0.1,0,0.1,0,0.2c0.8,6.5,2,12.9,3.5,19.1c0,0.1,0,0.1,0,0.2c0.2,0.9,0.5,1.8,0.7,2.7c0.1,0.2,0.1,0.5,0.2,0.7
	c0.2,0.8,0.4,1.5,0.6,2.3c0.1,0.4,0.2,0.8,0.4,1.3c0.2,0.6,0.4,1.2,0.5,1.8c0.2,0.7,0.4,1.3,0.6,2c0.1,0.3,0.2,0.7,0.3,1
	c5.5,16.7,13.7,32.2,24.3,45.8c14.1,18.1,31.8,31.9,51.4,40.6c0.3,0.1,0.6,0.3,0.9,0.4c1.4,0.6,2.8,1.2,4.1,1.7
	c0.6,0.2,1.2,0.5,1.8,0.7c0.7,0.3,1.4,0.5,2.1,0.8c0.9,0.3,1.9,0.6,2.8,1c0.7,0.2,1.4,0.4,2.1,0.6c1,0.3,2.1,0.6,3.1,0.9
	C236,291.6,236.2,291.7,236.5,291.8C236.5,291.8,236.5,291.8,236.5,291.8z M289,323.4C289,323.5,289,323.5,289,323.4
	c-0.9,1.6-2.2,2.3-2.8,2.7c-3.4,1.9-5.6,2.3-6.8,2.3c-1.1,0-2.4-0.3-4-2.1c0-0.1-0.1-0.1-0.1-0.1c-0.2-0.2-0.3-0.4-0.5-0.5
	c-0.1-0.1-0.2-0.2-0.2-0.2c-0.2-0.2-0.4-0.3-0.5-0.4c-0.1-0.1-0.2-0.1-0.3-0.2c-0.2-0.1-0.4-0.3-0.6-0.4c-0.1-0.1-0.2-0.1-0.3-0.2
	c-0.2-0.1-0.5-0.3-0.7-0.4c-0.1,0-0.1-0.1-0.2-0.1c-1.3-0.6-2.6-0.9-4.1-0.9c0,0,0,0,0,0c-0.1,0-0.1,0-0.2,0c-0.3,0-0.5,0-0.8,0
	c-0.1,0-0.3,0-0.4,0.1c-0.1,0-0.3,0-0.4,0.1c0,0-0.1,0-0.1,0c-0.2,0-0.3,0.1-0.5,0.1c-0.2,0-0.4,0.1-0.6,0.2c-0.1,0-0.3,0.1-0.4,0.1
	c-0.2,0.1-0.4,0.1-0.6,0.2c-0.1,0-0.2,0.1-0.3,0.2c-0.2,0.1-0.4,0.2-0.6,0.3c-0.1,0.1-0.2,0.1-0.3,0.2c-0.2,0.1-0.4,0.2-0.6,0.4
	c-0.1,0.1-0.2,0.1-0.3,0.2c-0.2,0.1-0.4,0.3-0.5,0.4c-0.1,0.1-0.2,0.2-0.3,0.2c-0.2,0.2-0.3,0.3-0.5,0.5c-0.1,0.1-0.1,0.1-0.2,0.2
	c-1.6,1.9-2.9,2.1-4,2.1c-1.3,0-3.5-0.4-6.8-2.3c-0.9-0.5-2.5-1.5-3.4-3.8c0,0,0-0.1,0-0.1c-0.4-1.4-0.5-2.9-0.3-4.6
	c0-0.1,0-0.2,0.1-0.4c0-0.3,0.1-0.6,0.1-0.8c0-0.2,0.1-0.5,0.2-0.7c0.1-0.3,0.1-0.5,0.2-0.8c0-0.1,0-0.1,0.1-0.2
	c1.4-4.6,4.6-9.6,8.8-13.3c0.2-0.2,0.4-0.3,0.6-0.5c3.6-3,7.9-5,12.1-5c2.2,0,4.5,0.5,6.6,1.5c0.2,0.1,0.3,0.2,0.5,0.3
	c4.4,2.1,8.5,6,11.3,10.4c0,0,0,0.1,0.1,0.1c0.2,0.4,0.5,0.7,0.7,1.1c0,0.1,0.1,0.2,0.1,0.2c0.2,0.3,0.3,0.6,0.5,0.9
	c0,0.1,0.1,0.2,0.1,0.3c0.2,0.4,0.4,0.8,0.5,1.2c0,0,0,0.1,0,0.1c0.2,0.4,0.3,0.8,0.5,1.2c0,0,0,0,0,0c0.2,0.4,0.3,0.9,0.4,1.3
	c0,0.1,0.1,0.3,0.1,0.4c0,0,0,0,0,0c0,0.1,0.1,0.3,0.1,0.4c0.1,0.3,0.1,0.6,0.2,0.9C290.1,318.4,290.3,321.3,289,323.4z
	 M282.8,274.7C282.8,274.7,282.8,274.8,282.8,274.7c-0.9,0.1-1.7,0.2-2.5,0.3c-0.1,0-0.2,0-0.3,0c-0.8,0.1-1.6,0.2-2.4,0.3
	c-3.3,0.3-6.6,0.5-9.9,0.5c-5.5,0-10.9-0.5-16.2-1.3c-0.6-0.1-1.2-0.2-1.7-0.3c-0.3-0.1-0.7-0.1-1-0.2c-0.5-0.1-1-0.2-1.5-0.3
	c-0.4-0.1-0.8-0.2-1.2-0.3c-0.5-0.1-0.9-0.2-1.4-0.3c-0.4-0.1-0.9-0.2-1.3-0.3c-0.4-0.1-0.8-0.2-1.3-0.3c-0.5-0.1-1-0.3-1.4-0.4
	c-0.4-0.1-0.8-0.2-1.2-0.3c-0.5-0.2-1-0.3-1.5-0.5c-0.4-0.1-0.7-0.2-1.1-0.3c-0.5-0.2-1-0.3-1.5-0.5c-1-0.3-1.9-0.7-2.9-1
	c-0.2-0.1-0.4-0.1-0.6-0.2c-0.7-0.3-1.3-0.5-2-0.8c-0.2-0.1-0.3-0.1-0.5-0.2c-0.7-0.3-1.4-0.6-2.1-0.9c-0.1,0-0.2-0.1-0.3-0.1
	c-0.8-0.3-1.5-0.7-2.3-1c0,0,0,0,0,0c-38.1-17.9-65.4-58.9-69.3-106.5c0-0.1,0-0.1,0-0.2c-0.1-0.9-0.1-1.8-0.2-2.6
	c0-0.3,0-0.5,0-0.8c0-0.7-0.1-1.4-0.1-2.1c0-0.5,0-1-0.1-1.5c0-0.5,0-1,0-1.5c0-1,0-2.1,0-3.1c0-1.2,0-2.4,0-3.6c0-0.2,0-0.4,0-0.5
	c0-1.1,0.1-2.1,0.1-3.2c0-0.1,0-0.3,0-0.4c0.1-1.1,0.1-2.2,0.2-3.4c0-0.1,0-0.2,0-0.3c0.1-1.1,0.2-2.2,0.3-3.4
	C162.1,69.6,209.9,20,267.7,20c58.8,0,107.3,51.3,112.4,116.5c0,0,0,0,0,0c0.1,1.9,0.3,3.8,0.3,5.7c0,0.1,0,0.2,0,0.2
	c0,0.9,0.1,1.7,0.1,2.6c0,0.3,0,0.7,0,1c0,0.6,0,1.2,0,1.8C380.6,211.8,338.1,266.3,282.8,274.7z M356.3,400.7
	c-1.5,0.4-2.8,0.6-3.9,0.6c-1.9,0-2.6-0.4-3.3-2c0,0,0,0,0,0c-0.2-0.3-0.3-0.6-0.5-0.9c0,0-0.1-0.1-0.1-0.1
	c-0.2-0.2-0.3-0.5-0.5-0.7c-0.1-0.1-0.1-0.1-0.2-0.2c-0.2-0.2-0.3-0.4-0.5-0.6c-0.1-0.1-0.2-0.1-0.2-0.2c-0.2-0.2-0.3-0.3-0.5-0.5
	c-0.1-0.1-0.2-0.1-0.3-0.2c-0.2-0.1-0.4-0.3-0.6-0.4c-0.1-0.1-0.2-0.1-0.3-0.2c-0.2-0.1-0.4-0.2-0.6-0.3c-0.1-0.1-0.2-0.1-0.4-0.2
	c-0.2-0.1-0.4-0.2-0.5-0.2c-0.1-0.1-0.3-0.1-0.4-0.2c-0.1,0-0.1-0.1-0.2-0.1c-0.1,0-0.2-0.1-0.3-0.1c-0.1,0-0.2-0.1-0.3-0.1
	c0,0-0.1,0-0.1,0c-0.4-0.1-0.7-0.2-1.1-0.2c0,0,0,0,0,0c-0.4-0.1-0.8-0.1-1.2-0.1c0,0,0,0-0.1,0c0,0-0.1,0-0.1,0
	c-0.4,0-0.8,0-1.2,0.1c-0.1,0-0.1,0-0.2,0c-0.4,0.1-0.9,0.2-1.3,0.3c-0.1,0-0.1,0-0.2,0.1c-0.4,0.1-0.8,0.3-1.1,0.4
	c0,0-0.1,0-0.2,0.1c-0.4,0.2-0.8,0.4-1.2,0.7c0,0-0.1,0-0.1,0.1c-0.7,0.5-1.4,0.7-1.9,0.7c-1.2,0-3.1-1.2-5-3.1
	c-0.8-0.8-2.4-2.4-0.8-6.2c2.7-6.6,11.2-12.3,18.2-12.3c1,0,2,0.1,2.8,0.4c7.1,1.9,12.4,11.7,12.4,19.1
	C360.2,399.6,357.5,400.4,356.3,400.7z M471.8,276.4c-12.9,48.2-52.9,81.9-97.1,81.9c-7.3,0-14.6-1-21.7-2.9
	c-17.2-4.6-32.3-14.5-44-28.6c0.7-2.9,1-5.9,0.9-9c0-0.3,0-0.5-0.1-0.8c0-0.5-0.1-1-0.1-1.5c0-0.4-0.1-0.8-0.2-1.2
	c-0.1-0.4-0.1-0.8-0.2-1.2c-0.1-0.4-0.2-0.9-0.3-1.3c-0.1-0.4-0.2-0.8-0.3-1.2c0-0.2-0.1-0.4-0.1-0.6c-0.1-0.5-0.3-0.9-0.4-1.4
	c0,0,0,0,0,0c0,0,0,0,0,0c-0.2-0.7-0.4-1.4-0.7-2.1c-0.1-0.2-0.2-0.4-0.2-0.6c-0.2-0.4-0.3-0.8-0.5-1.2c-0.1-0.3-0.3-0.7-0.4-1
	c0-0.1-0.1-0.1-0.1-0.2c-1.9-4.2-4.4-8.2-7.4-11.8c0.4-0.1,0.8-0.2,1.2-0.3c0.6-0.2,1.2-0.4,1.9-0.5c24.4-7.2,46.5-22,63.8-43.1
	c15.5-18.9,26.3-41.8,31.4-66.3c0-0.2,0.1-0.5,0.1-0.7c0.2-0.9,0.4-1.8,0.5-2.7c0.1-0.4,0.2-0.9,0.2-1.3c0.1-0.7,0.2-1.4,0.4-2.1
	c0.1-0.6,0.2-1.1,0.3-1.7c0.1-0.6,0.2-1.2,0.3-1.8c0.1-0.6,0.2-1.2,0.3-1.9c0.1-0.5,0.1-1.1,0.2-1.6c0.1-0.7,0.2-1.3,0.2-2
	c0.1-0.5,0.1-1,0.2-1.5c0.1-0.7,0.1-1.4,0.2-2c0-0.5,0.1-1,0.1-1.5c0.1-0.7,0.1-1.4,0.2-2.1c0-0.5,0.1-1,0.1-1.5
	c0-0.7,0.1-1.4,0.1-2.1c0-0.5,0-1,0.1-1.6c0-0.7,0-1.4,0.1-2c0-0.5,0-1,0-1.6c0-0.7,0-1.3,0-2c0-0.1,0-0.2,0-0.3c0-0.3,0-0.6,0-0.9
	c2.7,0.4,5.3,1,7.9,1.7c24.1,6.5,44,23.2,56,47.1C476.7,219.9,479.3,248.6,471.8,276.4z"/>
<g>
	<g>
		<path class="st3" d="M227,70.3c-4.2-3.6-10.5-3-14.1,1.2c-11.6,13.8-20,31-24.2,49.7c-1.2,5.4,2.2,10.7,7.6,12
			c0.7,0.2,1.5,0.2,2.2,0.2c4.6,0,8.7-3.2,9.7-7.8c3.5-15.6,10.4-29.9,20-41.2C231.7,80.2,231.2,73.9,227,70.3z"/>
	</g>
</g>
<g>
	<g>
		<path class="st3" d="M253.7,52.7c-2.7-4.8-8.8-6.5-13.6-3.8c0,0,0,0,0,0c-4.8,2.6-6.6,8.7-4,13.5c1.8,3.3,5.3,5.2,8.8,5.2
			c1.6,0,3.3-0.4,4.8-1.2l0.3-0.2C254.7,63.6,256.4,57.5,253.7,52.7z"/>
	</g>
</g>
<g>
	<g>
		<path class="st3" d="M90.1,207.6c-5-2.3-11,0-13.2,5c-6.6,14.7-9.8,31.5-9.1,48.6c0.2,5.4,4.6,9.6,10,9.6c0.1,0,0.3,0,0.4,0
			c5.5-0.2,9.8-4.9,9.6-10.4c-0.6-14,2-27.7,7.3-39.6C97.4,215.8,95.1,209.8,90.1,207.6z"/>
	</g>
</g>
<g>
	<g>
		<path class="st3" d="M110.4,184.8c-3.9-3.9-10.2-4-14.1-0.1l0,0c-4,3.8-4.2,10.1-0.4,14.1c2,2.1,4.6,3.1,7.2,3.1
			c2.5,0,5-0.9,6.9-2.8l0.3-0.3C114.2,195.1,114.3,188.8,110.4,184.8z"/>
	</g>
</g>
</svg>
