<svg version="1.1" xmlns="http://www.w3.org/2000/svg" xmlns:xlink="http://www.w3.org/1999/xlink" x="0px" y="0px"  viewBox="0 0 48 48" enable-background="new 0 0 48 48" xml:space="preserve">
<path fill="#FFB74D" d="M9,20.385c0-12.969,26-14.698,26,0v8.645C35,36.193,29.179,42,22,42c-7.18,0-13-5.807-13-12.971V20.385z"/>
<g>
	<path fill="#784719" d="M30.142,25.143c0,0.949-0.769,1.714-1.715,1.714c-0.949,0-1.713-0.765-1.713-1.714&#10;&#9;&#9;c0-0.946,0.764-1.715,1.713-1.715C29.373,23.428,30.142,24.196,30.142,25.143"/>
	<path fill="#784719" d="M18.142,25.143c0,0.949-0.765,1.714-1.713,1.714s-1.716-0.765-1.716-1.714c0-0.946,0.768-1.715,1.716-1.715&#10;&#9;&#9;S18.142,24.196,18.142,25.143"/>
</g>
<path fill="#FF3D00" d="M37,14c2.898,1.672,4,3,4,3S36,3,26,3C7,3,7,19,7,19h28.917C35.917,18,35.434,13.412,37,14z"/>
<g>
	<circle fill="#FF8A80" cx="32.563" cy="31.781" r="3.906"/>
	<circle fill="#FF8A80" cx="12.094" cy="31.906" r="3.906"/>
</g>
<g>
	<path fill="#CFD8DC" d="M39,28.074c0-1.549-1.231-2.807-2.785-2.912c0.458-0.44,0.744-1.053,0.744-1.73&#10;&#9;&#9;c0-1.166-0.84-2.141-1.959-2.375V21h-2v7.729c-0.055,0.98-0.26,2.48-1,3.271c-1.529,1.631-2.688,1.281-3.568,0.689&#10;&#9;&#9;C25.139,30.465,22,31.081,22,31.081s-3.139-0.616-6.432,1.608C14.688,33.281,13.529,33.631,12,32c-0.74-0.79-0.945-2.291-1-3.271&#10;&#9;&#9;V21H9v0.047c-1.139,0.221-2,1.205-2,2.385c0,0.68,0.288,1.293,0.748,1.734C6.212,25.289,5,26.538,5,28.074&#10;&#9;&#9;c0,1.346,0.934,2.467,2.197,2.809C6.469,31.524,6,32.453,6,33.5c0,1.885,1.492,3.409,3.357,3.486C9.136,37.445,9,37.955,9,38.5&#10;&#9;&#9;c0,1.934,1.566,3.5,3.5,3.5c1.017,0,1.925-0.44,2.563-1.133C15.026,41.073,15,41.283,15,41.5c0,1.934,1.566,3.5,3.5,3.5&#10;&#9;&#9;c1.778,0,3.229-1.329,3.454-3.046c0.016-0.002,0.03-0.008,0.046-0.011c0.016,0.003,0.03,0.009,0.046,0.011&#10;&#9;&#9;C22.271,43.671,23.722,45,25.5,45c1.934,0,3.5-1.566,3.5-3.5c0-0.217-0.026-0.427-0.063-0.633C29.575,41.56,30.483,42,31.5,42&#10;&#9;&#9;c1.934,0,3.5-1.566,3.5-3.5c0-0.545-0.136-1.055-0.357-1.514C36.508,36.909,38,35.385,38,33.5c0-1.047-0.469-1.976-1.197-2.617&#10;&#9;&#9;C38.066,30.541,39,29.42,39,28.074z"/>
	<path fill="#CFD8DC" d="M38,18.5c0-0.652-0.419-1.201-1-1.408v-0.184c0.581-0.207,1-0.756,1-1.408c0-0.828-0.672-1.5-1.5-1.5&#10;&#9;&#9;c-0.652,0-1.201,0.419-1.408,1h-0.184c-0.207-0.581-0.756-1-1.408-1s-1.201,0.419-1.408,1h-0.184c-0.207-0.581-0.756-1-1.408-1&#10;&#9;&#9;s-1.201,0.419-1.408,1h-0.184c-0.207-0.581-0.756-1-1.408-1s-1.201,0.419-1.408,1h-0.184c-0.207-0.581-0.756-1-1.408-1&#10;&#9;&#9;s-1.201,0.419-1.408,1h-0.184c-0.207-0.581-0.756-1-1.408-1s-1.201,0.419-1.408,1h-0.184c-0.207-0.581-0.756-1-1.408-1&#10;&#9;&#9;s-1.201,0.419-1.408,1h-0.184c-0.207-0.581-0.756-1-1.408-1s-1.201,0.419-1.408,1h-0.184c-0.207-0.581-0.756-1-1.408-1&#10;&#9;&#9;s-1.201,0.419-1.408,1h-0.184c-0.207-0.581-0.756-1-1.408-1s-1.201,0.419-1.408,1H7.908c-0.207-0.581-0.756-1-1.408-1&#10;&#9;&#9;C5.672,14,5,14.672,5,15.5c0,0.652,0.419,1.201,1,1.408v0.184c-0.581,0.207-1,0.756-1,1.408s0.419,1.201,1,1.408v0.184&#10;&#9;&#9;c-0.581,0.207-1,0.756-1,1.408C5,22.328,5.672,23,6.5,23c0.652,0,1.201-0.419,1.408-1h0.184c0.207,0.581,0.756,1,1.408,1&#10;&#9;&#9;s1.201-0.419,1.408-1h0.184c0.207,0.581,0.756,1,1.408,1s1.201-0.419,1.408-1h0.184c0.207,0.581,0.756,1,1.408,1&#10;&#9;&#9;s1.201-0.419,1.408-1h0.184c0.207,0.581,0.756,1,1.408,1s1.201-0.419,1.408-1h0.184c0.207,0.581,0.756,1,1.408,1&#10;&#9;&#9;s1.201-0.419,1.408-1h0.184c0.207,0.581,0.756,1,1.408,1s1.201-0.419,1.408-1h0.184c0.207,0.581,0.756,1,1.408,1&#10;&#9;&#9;s1.201-0.419,1.408-1h0.184c0.207,0.581,0.756,1,1.408,1s1.201-0.419,1.408-1h0.184c0.207,0.581,0.756,1,1.408,1&#10;&#9;&#9;s1.201-0.419,1.408-1h0.184c0.207,0.581,0.756,1,1.408,1c0.828,0,1.5-0.672,1.5-1.5c0-0.652-0.419-1.201-1-1.408v-0.184&#10;&#9;&#9;C37.581,19.701,38,19.152,38,18.5z"/>
	<path fill="#CFD8DC" d="M42.339,16.082c0.555-0.38,0.807-1.08,0.575-1.74c0,0.01,0,0.01,0,0.01&#10;&#9;&#9;c-0.222-0.659-0.867-1.049-1.532-1.009c0.182-0.629-0.091-1.33-0.685-1.68c-0.604-0.359-1.351-0.25-1.823,0.211&#10;&#9;&#9;c-0.282-0.602-0.938-0.972-1.623-0.852c-0.685,0.111-1.188,0.671-1.259,1.331c-0.595-0.279-1.341-0.13-1.783,0.39&#10;&#9;&#9;c-0.454,0.529-0.475,1.279-0.092,1.83C33.473,14.742,33,15.323,33,16.012c0,0.66,0.423,1.209,1.007,1.419&#10;&#9;&#9;c-0.332,0.521-0.313,1.22,0.101,1.73c0.434,0.54,1.169,0.71,1.773,0.45c0.04,0.658,0.524,1.229,1.219,1.369&#10;&#9;&#9;C37.201,21,37.292,21,37.392,21c0.575,0,1.1-0.32,1.352-0.82c0.463,0.47,1.208,0.601,1.813,0.271c0.613-0.34,0.896-1.03,0.745-1.67&#10;&#9;&#9;c0.665,0.069,1.31-0.311,1.562-0.96C43.115,17.181,42.884,16.472,42.339,16.082z"/>
</g>
<path fill="#E57373" d="M18,36c0,0,1,2,4,2s4-2,4-2H18z"/>
<g>
	<g>
		<path fill="#90A4AE" d="M11,22h-0.092c-0.207,0.581-0.756,1-1.408,1s-1.201-0.419-1.408-1H7.908&#10;&#9;&#9;&#9;c-0.142,0.396-0.449,0.705-0.833,0.869C7.031,23.051,7,23.237,7,23.432c0,0.528,0.178,1.014,0.471,1.412&#10;&#9;&#9;&#9;C7.65,24.791,7.832,24.738,8,24.658C8.46,24.879,8.97,25,9.5,25s1.04-0.121,1.5-0.342V22z"/>
		<path fill="#90A4AE" d="M36.367,24.984c0.363-0.422,0.592-0.958,0.592-1.553c0-0.17-0.022-0.334-0.057-0.493&#10;&#9;&#9;&#9;C36.773,22.975,36.641,23,36.5,23c-0.652,0-1.201-0.419-1.408-1h-0.184c-0.207,0.581-0.756,1-1.408,1&#10;&#9;&#9;&#9;c-0.177,0-0.344-0.035-0.5-0.092v2.035C33.166,24.968,33.329,25,33.5,25c0.53,0,1.04-0.121,1.5-0.342&#10;&#9;&#9;&#9;C35.42,24.859,35.886,24.966,36.367,24.984z"/>
	</g>
	<path fill="#90A4AE" d="M38,21.5c0-0.21-0.056-0.402-0.134-0.582C37.715,20.967,37.557,21,37.392,21c-0.1,0-0.19,0-0.292-0.02&#10;&#9;&#9;c-0.694-0.14-1.179-0.711-1.219-1.369c-0.187,0.08-0.386,0.119-0.585,0.119c-0.445,0-0.889-0.196-1.188-0.569&#10;&#9;&#9;c-0.413-0.511-0.433-1.21-0.101-1.73C33.423,17.221,33,16.672,33,16.012c0-0.688,0.473-1.27,1.117-1.438&#10;&#9;&#9;c-0.109-0.157-0.176-0.331-0.219-0.51C33.771,14.027,33.64,14,33.5,14c-0.652,0-1.201,0.419-1.408,1h-0.184&#10;&#9;&#9;c-0.093-0.262-0.263-0.482-0.473-0.654C31.162,14.846,31,15.413,31,16.012c0,0.813,0.285,1.581,0.774,2.19&#10;&#9;&#9;c-0.005,0.787,0.257,1.573,0.778,2.217c0.526,0.655,1.26,1.093,2.073,1.249c0.095,0.119,0.204,0.226,0.313,0.332h0.153&#10;&#9;&#9;c0.533,1.428,1.7,0.951,1.746,0.959C37.503,22.805,38,22.211,38,21.5z"/>
</g>
<g>
	<circle fill="#FF9800" cx="22" cy="31" r="2"/>
	<circle fill="#FF9800" cx="24" cy="31" r="1.5"/>
	<circle fill="#FF9800" cx="20" cy="31" r="1.5"/>
</g>
</svg>