<?xml version="1.0" standalone="no"?>
<!-- Generator: Adobe Fireworks 10, Export SVG Extension by Aaron Beall (http://fireworks.abeall.com) . Version: 0.6.1  -->
<!DOCTYPE svg PUBLIC "-//W3C//DTD SVG 1.1//EN" "http://www.w3.org/Graphics/SVG/1.1/DTD/svg11.dtd">
<svg id="Untitled-Page%201" viewBox="0 0 274 69" style="background-color:#ffffff00" version="1.1"
	xmlns="http://www.w3.org/2000/svg" xmlns:xlink="http://www.w3.org/1999/xlink" xml:space="preserve"
	x="0px" y="0px" width="274px" height="69px"
>
	<g id="logo-jqwidgets">
		<path d="M 21.09 38 L 39.04 55.95 L 67.8 0 L 21.09 38 Z" fill="#6bbd49"/>
		<path d="M 0.5 28.71 L 24.39 56 L 67.8 0 L 0.5 28.71 Z" fill="#53b9e6"/>
		<path d="M 21.09 38 L 30.72 47.63 L 67.8 0 L 21.09 38 Z" fill="#22aaaa"/>
		<path d="M 76.99 44.6 C 76.99 45.36 76.96 45.97 76.89 46.45 C 76.82 46.93 76.66 47.31 76.41 47.61 C 76.15 47.9 75.78 48.1 75.27 48.22 C 74.77 48.33 74.08 48.38 73.22 48.38 L 73.22 51.24 C 73.66 51.3 74.06 51.34 74.39 51.37 C 74.73 51.4 75.02 51.41 75.27 51.41 C 77.28 51.41 78.71 50.92 79.57 49.94 C 80.43 48.96 80.86 47.45 80.86 45.4 L 80.86 22.03 L 76.99 22.03 L 76.99 44.6 L 76.99 44.6 Z" fill="#232633"/>
		<rect x="76.7" y="12.86" width="4.45" height="4.29" fill="#53b9e6"/>
		<path d="M 114.25 27.53 C 114.25 25.12 113.94 22.98 113.32 21.1 C 112.71 19.23 111.81 17.64 110.64 16.33 C 109.46 15.03 108.02 14.04 106.31 13.37 C 104.6 12.7 102.66 12.36 100.47 12.36 C 96.08 12.36 92.67 13.7 90.27 16.37 C 87.86 19.05 86.65 22.91 86.65 27.96 C 86.65 32.97 87.88 36.8 90.33 39.45 C 92.78 42.1 96.26 43.42 100.77 43.42 C 101.55 43.42 102.33 43.38 103.1 43.28 C 103.87 43.18 104.66 43.13 105.47 43.13 L 116.01 43.13 L 116.01 39.47 L 109.71 39.47 C 112.74 36.87 114.25 32.89 114.25 27.53 L 114.25 27.53 ZM 100.43 39.85 C 97.38 39.85 95.04 38.82 93.42 36.74 C 91.79 34.67 90.98 31.67 90.98 27.74 C 90.98 23.82 91.8 20.83 93.44 18.77 C 95.08 16.71 97.41 15.68 100.43 15.68 C 103.45 15.68 105.78 16.7 107.42 18.75 C 109.06 20.8 109.88 23.81 109.88 27.79 C 109.88 31.74 109.07 34.74 107.44 36.78 C 105.82 38.83 103.48 39.85 100.43 39.85 L 100.43 39.85 Z" fill="#232633"/>
		<path d="M 146.33 37.62 L 139.7 12.86 L 135.12 12.86 L 127.81 37.08 L 121.3 12.86 L 117.31 12.86 L 125.54 43.13 L 129.49 43.13 L 137.18 17.36 L 144.02 43.13 L 148.27 43.13 L 157 12.86 L 153.14 12.86 L 146.33 37.62 Z" fill="#232633"/>
		<rect x="160.61" y="12.86" width="4.54" height="4.29" fill="#6bbd49"/>
		<rect x="160.99" y="22.03" width="3.86" height="21.1" fill="#232633"/>
		<path d="M 190.22 38.93 L 190.22 12.86 L 186.36 12.86 L 186.36 25.22 C 184.68 22.87 182.38 21.69 179.47 21.69 C 176.58 21.69 174.32 22.65 172.69 24.57 C 171.05 26.49 170.23 29.22 170.23 32.75 C 170.23 34.43 170.45 35.94 170.88 37.29 C 171.31 38.63 171.94 39.77 172.75 40.71 C 173.56 41.65 174.54 42.37 175.69 42.88 C 176.84 43.38 178.14 43.63 179.59 43.63 C 181.02 43.63 182.26 43.35 183.31 42.79 C 184.36 42.23 185.38 41.31 186.36 40.02 L 186.52 43.13 L 190.47 43.13 C 190.36 42.26 190.29 41.48 190.26 40.8 C 190.23 40.11 190.22 39.49 190.22 38.93 L 190.22 38.93 ZM 184.63 38.99 C 183.49 40.38 182.03 41.07 180.27 41.07 C 179.43 41.07 178.64 40.88 177.91 40.5 C 177.19 40.12 176.55 39.57 176 38.84 C 175.46 38.11 175.03 37.2 174.72 36.11 C 174.41 35.02 174.26 33.76 174.26 32.33 C 174.26 29.75 174.83 27.76 175.98 26.36 C 177.13 24.96 178.59 24.26 180.35 24.26 C 181.19 24.26 181.98 24.45 182.72 24.82 C 183.47 25.2 184.1 25.76 184.63 26.48 C 185.17 27.21 185.59 28.12 185.89 29.22 C 186.2 30.31 186.36 31.57 186.36 33 C 186.36 35.61 185.78 37.6 184.63 38.99 L 184.63 38.99 Z" fill="#232633"/>
		<path d="M 211.3 24.63 C 210.04 22.59 207.79 21.57 204.54 21.57 C 203.2 21.57 201.98 21.8 200.89 22.26 C 199.8 22.72 198.85 23.39 198.05 24.28 C 197.26 25.16 196.64 26.24 196.2 27.51 C 195.77 28.79 195.55 30.24 195.55 31.86 C 195.55 35.26 196.34 37.82 197.93 39.56 C 199.51 41.3 201.78 42.16 204.75 42.16 C 205.45 42.16 206.13 42.08 206.79 41.91 C 207.45 41.74 208.05 41.52 208.62 41.24 C 209.17 40.96 209.66 40.64 210.08 40.27 C 210.5 39.91 210.81 39.53 211.01 39.14 L 211.01 43.07 C 211.01 44.97 210.57 46.38 209.71 47.32 C 208.84 48.25 207.44 48.72 205.51 48.72 C 202.43 48.72 200.86 47.28 200.8 44.39 L 196.6 44.39 C 196.63 46.89 197.32 48.69 198.66 49.81 C 200 50.93 202.15 51.5 205.11 51.5 C 208.49 51.5 210.96 50.79 212.53 49.37 C 214.09 47.96 214.87 45.65 214.87 42.46 L 214.87 25.77 C 214.87 25.41 214.88 24.91 214.89 24.3 C 214.91 23.68 214.96 22.92 215.04 22.03 L 211.43 22.03 L 211.3 24.63 L 211.3 24.63 ZM 209.79 37.67 C 208.67 39.04 207.27 39.73 205.59 39.73 C 203.83 39.73 202.39 39.08 201.29 37.79 C 200.18 36.5 199.63 34.67 199.63 32.28 C 199.63 30.97 199.78 29.8 200.09 28.8 C 200.4 27.79 200.81 26.95 201.33 26.27 C 201.85 25.6 202.46 25.09 203.18 24.74 C 203.89 24.39 204.67 24.21 205.51 24.21 C 207.27 24.21 208.71 24.86 209.81 26.15 C 210.92 27.44 211.47 29.27 211.47 31.65 C 211.47 34.29 210.91 36.29 209.79 37.67 L 209.79 37.67 Z" fill="#232633"/>
		<path d="M 230.16 21.52 C 227.08 21.52 224.69 22.48 223 24.4 C 221.3 26.32 220.46 29.19 220.46 33 C 220.46 36.5 221.3 39.15 222.98 40.94 C 224.66 42.74 227.15 43.63 230.45 43.63 C 231.71 43.63 232.87 43.46 233.92 43.11 C 234.97 42.76 235.86 42.27 236.61 41.64 C 237.35 41.01 237.93 40.24 238.35 39.35 C 238.77 38.45 238.98 37.46 238.98 36.36 L 235.28 36.36 C 235.26 37.71 234.79 38.77 233.9 39.56 C 233 40.34 231.77 40.73 230.2 40.73 C 228.35 40.73 226.91 40.19 225.88 39.12 C 224.84 38.04 224.32 36.49 224.32 34.47 L 224.32 33.21 L 239.27 33.21 C 239.33 32.76 239.36 32.33 239.36 31.91 L 239.36 30.65 C 239.36 27.82 238.54 25.59 236.92 23.96 C 235.3 22.34 233.04 21.52 230.16 21.52 L 230.16 21.52 ZM 235.41 30.44 L 224.53 30.44 C 224.53 28.51 225.06 26.99 226.13 25.86 C 227.19 24.74 228.55 24.17 230.2 24.17 C 231.71 24.17 232.96 24.69 233.94 25.72 C 234.92 26.75 235.41 28.17 235.41 29.98 L 235.41 30.44 L 235.41 30.44 Z" fill="#232633"/>
		<path d="M 249.35 16.39 L 245.49 17.7 L 245.49 22.03 L 241.92 22.03 L 241.92 24.8 L 245.49 24.8 L 245.49 39.14 C 245.49 40.82 245.91 41.98 246.77 42.63 C 247.62 43.27 249 43.59 250.91 43.59 C 251.69 43.59 252.71 43.42 253.97 43.09 L 253.97 40.15 C 253.66 40.23 253.35 40.3 253.03 40.36 C 252.71 40.41 252.38 40.44 252.04 40.44 C 250.92 40.44 250.19 40.26 249.86 39.89 C 249.52 39.53 249.35 38.82 249.35 37.75 L 249.35 24.8 L 254.06 24.8 L 254.06 22.03 L 249.35 22.03 L 249.35 16.39 L 249.35 16.39 Z" fill="#232633"/>
		<path d="M 268.61 31.43 L 263.81 30.13 C 262.71 29.82 261.92 29.46 261.43 29.06 C 260.94 28.65 260.69 28.1 260.69 27.4 C 260.69 26.56 261.08 25.84 261.85 25.24 C 262.63 24.64 263.65 24.34 264.91 24.34 C 266.18 24.34 267.17 24.63 267.89 25.2 C 268.61 25.78 268.96 26.58 268.96 27.62 L 268.96 27.79 L 272.79 27.79 C 272.81 27.65 272.83 27.44 272.83 27.16 C 272.83 25.45 272.16 24.09 270.82 23.08 C 269.48 22.07 267.61 21.57 265.2 21.57 C 263.89 21.57 262.7 21.73 261.64 22.05 C 260.58 22.37 259.69 22.83 258.96 23.42 C 258.24 24 257.68 24.69 257.29 25.47 C 256.9 26.26 256.7 27.11 256.7 28.04 C 256.7 30.84 258.56 32.68 262.29 33.55 L 266.78 34.6 C 268.46 35.02 269.3 35.94 269.3 37.37 C 269.3 38.35 268.9 39.15 268.1 39.77 C 267.3 40.38 266.22 40.69 264.87 40.69 C 263.52 40.69 262.44 40.35 261.62 39.66 C 260.8 38.98 260.4 38.04 260.4 36.87 L 260.4 36.78 L 256.53 36.78 L 256.53 37.29 C 256.53 39.5 257.22 41.11 258.59 42.12 C 259.96 43.13 262.12 43.63 265.06 43.63 C 267.72 43.63 269.79 43.03 271.27 41.83 C 272.76 40.63 273.5 39.05 273.5 37.09 C 273.5 34.18 271.87 32.3 268.61 31.43 L 268.61 31.43 Z" fill="#232633"/>
		<path d="M 79.09 61.28 C 78.94 60.78 78.72 60.38 78.44 60.03 C 78.16 59.69 77.83 59.44 77.44 59.27 C 77.03 59.09 76.61 59 76.16 59 C 75.67 59 75.23 59.11 74.83 59.31 C 74.42 59.53 74.08 59.8 73.8 60.14 L 73.8 55 L 72.69 55 L 72.69 67 L 73.52 67 L 73.64 66.05 L 73.67 66.05 C 73.98 66.38 74.33 66.61 74.69 66.77 C 75.05 66.92 75.47 67 75.97 67 C 76.42 67 76.86 66.91 77.27 66.72 C 77.67 66.53 78.03 66.27 78.34 65.92 C 78.64 65.58 78.88 65.16 79.06 64.66 C 79.25 64.16 79.34 63.59 79.34 62.97 C 79.34 62.34 79.25 61.78 79.09 61.28 L 79.09 61.28 ZM 77.95 64.3 C 77.81 64.67 77.62 64.98 77.41 65.23 C 77.17 65.48 76.91 65.69 76.61 65.81 C 76.31 65.94 76 66 75.69 66 C 75.3 66 74.94 65.92 74.61 65.77 C 74.28 65.61 74.02 65.41 73.8 65.16 L 73.8 61.14 C 74.06 60.83 74.38 60.55 74.75 60.33 C 75.11 60.11 75.5 60 75.94 60 C 76.61 60 77.16 60.27 77.56 60.78 C 77.97 61.31 78.17 62.03 78.17 62.97 C 78.17 63.48 78.09 63.92 77.95 64.3 L 77.95 64.3 Z" fill="#64797f"/>
		<path d="M 87.09 62.33 C 87.09 61.83 87.01 61.38 86.87 60.97 C 86.71 60.56 86.51 60.2 86.24 59.91 C 85.98 59.62 85.67 59.39 85.29 59.23 C 84.92 59.08 84.51 59 84.06 59 C 83.53 59 83.04 59.09 82.6 59.28 C 82.17 59.47 81.81 59.73 81.51 60.08 C 81.2 60.42 80.96 60.84 80.79 61.34 C 80.62 61.84 80.54 62.39 80.54 62.98 C 80.54 63.7 80.63 64.31 80.84 64.81 C 81.04 65.31 81.32 65.73 81.67 66.05 C 82.01 66.38 82.4 66.61 82.87 66.77 C 83.32 66.92 83.82 67 84.35 67 C 84.79 67 85.21 66.97 85.62 66.88 C 86.01 66.8 86.35 66.69 86.67 66.55 L 86.43 65.61 C 86.09 65.77 85.74 65.86 85.43 65.92 C 85.12 65.98 84.78 66 84.4 66 C 83.56 66 82.9 65.75 82.43 65.25 C 81.95 64.75 81.71 64.05 81.71 63.14 L 81.71 63 L 87.09 63 L 87.09 62.33 L 87.09 62.33 ZM 81.74 62 C 81.82 61.39 82.06 60.91 82.46 60.55 C 82.87 60.19 83.37 60 83.99 60 C 84.34 60 84.62 60.06 84.87 60.17 C 85.12 60.28 85.32 60.42 85.48 60.61 C 85.63 60.8 85.74 61 85.82 61.25 C 85.88 61.5 85.93 61.75 85.93 62 L 81.74 62 L 81.74 62 Z" fill="#64797f"/>
		<path d="M 93.35 59 L 90.97 59 L 90.97 56 L 89.85 56 L 89.85 59 L 88.61 59 L 88.61 60 L 89.85 60 L 89.85 65.03 C 89.85 66.34 90.52 67 91.89 67 C 92.27 67 92.61 66.97 92.94 66.91 C 93.25 66.84 93.52 66.75 93.74 66.66 L 93.57 65.72 C 93.36 65.8 93.13 65.86 92.88 65.92 C 92.63 65.98 92.36 66 92.11 66 C 91.77 66 91.49 65.92 91.28 65.77 C 91.07 65.61 90.97 65.31 90.97 64.84 L 90.97 60 L 93.35 60 L 93.35 59 L 93.35 59 Z" fill="#64797f"/>
		<path d="M 99.75 59 L 97.37 59 L 97.37 56 L 96.25 56 L 96.25 59 L 95.01 59 L 95.01 60 L 96.25 60 L 96.25 65.03 C 96.25 66.34 96.92 67 98.29 67 C 98.67 67 99.01 66.97 99.34 66.91 C 99.65 66.84 99.92 66.75 100.14 66.66 L 99.97 65.72 C 99.76 65.8 99.53 65.86 99.28 65.92 C 99.03 65.98 98.76 66 98.51 66 C 98.17 66 97.89 65.92 97.68 65.77 C 97.47 65.61 97.37 65.31 97.37 64.84 L 97.37 60 L 99.75 60 L 99.75 59 L 99.75 59 Z" fill="#64797f"/>
		<path d="M 108.29 62.33 C 108.29 61.83 108.21 61.38 108.07 60.97 C 107.91 60.56 107.71 60.2 107.44 59.91 C 107.18 59.62 106.87 59.39 106.49 59.23 C 106.12 59.08 105.71 59 105.26 59 C 104.73 59 104.24 59.09 103.8 59.28 C 103.37 59.47 103.01 59.73 102.71 60.08 C 102.4 60.42 102.16 60.84 101.99 61.34 C 101.82 61.84 101.74 62.39 101.74 62.98 C 101.74 63.7 101.83 64.31 102.04 64.81 C 102.24 65.31 102.52 65.73 102.87 66.05 C 103.21 66.38 103.6 66.61 104.07 66.77 C 104.52 66.92 105.02 67 105.55 67 C 105.99 67 106.41 66.97 106.82 66.88 C 107.21 66.8 107.55 66.69 107.87 66.55 L 107.63 65.61 C 107.29 65.77 106.94 65.86 106.63 65.92 C 106.32 65.98 105.98 66 105.6 66 C 104.76 66 104.1 65.75 103.63 65.25 C 103.15 64.75 102.91 64.05 102.91 63.14 L 102.91 63 L 108.29 63 L 108.29 62.33 L 108.29 62.33 ZM 102.94 62 C 103.02 61.39 103.26 60.91 103.66 60.55 C 104.07 60.19 104.57 60 105.19 60 C 105.54 60 105.82 60.06 106.07 60.17 C 106.32 60.28 106.52 60.42 106.68 60.61 C 106.83 60.8 106.94 61 107.02 61.25 C 107.08 61.5 107.13 61.75 107.13 62 L 102.94 62 L 102.94 62 Z" fill="#64797f"/>
		<path d="M 111.72 67 L 111.72 62.75 C 111.72 62.31 111.77 61.91 111.89 61.56 C 112.02 61.22 112.17 60.92 112.38 60.7 C 112.58 60.48 112.81 60.31 113.08 60.19 C 113.34 60.06 113.64 60 113.95 60 C 114.16 60 114.34 60.03 114.5 60.08 C 114.66 60.12 114.81 60.19 114.94 60.25 L 115.14 59.12 C 115.02 59.09 114.86 59.08 114.67 59.05 C 114.48 59.02 114.25 59 114 59 C 113.45 59 112.97 59.16 112.55 59.47 C 112.11 59.78 111.81 60.19 111.62 60.69 L 111.42 59 L 110.62 59 L 110.62 67 L 111.72 67 L 111.72 67 Z" fill="#64797f"/>
		<path d="M 121.72 67 L 122.91 67 L 124.32 61.98 L 124.77 59.95 L 125.22 61.98 L 126.58 67 L 127.86 67 L 130.07 59 L 128.94 59 L 127.68 64.06 L 127.24 66.08 L 127.19 66.08 L 126.74 64.06 L 125.38 59 L 124.18 59 L 122.8 64.06 L 122.36 66.08 L 122.32 66.08 L 121.94 64.06 L 120.64 59 L 119.47 59 L 121.72 67 Z" fill="#64797f"/>
		<path d="M 137.89 62.33 C 137.89 61.83 137.81 61.38 137.67 60.97 C 137.51 60.56 137.31 60.2 137.04 59.91 C 136.78 59.62 136.47 59.39 136.09 59.23 C 135.72 59.08 135.31 59 134.86 59 C 134.32 59 133.84 59.09 133.4 59.28 C 132.97 59.47 132.61 59.73 132.31 60.08 C 132 60.42 131.76 60.84 131.59 61.34 C 131.42 61.84 131.34 62.39 131.34 62.98 C 131.34 63.7 131.43 64.31 131.64 64.81 C 131.84 65.31 132.12 65.73 132.47 66.05 C 132.81 66.38 133.2 66.61 133.67 66.77 C 134.12 66.92 134.62 67 135.15 67 C 135.59 67 136.01 66.97 136.42 66.88 C 136.81 66.8 137.15 66.69 137.47 66.55 L 137.23 65.61 C 136.89 65.77 136.54 65.86 136.23 65.92 C 135.92 65.98 135.57 66 135.2 66 C 134.36 66 133.7 65.75 133.23 65.25 C 132.75 64.75 132.51 64.05 132.51 63.14 L 132.51 63 L 137.89 63 L 137.89 62.33 L 137.89 62.33 ZM 132.54 62 C 132.62 61.39 132.86 60.91 133.26 60.55 C 133.67 60.19 134.17 60 134.79 60 C 135.14 60 135.42 60.06 135.67 60.17 C 135.92 60.28 136.12 60.42 136.28 60.61 C 136.43 60.8 136.54 61 136.62 61.25 C 136.68 61.5 136.73 61.75 136.73 62 L 132.54 62 L 132.54 62 Z" fill="#64797f"/>
		<path d="M 146.69 61.28 C 146.54 60.78 146.32 60.38 146.04 60.03 C 145.76 59.69 145.43 59.44 145.04 59.27 C 144.63 59.09 144.21 59 143.76 59 C 143.27 59 142.83 59.11 142.43 59.31 C 142.02 59.53 141.68 59.8 141.4 60.14 L 141.4 55 L 140.29 55 L 140.29 67 L 141.12 67 L 141.24 66.05 L 141.27 66.05 C 141.58 66.38 141.93 66.61 142.29 66.77 C 142.65 66.92 143.07 67 143.57 67 C 144.02 67 144.46 66.91 144.87 66.72 C 145.27 66.53 145.63 66.27 145.94 65.92 C 146.24 65.58 146.48 65.16 146.66 64.66 C 146.85 64.16 146.94 63.59 146.94 62.97 C 146.94 62.34 146.85 61.78 146.69 61.28 L 146.69 61.28 ZM 145.55 64.3 C 145.41 64.67 145.23 64.98 145.01 65.23 C 144.77 65.48 144.51 65.69 144.21 65.81 C 143.91 65.94 143.6 66 143.29 66 C 142.9 66 142.54 65.92 142.21 65.77 C 141.88 65.61 141.62 65.41 141.4 65.16 L 141.4 61.14 C 141.66 60.83 141.98 60.55 142.35 60.33 C 142.71 60.11 143.1 60 143.54 60 C 144.21 60 144.76 60.27 145.16 60.78 C 145.57 61.31 145.77 62.03 145.77 62.97 C 145.77 63.48 145.69 63.92 145.55 64.3 L 145.55 64.3 Z" fill="#64797f"/>
		<path d="M 149.22 66.83 C 149.14 67.16 149 67.45 148.8 67.73 C 148.58 67.98 148.33 68.2 148.03 68.38 L 148.42 68.95 C 148.88 68.69 149.27 68.33 149.59 67.88 C 149.91 67.39 150.08 66.91 150.08 66.34 C 150.08 66.08 150.05 65.86 149.98 65.69 C 149.92 65.52 149.84 65.38 149.75 65.28 C 149.66 65.19 149.55 65.11 149.44 65.06 C 149.33 65.03 149.22 65 149.11 65 C 148.86 65 148.66 65.09 148.5 65.27 C 148.34 65.44 148.28 65.64 148.28 65.86 C 148.28 66.11 148.34 66.33 148.48 66.5 C 148.61 66.67 148.8 66.77 149.02 66.8 L 149.22 66.83 L 149.22 66.83 Z" fill="#64797f"/>
		<rect x="155.52" y="55" width="1.09" height="12" fill="#64797f"/>
		<path d="M 165.89 62.33 C 165.89 61.83 165.81 61.38 165.67 60.97 C 165.51 60.56 165.31 60.2 165.04 59.91 C 164.78 59.62 164.47 59.39 164.09 59.23 C 163.72 59.08 163.31 59 162.86 59 C 162.32 59 161.84 59.09 161.4 59.28 C 160.97 59.47 160.61 59.73 160.31 60.08 C 160 60.42 159.76 60.84 159.59 61.34 C 159.42 61.84 159.34 62.39 159.34 62.98 C 159.34 63.7 159.43 64.31 159.64 64.81 C 159.84 65.31 160.12 65.73 160.47 66.05 C 160.81 66.38 161.2 66.61 161.67 66.77 C 162.12 66.92 162.62 67 163.15 67 C 163.59 67 164.01 66.97 164.42 66.88 C 164.81 66.8 165.15 66.69 165.47 66.55 L 165.23 65.61 C 164.89 65.77 164.54 65.86 164.23 65.92 C 163.92 65.98 163.57 66 163.2 66 C 162.36 66 161.7 65.75 161.23 65.25 C 160.75 64.75 160.51 64.05 160.51 63.14 L 160.51 63 L 165.89 63 L 165.89 62.33 L 165.89 62.33 ZM 160.54 62 C 160.62 61.39 160.86 60.91 161.26 60.55 C 161.67 60.19 162.17 60 162.79 60 C 163.14 60 163.42 60.06 163.67 60.17 C 163.92 60.28 164.12 60.42 164.28 60.61 C 164.43 60.8 164.54 61 164.62 61.25 C 164.68 61.5 164.73 61.75 164.73 62 L 160.54 62 L 160.54 62 Z" fill="#64797f"/>
		<path d="M 172.55 59.48 C 172.21 59.31 171.85 59.19 171.48 59.11 C 171.1 59.05 170.73 59 170.38 59 C 169.99 59 169.65 59.06 169.33 59.16 C 169.02 59.27 168.74 59.41 168.51 59.59 C 168.27 59.78 168.08 60 167.96 60.25 C 167.83 60.52 167.77 60.8 167.77 61.11 C 167.77 61.62 167.93 62.05 168.24 62.38 C 168.55 62.72 169.05 62.98 169.73 63.2 L 170.24 63.36 C 170.77 63.55 171.15 63.73 171.4 63.92 C 171.63 64.12 171.76 64.41 171.76 64.75 C 171.76 65.16 171.6 65.47 171.3 65.69 C 170.99 65.91 170.57 66 170.02 66 C 169.63 66 169.27 65.97 168.94 65.89 C 168.6 65.81 168.29 65.7 168.01 65.55 L 167.73 66.5 C 168.02 66.66 168.37 66.78 168.77 66.88 C 169.18 66.97 169.62 67 170.12 67 C 171.01 67 171.69 66.8 172.18 66.38 C 172.65 65.95 172.9 65.42 172.9 64.77 C 172.9 64.22 172.71 63.77 172.37 63.42 C 172.02 63.08 171.52 62.8 170.87 62.58 L 170.38 62.44 C 169.8 62.27 169.41 62.09 169.21 61.91 C 168.99 61.73 168.9 61.48 168.9 61.17 C 168.9 60.83 169.02 60.55 169.29 60.33 C 169.55 60.11 169.96 60 170.51 60 C 170.82 60 171.12 60.05 171.4 60.11 C 171.68 60.19 171.98 60.31 172.29 60.48 L 172.55 59.48 L 172.55 59.48 Z" fill="#64797f"/>
		<path d="M 178.95 59.48 C 178.61 59.31 178.25 59.19 177.88 59.11 C 177.5 59.05 177.12 59 176.78 59 C 176.39 59 176.05 59.06 175.73 59.16 C 175.42 59.27 175.14 59.41 174.91 59.59 C 174.67 59.78 174.48 60 174.36 60.25 C 174.23 60.52 174.17 60.8 174.17 61.11 C 174.17 61.62 174.33 62.05 174.64 62.38 C 174.95 62.72 175.45 62.98 176.12 63.2 L 176.64 63.36 C 177.17 63.55 177.55 63.73 177.8 63.92 C 178.03 64.12 178.16 64.41 178.16 64.75 C 178.16 65.16 178 65.47 177.7 65.69 C 177.39 65.91 176.97 66 176.42 66 C 176.03 66 175.67 65.97 175.34 65.89 C 175 65.81 174.69 65.7 174.41 65.55 L 174.12 66.5 C 174.42 66.66 174.77 66.78 175.17 66.88 C 175.58 66.97 176.02 67 176.52 67 C 177.41 67 178.09 66.8 178.58 66.38 C 179.05 65.95 179.3 65.42 179.3 64.77 C 179.3 64.22 179.11 63.77 178.77 63.42 C 178.42 63.08 177.92 62.8 177.27 62.58 L 176.78 62.44 C 176.2 62.27 175.81 62.09 175.61 61.91 C 175.39 61.73 175.3 61.48 175.3 61.17 C 175.3 60.83 175.42 60.55 175.69 60.33 C 175.95 60.11 176.36 60 176.91 60 C 177.22 60 177.52 60.05 177.8 60.11 C 178.08 60.19 178.38 60.31 178.69 60.48 L 178.95 59.48 L 178.95 59.48 Z" fill="#64797f"/>
		<path d="M 188.35 59 L 185.97 59 L 185.97 56 L 184.85 56 L 184.85 59 L 183.61 59 L 183.61 60 L 184.85 60 L 184.85 65.03 C 184.85 66.34 185.52 67 186.89 67 C 187.27 67 187.61 66.97 187.94 66.91 C 188.25 66.84 188.52 66.75 188.74 66.66 L 188.57 65.72 C 188.36 65.8 188.13 65.86 187.88 65.92 C 187.63 65.98 187.36 66 187.11 66 C 186.77 66 186.49 65.92 186.28 65.77 C 186.07 65.61 185.97 65.31 185.97 64.84 L 185.97 60 L 188.35 60 L 188.35 59 L 188.35 59 Z" fill="#64797f"/>
		<path d="M 192.12 67 L 192.12 59 L 191 59 L 191 67 L 192.12 67 L 192.12 67 ZM 192.07 55.88 C 192.23 55.78 192.31 55.66 192.31 55.5 C 192.31 55.36 192.23 55.23 192.07 55.14 C 191.92 55.05 191.75 55 191.56 55 C 191.34 55 191.15 55.05 191.01 55.14 C 190.87 55.23 190.81 55.36 190.81 55.5 C 190.81 55.66 190.87 55.77 191.01 55.86 C 191.15 55.95 191.34 56 191.56 56 C 191.75 56 191.92 55.97 192.07 55.88 L 192.07 55.88 Z" fill="#64797f"/>
		<path d="M 196.37 61.2 C 196.66 60.83 196.99 60.55 197.35 60.33 C 197.71 60.11 198.08 60 198.46 60 C 199.05 60 199.46 60.17 199.69 60.48 C 199.93 60.8 200.05 61.27 200.05 61.86 L 200.05 67 L 201.18 67 L 201.18 61.66 L 201.18 61.41 C 201.18 61.31 201.16 61.23 201.16 61.16 C 201.44 60.8 201.76 60.52 202.13 60.31 C 202.49 60.11 202.85 60 203.23 60 C 203.82 60 204.24 60.17 204.49 60.48 C 204.73 60.8 204.85 61.27 204.85 61.86 L 204.85 67 L 205.98 67 L 205.98 61.56 C 205.98 60.77 205.77 60.14 205.38 59.69 C 204.99 59.23 204.41 59 203.65 59 C 203.1 59 202.6 59.12 202.16 59.36 C 201.71 59.61 201.3 59.94 200.93 60.38 C 200.76 59.95 200.51 59.62 200.16 59.38 C 199.82 59.12 199.38 59 198.85 59 C 198.29 59 197.8 59.12 197.4 59.36 C 196.99 59.59 196.6 59.91 196.26 60.3 L 196.08 59 L 195.26 59 L 195.26 67 L 196.37 67 L 196.37 61.2 L 196.37 61.2 Z" fill="#64797f"/>
		<path d="M 214.69 62.33 C 214.69 61.83 214.61 61.38 214.47 60.97 C 214.31 60.56 214.11 60.2 213.84 59.91 C 213.58 59.62 213.27 59.39 212.89 59.23 C 212.52 59.08 212.11 59 211.66 59 C 211.12 59 210.64 59.09 210.2 59.28 C 209.77 59.47 209.41 59.73 209.11 60.08 C 208.8 60.42 208.56 60.84 208.39 61.34 C 208.22 61.84 208.14 62.39 208.14 62.98 C 208.14 63.7 208.23 64.31 208.44 64.81 C 208.64 65.31 208.92 65.73 209.27 66.05 C 209.61 66.38 210 66.61 210.47 66.77 C 210.92 66.92 211.42 67 211.95 67 C 212.39 67 212.81 66.97 213.22 66.88 C 213.61 66.8 213.95 66.69 214.27 66.55 L 214.03 65.61 C 213.69 65.77 213.34 65.86 213.03 65.92 C 212.72 65.98 212.38 66 212 66 C 211.16 66 210.5 65.75 210.03 65.25 C 209.55 64.75 209.31 64.05 209.31 63.14 L 209.31 63 L 214.69 63 L 214.69 62.33 L 214.69 62.33 ZM 209.34 62 C 209.42 61.39 209.66 60.91 210.06 60.55 C 210.47 60.19 210.97 60 211.59 60 C 211.94 60 212.22 60.06 212.47 60.17 C 212.72 60.28 212.92 60.42 213.08 60.61 C 213.23 60.8 213.34 61 213.42 61.25 C 213.48 61.5 213.53 61.75 213.53 62 L 209.34 62 L 209.34 62 Z" fill="#64797f"/>
	</g>
</svg>