<?xml version="1.0" encoding="iso-8859-1"?>
<!-- Generator: Adobe Illustrator 19.0.0, SVG Export Plug-In . SVG Version: 6.00 Build 0)  -->
<svg version="1.1" id="Capa_1" xmlns="http://www.w3.org/2000/svg" xmlns:xlink="http://www.w3.org/1999/xlink" x="0px" y="0px"
	 viewBox="0 0 514.134 514.134" style="enable-background:new 0 0 514.134 514.134;" xml:space="preserve">
<rect x="81.604" y="164.267" style="fill:#F3F3F3;" width="78.933" height="87.47"/>
<path style="fill:#FFD15C;" d="M145.601,122.667c1.067,12.8-6.4,26.667-18.133,29.867c-11.733,3.2-25.6-5.333-29.867-18.133
	c-3.2-8.533-2.133-17.067,0-26.667c0-1.067,8.533-19.2,13.867-26.667c5.333-7.467,8.533-17.067,6.4-26.667
	c5.333,10.667,10.666,21.334,15.999,33.067C139.201,99.2,145.601,110.934,145.601,122.667z"/>
<path style="fill:#F3705A;" d="M133.867,137.6c0,6.4-3.2,12.8-8.533,14.933c-6.4,2.133-12.8-3.2-14.933-8.533
	c-1.067-4.267-1.067-8.533,0-12.8v-1.067c1.067-4.267,4.267-8.533,6.4-11.733c2.133-4.267,4.267-8.533,3.2-12.8
	c2.133,5.333,5.333,10.667,7.467,16C129.601,125.867,132.801,132.267,133.867,137.6z"/>
<rect x="217.064" y="109.867" style="fill:#F3F3F3;" width="78.933" height="141.87"/>
<path style="fill:#FFD15C;" d="M281.067,68.267c1.067,12.8-6.4,26.667-18.133,29.867c-11.733,3.2-25.6-5.333-29.867-18.133
	c-3.2-8.533-2.133-17.067,0-26.667c0-1.067,8.533-19.2,13.867-26.667C252.267,19.2,255.467,9.6,253.334,0
	c5.333,10.667,10.667,21.333,16,33.067C274.667,44.8,281.067,56.534,281.067,68.267z"/>
<path style="fill:#F3705A;" d="M269.333,83.2c0,6.4-3.2,12.8-8.533,14.933c-6.4,2.133-12.8-3.2-14.933-8.533
	c-1.067-4.267-1.067-8.533,0-12.8v-1.067c1.067-4.267,4.267-8.533,6.4-11.733c2.133-5.333,4.267-9.6,2.133-13.867
	c2.133,5.333,5.333,10.667,7.467,16C265.067,71.467,268.267,77.867,269.333,83.2z"/>
<rect x="352.534" y="164.267" style="fill:#F3F3F3;" width="78.933" height="87.47"/>
<path style="fill:#FFD15C;" d="M416.534,122.667c1.067,12.8-6.4,26.667-18.133,29.867s-25.6-5.333-29.867-18.133
	c-3.2-8.533-2.133-17.067,0-26.667c0-1.067,8.533-19.2,13.867-26.667c5.333-7.467,8.533-17.067,6.4-26.667
	c5.333,10.667,10.667,21.333,16,33.067C410.134,99.2,416.534,110.934,416.534,122.667z"/>
<path style="fill:#F3705A;" d="M404.801,137.6c0,6.4-3.2,12.8-8.533,14.933c-6.4,2.133-12.8-3.2-14.933-8.533
	c-1.067-4.267-1.067-8.533,0-12.8v-1.067c1.067-4.267,4.267-8.533,6.4-11.733c2.133-4.267,4.267-8.533,3.2-12.8
	c2.133,5.333,5.333,10.667,7.467,16C400.534,125.867,403.734,132.267,404.801,137.6z"/>
<g>
	<path style="fill:#F3F3F3;" d="M483.734,251.734h-454.4c-16,0-28.8,12.8-28.8,28.8v232.533h512V280.534
		C512.534,264.534,499.734,251.734,483.734,251.734z"/>
	<path style="fill:#F3F3F3;" d="M483.734,251.734h-454.4c-16,0-28.8,12.8-28.8,28.8v232.533h512V280.534
		C512.534,264.534,499.734,251.734,483.734,251.734z"/>
</g>
<path style="fill:#F3705A;" d="M107.201,395.734c0,0,6.4-49.067,36.267-58.667c11.733-4.267,23.467,2.133,27.733,14.933
	c3.2,9.6,0,20.267-8.533,25.6c9.6,0,19.2,5.333,22.4,16c4.267,11.733-2.133,24.533-13.867,28.8
	C141.334,432,107.201,395.734,107.201,395.734z"/>
<g>
	<path style="fill:#8AD7F8;" d="M86.934,391.467c0,0-49.067-2.133-61.867-30.933c-5.333-10.667,0-24.533,11.733-28.8
		c9.6-4.267,20.267-1.067,26.667,5.333c-1.067-9.6,4.267-19.2,13.867-23.467c11.733-5.333,24.533,0,29.867,10.667
		C118.934,354.134,86.934,391.467,86.934,391.467z"/>
	<path style="fill:#8AD7F8;" d="M0.534,347.734c6.4-6.4,8.533-14.933,5.333-23.467c-1.067-3.2-3.2-6.4-5.333-8.533V347.734z"/>
</g>
<g>
	<path style="fill:#FFD15C;" d="M20.801,364.8c-3.2-9.6-11.733-14.933-20.267-14.933v44.8c2.133,0,5.333-1.067,7.467-2.133
		C19.734,389.334,25.067,376.534,20.801,364.8z"/>
	<path style="fill:#FFD15C;" d="M24.001,506.667c-3.2-9.6-12.8-16-22.4-14.933c7.467-5.333,10.667-16,7.467-25.6
		c-2.134-4.267-5.334-8.534-8.534-11.734v58.667h24.533C25.067,510.934,25.067,508.8,24.001,506.667z"/>
	<path style="fill:#FFD15C;" d="M41.067,499.2c0,0-48-49.067-33.067-90.667c5.334-15.999,23.467-23.466,40.534-18.133
		c13.867,5.333,22.4,18.133,21.333,30.933c7.467-10.666,22.4-14.933,36.267-10.666c16,6.4,24.533,23.467,19.2,39.467
		C109.334,492.8,41.067,499.2,41.067,499.2z"/>
</g>
<path style="fill:#F3705A;" d="M235.201,513.067c1.067-4.267,2.133-9.6,1.067-14.933c-9.601-42.667-75.734-59.734-75.734-59.734
	s-44.8,35.2-45.867,73.6h120.533v1.067H235.201z"/>
<path style="fill:#8AD7F8;" d="M355.734,461.867c0,0,6.4-49.067,36.267-58.667c11.733-4.267,23.467,2.133,27.733,14.933
	c3.2,9.6,0,20.267-8.533,25.6c9.6,0,19.2,5.333,22.4,16c4.267,11.733-2.133,24.533-13.867,28.8
	C389.867,497.067,355.734,461.867,355.734,461.867z"/>
<path style="fill:#F3705A;" d="M335.467,462.934c0,0-49.067-2.133-61.867-30.933c-5.333-10.667,0-24.533,11.733-28.8
	c9.6-4.267,20.267-1.067,26.667,5.333c-1.067-9.6,4.267-19.2,13.867-23.467c11.733-5.333,24.533,0,29.867,10.667
	C367.467,425.6,335.467,462.934,335.467,462.934z"/>
<path style="fill:#FFD15C;" d="M186.134,438.4c0,0,5.333-49.067,34.133-59.733C232,374.4,243.734,380.8,248,392.534
	c3.2,9.6,0,20.267-7.467,25.6c9.601-1.067,19.201,5.333,22.401,14.933c4.267,11.733-1.067,24.533-12.8,28.8
	C221.334,472.534,186.134,438.4,186.134,438.4z"/>
<path style="fill:#F3705A;" d="M234.134,359.467c0,0-49.067,4.267-65.067-22.4c-6.4-10.667-2.133-23.467,8.533-29.867
	c8.533-5.333,20.267-4.267,26.667,2.133c-2.133-9.6,1.067-19.2,10.667-24.533c10.667-6.4,24.533-3.2,30.933,7.467
	C260.801,317.867,234.134,359.467,234.134,359.467z"/>
<path style="fill:#FFD15C;" d="M354.667,484.267c-13.867-5.333-28.8,0-36.267,10.667c1.067-12.8-7.467-26.667-21.333-30.933
	c-16-6.4-34.133,2.133-40.533,18.133c-4.267,10.667-3.2,21.333-1.067,32h119.467C374.934,500.267,367.467,488.534,354.667,484.267z"
	/>
<path style="fill:#8AD7F8;" d="M289.601,388.267c0,0-48-49.067-33.067-90.667c5.333-16,23.467-23.467,40.533-18.133
	c13.867,5.333,22.4,18.133,21.333,30.933c7.467-10.667,22.4-14.933,36.267-10.667c16,6.4,24.533,23.467,19.2,39.467
	C358.934,380.8,289.601,388.267,289.601,388.267z"/>
<path style="fill:#FFD15C;" d="M512.534,325.334c-3.2-2.133-5.333-4.267-9.6-5.333c-13.867-5.333-28.8,0-36.267,10.667
	c1.067-12.8-7.467-26.667-21.333-30.933c-16-6.4-34.133,2.133-40.533,18.133c-14.933,41.6,33.067,90.667,33.067,90.667
	s50.133-5.333,73.6-32v-51.2L512.534,325.334L512.534,325.334z"/>
<g>
	<path style="fill:#F3705A;" d="M452.801,513.067c-21.333-13.867-44.8-19.2-44.8-19.2s-9.6,7.467-20.267,19.2H452.801z"/>
	<path style="fill:#F3705A;" d="M512.534,413.867c-11.733-4.267-19.2-6.4-19.2-6.4s-54.4,42.667-44.8,85.333
		c2.133,8.533,7.467,16,16,20.267h29.867c9.6-5.333,16-14.933,17.067-24.533c1.067,1.067,1.067,2.133,2.133,3.2v-77.867H512.534z"/>
</g>
<g>
	<rect x="0.534" y="284.797" style="fill:#E8EAE9;" width="512" height="80"/>
	<rect x="0.534" y="439.467" style="fill:#E8EAE9;" width="512" height="73.6"/>
</g>
<path style="fill:#BEC0BF;" d="M512.534,280.534v14.933C501.867,310.4,485.867,320,468.801,323.2
	c-8.533,1.067-18.133,1.067-26.667,4.267c-3.2,1.067-6.4,3.2-8.533,4.267c-3.2,4.267-6.4,8.533-9.6,12.8
	c-5.333,10.667-9.6,21.333-17.067,30.933c-6.4,9.6-17.067,18.133-27.733,19.2c-9.6,1.067-19.2-3.2-27.733,2.133
	c-4.267,2.133-7.467,7.467-9.6,11.733c-4.267,8.533-8.533,16-9.6,25.6c-1.067,6.4,6.4,13.867,3.2,19.2
	c-5.333,7.467-13.867-11.733-12.8-20.267c1.067-8.533,5.333-17.067,6.4-25.6c0-2.133,1.067-5.333,0-7.467
	c-1.067-2.133-3.2-4.267-6.4-4.267c-4.267,0-6.4,5.333-6.4,9.6c-1.067,4.267-1.067,8.533-5.333,10.667
	c-4.267,2.133-9.6-2.133-11.733-7.467c-5.333-13.867-1.067-29.867-5.333-43.733c-3.2-7.467-7.467-13.867-12.8-19.2
	c-4.267-4.267-8.533-9.6-11.733-13.867c0,0,0,0-1.067,0c-21.333-11.733-46.933-18.133-69.333-8.533
	c-9.6,4.267-17.067,10.667-26.667,12.8c-8.533,2.133-18.133,5.333-26.667,6.4c-4.267,3.2-10.667,4.267-14.933,2.133
	c-4.267-2.133-6.4-7.467-7.467-11.733c-1.068-5.332,5.332-11.732,1.065-14.932c-5.333-3.2-9.6,7.467-13.867,11.733
	c-5.333,2.133-9.6,7.467-13.867,11.733c-3.2,3.2-7.467,7.467-7.467,12.8c0,5.333,3.2,11.733,0,16c-2.133,3.2-7.467,2.133-10.667,0
	c-3.2-2.133-5.333-5.333-8.533-8.533c-3.2-3.2-6.4-5.333-10.667-4.267c-5.333,1.067-7.467,7.467-8.533,12.8
	c-2.132,5.334-5.332,10.667-10.665,10.667c-3.2,0-5.333-2.133-6.4-5.333c-1.067-2.133-1.067-5.333-1.067-8.533
	c0-8.533,3.2-18.133,0-26.667c-2.133-6.4-8.533-10.667-12.8-14.933C9.067,314.667,0.534,284.8,0.534,284.8v-4.267
	c0-16,12.8-28.8,28.8-28.8h454.4C499.734,251.734,512.534,264.534,512.534,280.534z"/>
<g>
</g>
<g>
</g>
<g>
</g>
<g>
</g>
<g>
</g>
<g>
</g>
<g>
</g>
<g>
</g>
<g>
</g>
<g>
</g>
<g>
</g>
<g>
</g>
<g>
</g>
<g>
</g>
<g>
</g>
</svg>
