<?xml version="1.0" encoding="utf-8"?>
<!-- Generator: Adobe Illustrator 21.1.0, SVG Export Plug-In . SVG Version: 6.00 Build 0)  -->
<svg version="1.1" id="Capa_1" xmlns="http://www.w3.org/2000/svg" xmlns:xlink="http://www.w3.org/1999/xlink" x="0px" y="0px"
	 viewBox="0 0 512 512" style="enable-background:new 0 0 512 512;" xml:space="preserve">
<style type="text/css">
	.st0{fill:#CC6600;stroke:#000000;stroke-miterlimit:10;}
	.st1{fill:#FF6600;stroke:#000000;stroke-miterlimit:10;}
	.st2{fill:#FF9933;stroke:#000000;stroke-miterlimit:10;}
	.st3{fill:#9999FF;stroke:#000000;stroke-miterlimit:10;}
	.st4{fill:#0099CC;stroke:#000000;stroke-miterlimit:10;}
	.st5{fill:#66CC00;stroke:#000000;stroke-miterlimit:10;}
</style>
<path class="st0" d="M177.7,207.9c-3.5-4.7-6.7-9.2-9.7-13.6c-4.3-6.4-7.9-12.2-10.8-17.5l-16.5,39.4c11.4,11.7,26.2,32.9,32.1,46.6
	c2.2,5.1-0.2,11-5.2,13.1c-1.3,0.6-2.6,0.8-3.9,0.8c-3.9,0-7.6-2.3-9.2-6.1c-4-9.2-13.7-23.8-22.3-34.1l-10.8,25.8
	c33.8,58.8,46.8,109.3,38.8,150.2c-1.3,6.7-3.1,12.6-5.2,17.8l21.6-9c5.6-7.6,20.8-35.2,27.9-72.9
	C211.1,313,211.9,259.8,177.7,207.9z M175.1,302.1c-1.1,0.4-2.2,0.6-3.3,0.6c-4,0-7.8-2.5-9.3-6.4c-1.9-4.9,0.3-10.6,5.2-12.8
	c5-2.3,11,0,13.2,5c0.1,0.3,0.2,0.6,0.3,0.9C183.1,294.6,180.3,300.3,175.1,302.1z"/>
<path class="st1" d="M327.6,291c-2.8,1.5-5.6,3-8.3,4.6c-1.6,0.9-3.3,1.3-5,1.3c-3.5,0-6.8-1.8-8.7-5c-2.8-4.8-1.1-10.9,3.7-13.7
	c1.8-1,3.6-2.1,5.4-3.1c-11.3-13.2-24-27-37.5-40.5c-15.7-15.7-31.8-30.4-46.9-42.9c-1.2,1.3-2.5,2.6-3.7,3.8c-2,2-4.5,2.9-7.1,2.9
	s-5.1-1-7.1-2.9c-3.9-3.9-3.9-10.2,0-14.1c0.7-0.7,1.4-1.4,2.1-2.2c-3.3-2.5-6.5-4.8-9.6-7c-21-14.9-31.8-18.9-36.4-20
	c1.1,4.7,5.1,15.4,20,36.4c15.4,21.7,37.6,47.4,62.4,72.3c24.9,24.9,50.5,47,72.3,62.4c21,14.9,31.8,18.9,36.4,20
	c-1.1-4.7-5.1-15.4-20-36.4C336,301.9,332,296.5,327.6,291z"/>
<path class="st0" d="M300.2,331.4c-2.1,17.8-6.8,32.1-12.2,43.2l47.2-19.8c-5.3-2.9-11.1-6.5-17.5-10.8
	C312.1,340.2,306.3,336,300.2,331.4z"/>
<path class="st2" d="M81.5,357.4c22.6,43.5,21.1,76.6,15.2,97.4l26.4-11c3-2.7,13.7-13.8,17.8-36.8c4-23,1.7-62.1-29.4-121
	L81.5,357.4z"/>
<path class="st2" d="M222.2,260.2c8.6,35,6.5,67.3,1.9,91.9c-4.2,22-11.1,41.8-18,56.8l47.5-19.9c4.7-4.1,26.3-25.6,27.8-72.8
	c-14.5-12.2-29.6-26-44.5-41C231.8,270.2,226.9,265.2,222.2,260.2z"/>
<path class="st3" d="M198.5,75.6c5.5,0,10-4.5,10-10s-4.5-10-10-10c-5.5,0-10,4.5-10,10C188.5,71.1,193,75.6,198.5,75.6z"/>
<path class="st0" d="M28.7,483.3l41.7-17.5c2.2-3.5,6.9-12.1,9-25.1c2.8-17.7,0-37.6-8.3-58.4L28.7,483.3z"/>
<path class="st4" d="M390,40c5.5,0,10-4.5,10-10c0-5.5-4.5-10-10-10c-5.5,0-10,4.5-10,10C380,35.5,384.5,40,390,40z"/>
<path class="st5" d="M452.5,193.6c-5.5,0-10,4.5-10,10c0,5.5,4.5,10,10,10c5.5,0,10-4.5,10-10C462.5,198.1,458,193.6,452.5,193.6z"
	/>
<path d="M345.9,281.9c19.2-8.9,38.2-15.3,57-19.3c5.4-1.1,8.9-6.5,7.7-11.9c-1.1-5.4-6.4-8.9-11.9-7.7
	c-21.7,4.6-43.7,12.3-65.7,22.9c-12.3-14.7-26.4-30-41.6-45.2c-16.1-16.1-32.5-31-48-43.9c13.4-17,24.4-35.9,32.6-56.7
	c12.9-32.4,19.5-69.4,19.5-110c0-5.5-4.5-10-10-10c-5.5,0-10,4.5-10,10c0,62.6-16,114.4-47.7,154.3c-6-4.6-11.8-8.8-17.3-12.5
	c-29.6-20-47.3-24.7-57.2-15.2c-0.1,0.1-0.1,0.1-0.2,0.2c0,0,0,0,0,0c0,0,0,0,0,0c-2.5,2.5-4.1,5.6-4.7,9.3L0.8,498.1
	c-1.6,3.7-0.7,8.1,2.2,10.9C4.8,511,7.4,512,10,512c1.3,0,2.6-0.3,3.9-0.8c0,0,0,0,0,0l351.9-147.6c3.3-0.5,6.2-1.9,8.6-4.1
	c0.2-0.1,0.3-0.3,0.5-0.5c0.1-0.1,0.1-0.1,0.2-0.2c0,0,0,0,0,0c0.1-0.1,0.1-0.1,0.2-0.2c9.5-9.9,4.8-27.5-15.2-57.2
	C355.9,295.3,351.1,288.7,345.9,281.9z M79.3,440.8c-2.1,13-6.7,21.6-9,25.1l-41.7,17.5L71,382.4C79.3,403.1,82.2,423,79.3,440.8z
	 M140.9,406.9c-4,23-14.7,34.1-17.8,36.8l-26.4,11c5.9-20.9,7.4-54-15.2-97.4l30-71.5C142.6,344.9,144.9,383.9,140.9,406.9z
	 M176.5,421.3l-21.6,9c2.1-5.2,3.9-11.1,5.2-17.8c8-40.9-5.1-91.4-38.8-150.2l10.8-25.8c8.6,10.3,18.3,24.9,22.3,34.1
	c1.6,3.8,5.3,6.1,9.2,6.1c1.3,0,2.7-0.3,3.9-0.8c5.1-2.2,7.4-8.1,5.2-13.1c-5.9-13.6-20.7-34.9-32.1-46.6l16.5-39.4
	c2.9,5.3,6.5,11.1,10.8,17.5c3,4.4,6.2,8.9,9.7,13.6c34.2,51.9,33.4,105,26.7,140.5C197.3,386.1,182.1,413.7,176.5,421.3z
	 M253.6,389l-47.5,19.9c6.9-15,13.8-34.8,18-56.8c4.6-24.6,6.7-57-1.9-91.9c4.7,5,9.6,10,14.6,15c15,15,30.1,28.8,44.5,41
	C279.9,363.4,258.2,384.9,253.6,389z M288,374.6c5.4-11.1,10.1-25.3,12.2-43.2c6,4.6,11.9,8.8,17.5,12.6c6.4,4.3,12.2,7.9,17.5,10.8
	L288,374.6z M323.2,323.5c-21.7-15.4-47.4-37.6-72.3-62.4c-24.9-24.9-47-50.5-62.4-72.3c-14.9-21-18.9-31.8-20-36.4
	c4.6,1.1,15.4,5.1,36.4,20c3.1,2.2,6.3,4.6,9.6,7c-0.7,0.7-1.4,1.5-2.1,2.2c-3.9,3.9-3.9,10.2,0,14.1c2,2,4.5,2.9,7.1,2.9
	s5.1-1,7.1-2.9c1.3-1.3,2.5-2.5,3.7-3.8c15.2,12.5,31.2,27.2,46.9,42.9c13.5,13.5,26.2,27.3,37.5,40.5c-1.8,1-3.6,2-5.4,3.1
	c-4.8,2.8-6.4,8.9-3.7,13.7c1.9,3.2,5.2,5,8.7,5c1.7,0,3.4-0.4,5-1.3c2.8-1.6,5.6-3.1,8.3-4.6c4.3,5.5,8.4,10.9,12,16
	c14.9,21,18.9,31.8,20,36.4C355,342.4,344.2,338.4,323.2,323.5z"/>
<path d="M180.9,288.5c-2.3-5-8.2-7.3-13.2-5c-4.9,2.2-7.1,7.8-5.2,12.8c1.5,4,5.3,6.4,9.3,6.4c1.1,0,2.2-0.2,3.3-0.6
	c5.2-1.8,8-7.5,6.1-12.7C181.1,289.1,181,288.8,180.9,288.5z"/>
<path d="M373.4,154.7c2,2,4.5,2.9,7.1,2.9c2.6,0,5.1-1,7.1-2.9c22.3-22.3,58.5-32.6,85-34.7c5.5-0.4,9.6-5.3,9.2-10.8
	c-0.4-5.5-5.3-9.6-10.8-9.2c-30,2.4-71.3,14.3-97.5,40.5C369.5,144.5,369.5,150.8,373.4,154.7z"/>
<path d="M504.6,102c-0.3-0.1-0.6-0.2-0.9-0.2c-5.4-1.3-10.8,1.9-12.1,7.3c-1.3,5.4,1.9,10.8,7.3,12.1l0.5,0.1
	c0.9,0.2,1.7,0.3,2.6,0.3c4.4,0,8.5-2.9,9.7-7.4C513.1,108.9,509.9,103.4,504.6,102z"/>
<path d="M73.5,83.6h10v10c0,5.5,4.5,10,10,10c5.5,0,10-4.5,10-10v-10h10c5.5,0,10-4.5,10-10c0-5.5-4.5-10-10-10h-10v-10
	c0-5.5-4.5-10-10-10c-5.5,0-10,4.5-10,10v10h-10c-5.5,0-10,4.5-10,10C63.5,79.1,68,83.6,73.5,83.6z"/>
<path d="M307.5,180.6h10v10c0,5.5,4.5,10,10,10c5.5,0,10-4.5,10-10v-10h10c5.5,0,10-4.5,10-10c0-5.5-4.5-10-10-10h-10v-10
	c0-5.5-4.5-10-10-10c-5.5,0-10,4.5-10,10v10h-10c-5.5,0-10,4.5-10,10C297.5,176.1,302,180.6,307.5,180.6z"/>
<path d="M446.5,417.6h-10v-10c0-5.5-4.5-10-10-10c-5.5,0-10,4.5-10,10v10h-10c-5.5,0-10,4.5-10,10c0,5.5,4.5,10,10,10h10v10
	c0,5.5,4.5,10,10,10c5.5,0,10-4.5,10-10v-10h10c5.5,0,10-4.5,10-10C456.5,422.1,452,417.6,446.5,417.6z"/>
<path d="M390,60c16.5,0,30-13.5,30-30S406.5,0,390,0s-30,13.5-30,30S373.4,60,390,60z M390,20c5.5,0,10,4.5,10,10
	c0,5.5-4.5,10-10,10c-5.5,0-10-4.5-10-10C380,24.5,384.5,20,390,20z"/>
<path d="M452.5,173.6c-16.5,0-30,13.5-30,30c0,16.5,13.5,30,30,30s30-13.5,30-30C482.5,187.1,469,173.6,452.5,173.6z M452.5,213.6
	c-5.5,0-10-4.5-10-10c0-5.5,4.5-10,10-10c5.5,0,10,4.5,10,10C462.5,209.1,458,213.6,452.5,213.6z"/>
<path d="M198.5,95.6c16.5,0,30-13.5,30-30s-13.5-30-30-30c-16.5,0-30,13.5-30,30S182,95.6,198.5,95.6z M198.5,55.6
	c5.5,0,10,4.5,10,10s-4.5,10-10,10c-5.5,0-10-4.5-10-10C188.5,60.1,193,55.6,198.5,55.6z"/>
<path d="M449.2,294.1c0-5.5-4.5-10-10-10s-10,4.5-10,10s4.5,10,10,10S449.2,299.6,449.2,294.1z"/>
<path d="M335.2,95.1c5.5,0,10-4.5,10-10s-4.5-10-10-10s-10,4.5-10,10C325.2,90.6,329.7,95.1,335.2,95.1z"/>
<path d="M469.2,359.1c-5.5,0-10,4.5-10,10s4.5,10,10,10c5.5,0,10-4.5,10-10S474.7,359.1,469.2,359.1z"/>
<path d="M139.2,30c5.5,0,10-4.5,10-10s-4.5-10-10-10s-10,4.5-10,10S133.7,30,139.2,30z"/>
</svg>
