<?xml version="1.0" encoding="utf-8"?>
<!-- Generator: Adobe Illustrator 18.0.0, SVG Export Plug-In . SVG Version: 6.00 Build 0)  -->
<!DOCTYPE svg PUBLIC "-//W3C//DTD SVG 1.1//EN" "http://www.w3.org/Graphics/SVG/1.1/DTD/svg11.dtd">
<svg version="1.1" id="Layer_1" xmlns="http://www.w3.org/2000/svg" xmlns:xlink="http://www.w3.org/1999/xlink" x="0px" y="0px"
	 viewBox="0 0 61.5 62" enable-background="new 0 0 61.5 62" xml:space="preserve">
<g>
	<g>
		<defs>
			<rect id="SVGID_1_" x="1.8" y="3" width="59.1" height="58.9"/>
		</defs>
		<clipPath id="SVGID_2_">
			<use xlink:href="#SVGID_1_"  overflow="visible"/>
		</clipPath>
		<rect x="56.9" y="16.8" clip-path="url(#SVGID_2_)" fill="#B6ACB5" width="0" height="0"/>
		<path clip-path="url(#SVGID_2_)" fill="#E3E3E3" d="M17.8,33.5c-0.5-0.2-1.1,0.1-1.2,0.6l-8,21.1L2,56.8c-0.2,0.1-0.3,0.4,0,0.5
			l11.8,4.5c0.2,0.1,0.4-0.2,0.3-0.4l-3.8-5.6l8-21.1C18.5,34.2,18.3,33.7,17.8,33.5L17.8,33.5z M17.8,33.5"/>
	</g>
	<path fill="#D3D2D1" d="M13.9,61.8c0.2,0.1,0.4-0.2,0.3-0.4l-3.8-5.6l8-21.1c0.2-0.5-0.1-1.1-0.6-1.2L7.9,59.5L13.9,61.8z
		 M13.9,61.8"/>
	<path fill="#E3E3E3" d="M29.5,23.4l-13.9-5.2c-0.6-0.2-1.2,0-1.4,0.6L9.1,29.4c-2.5,5.1,0,11.2,5.3,13.2c5.3,2,11.2-1,12.7-6.4
		l3.2-11.4C30.4,24.2,30.1,23.6,29.5,23.4L29.5,23.4z M29.5,23.4"/>
	<path fill="#D3D2D1" d="M29.5,23.4l-5.5-2.1L20.3,35c-1.1,3.9-4.7,6.4-8.6,6.2c0.8,0.6,1.6,1.1,2.6,1.5c5.3,2,11.2-1,12.7-6.4
		l3.2-11.4C30.4,24.2,30.1,23.6,29.5,23.4L29.5,23.4z M29.5,23.4"/>
	<path fill="#F48D9D" d="M28.9,29.5L8.4,31.4c-1.1,4.6,1.3,9.5,6,11.3c5.3,2,11.2-1,12.7-6.4L28.9,29.5z M28.9,29.5"/>
	<g>
		<defs>
			<rect id="SVGID_3_" x="1.8" y="3" width="59.1" height="58.9"/>
		</defs>
		<clipPath id="SVGID_4_">
			<use xlink:href="#SVGID_3_"  overflow="visible"/>
		</clipPath>
		<path clip-path="url(#SVGID_4_)" fill="#F37B8E" d="M28.9,29.5l-7.3,0.7L20.3,35c-1.1,3.9-4.7,6.4-8.6,6.2c0,0,0,0,0,0
			c0.2,0.2,0.5,0.4,0.8,0.6c0,0,0.1,0,0.1,0.1c0.1,0,0.1,0.1,0.2,0.1c0.1,0,0.1,0.1,0.2,0.1c0.1,0,0.1,0.1,0.2,0.1
			c0.1,0,0.1,0.1,0.2,0.1c0.1,0,0.1,0.1,0.2,0.1c0.1,0,0.2,0.1,0.2,0.1c0,0,0.1,0,0.1,0.1c0.1,0.1,0.3,0.1,0.4,0.2
			c0.2,0.1,0.4,0.2,0.6,0.2c0.2,0.1,0.5,0.1,0.7,0.2c0.2,0,0.5,0.1,0.7,0.1c0.3,0,0.6,0.1,0.9,0.1c0,0,0,0,0,0
			c3.3,0.1,6.5-1.5,8.4-4.2c0.1-0.1,0.2-0.3,0.3-0.4c0.2-0.3,0.3-0.6,0.5-0.9c0.2-0.5,0.4-1,0.5-1.5L28.9,29.5z M28.9,29.5"/>
		<path clip-path="url(#SVGID_4_)" fill="#E3E3E3" d="M60.7,56.8l-6.5-1.7l-8-21.1c-0.2-0.5-0.7-0.7-1.2-0.6
			c-0.5,0.2-0.7,0.7-0.6,1.2l8,21.1l-3.8,5.6c-0.1,0.2,0.1,0.5,0.3,0.4l11.8-4.5C60.9,57.2,60.9,56.9,60.7,56.8L60.7,56.8z
			 M60.7,56.8"/>
		<path clip-path="url(#SVGID_4_)" fill="#D3D2D1" d="M60.7,56.8l-6.5-1.7l-8-21.1c-0.2-0.5-0.7-0.7-1.2-0.6l9.8,26.1l6-2.3
			C60.9,57.2,60.9,56.9,60.7,56.8L60.7,56.8z M60.7,56.8"/>
	</g>
	<path fill="#E3E3E3" d="M33.2,23.4L47,18.2c0.6-0.2,1.2,0,1.4,0.6l5.2,10.7c2.5,5.1,0,11.2-5.3,13.2c-5.3,2-11.2-1-12.7-6.4
		l-3.2-11.4C32.3,24.2,32.6,23.6,33.2,23.4L33.2,23.4z M33.2,23.4"/>
	<path fill="#D3D2D1" d="M53.6,29.4l-5.2-10.7c-0.3-0.5-0.9-0.8-1.4-0.6l-5.3,2L47,31.1c2.1,4.4,0.6,9.5-3.2,12.1
		c1.5,0.2,3,0,4.5-0.6C53.7,40.6,56.1,34.5,53.6,29.4L53.6,29.4z M53.6,29.4"/>
	<path fill="#F48D9D" d="M33.8,29.5l20.5,1.9c1.1,4.6-1.3,9.5-6,11.3c-5.3,2-11.2-1-12.7-6.4L33.8,29.5z M33.8,29.5"/>
	<path fill="#F37B8E" d="M49,42.4c0.1,0,0.2-0.1,0.3-0.1c0.1,0,0.1-0.1,0.2-0.1c0.1,0,0.2-0.1,0.3-0.1c0.1,0,0.1-0.1,0.2-0.1
		c0.1,0,0.2-0.1,0.2-0.2c0.1,0,0.1-0.1,0.2-0.1c0.1-0.1,0.2-0.1,0.2-0.2c0.1,0,0.1-0.1,0.1-0.1c0.1-0.1,0.2-0.1,0.3-0.2
		c0,0,0.1-0.1,0.1-0.1c0.1-0.1,0.2-0.2,0.4-0.3c0,0,0,0,0,0c0.1-0.1,0.2-0.2,0.3-0.3c0,0,0.1-0.1,0.1-0.1c0.1-0.1,0.1-0.1,0.2-0.2
		c0,0,0.1-0.1,0.1-0.1c0.1-0.1,0.1-0.1,0.2-0.2c0,0,0.1-0.1,0.1-0.1c0.1-0.1,0.1-0.1,0.2-0.2c0-0.1,0.1-0.1,0.1-0.2
		c0.1-0.1,0.1-0.2,0.2-0.2c0,0,0.1-0.1,0.1-0.2c0.1-0.1,0.1-0.2,0.2-0.3c0,0,0.1-0.1,0.1-0.1c0.1-0.1,0.1-0.3,0.2-0.4c0,0,0,0,0,0
		c0.1-0.1,0.1-0.3,0.2-0.4c0,0,0-0.1,0.1-0.1c0-0.1,0.1-0.2,0.1-0.3c0-0.1,0-0.1,0.1-0.2c0-0.1,0.1-0.2,0.1-0.3c0-0.1,0-0.1,0.1-0.2
		c0-0.1,0.1-0.2,0.1-0.3c0-0.1,0-0.1,0.1-0.2c0-0.1,0-0.2,0.1-0.3c0-0.1,0-0.1,0-0.2c0-0.1,0-0.2,0.1-0.3c0-0.1,0-0.1,0-0.2
		c0-0.1,0-0.3,0.1-0.4c0,0,0,0,0,0c0-0.1,0-0.3,0-0.5c0-0.1,0-0.1,0-0.2c0-0.1,0-0.2,0-0.3c0-0.1,0-0.1,0-0.2c0-0.1,0-0.2,0-0.3
		c0-0.1,0-0.1,0-0.2c0-0.1,0-0.2,0-0.3c0-0.1,0-0.1,0-0.2c0-0.1,0-0.2,0-0.3c0-0.1,0-0.1,0-0.2c0-0.1,0-0.2,0-0.3c0-0.1,0-0.1,0-0.2
		c0-0.1-0.1-0.3-0.1-0.4c0,0,0,0,0,0l-7.5-0.7l0.2,0.4c2.1,4.4,0.6,9.5-3.2,12.1c0,0,0.1,0,0.1,0c0.1,0,0.2,0,0.3,0
		c0.1,0,0.1,0,0.2,0c0.1,0,0.2,0,0.3,0c0,0,0.1,0,0.1,0c0.1,0,0.3,0,0.4,0c0,0,0.1,0,0.1,0c0.1,0,0.3,0,0.4,0c0,0,0.1,0,0.1,0
		c0.1,0,0.3,0,0.4,0c0,0,0,0,0.1,0c0.1,0,0.3,0,0.4-0.1c0,0,0.1,0,0.1,0c0.1,0,0.3-0.1,0.4-0.1c0,0,0.1,0,0.1,0
		c0.1,0,0.3-0.1,0.4-0.1c0,0,0,0,0.1,0c0.2,0,0.3-0.1,0.5-0.2c0.2-0.1,0.3-0.1,0.5-0.2C48.9,42.4,48.9,42.4,49,42.4L49,42.4z
		 M49,42.4"/>
	<path fill="#D7D4D7" d="M8.3,11.8H7.3v-1.1c0-0.5-0.4-1-1-1c-0.5,0-1,0.4-1,1v1.1H4.3c-0.5,0-1,0.4-1,1c0,0.5,0.4,1,1,1h1.1v1.1
		c0,0.5,0.4,1,1,1c0.5,0,1-0.4,1-1v-1.1h1.1c0.5,0,1-0.4,1-1C9.3,12.3,8.9,11.8,8.3,11.8L8.3,11.8z M8.3,11.8"/>
	<path fill="#D7D4D7" d="M59.4,11.8h-1.1v-1.1c0-0.5-0.4-1-1-1c-0.5,0-1,0.4-1,1v1.1h-1.1c-0.5,0-1,0.4-1,1c0,0.5,0.4,1,1,1h1.1v1.1
		c0,0.5,0.4,1,1,1c0.5,0,1-0.4,1-1v-1.1h1.1c0.5,0,1-0.4,1-1C60.3,12.3,59.9,11.8,59.4,11.8L59.4,11.8z M59.4,11.8"/>
	<path fill="#D7D4D7" d="M33.8,5.1h-1.1V4c0-0.5-0.4-1-1-1c-0.5,0-1,0.4-1,1v1.1h-1.1c-0.5,0-1,0.4-1,1c0,0.5,0.4,1,1,1h1.1v1.1
		c0,0.5,0.4,1,1,1c0.5,0,1-0.4,1-1V7h1.1c0.5,0,1-0.4,1-1C34.8,5.5,34.4,5.1,33.8,5.1L33.8,5.1z M33.8,5.1"/>
	<path fill="#D4CDD1" d="M7.3,14.8v-1.1h1.1c0.5,0,1-0.4,1-1c0-0.5-0.4-1-1-1H7.3v-1.1c0-0.5-0.4-1-1-1v6
		C6.8,15.8,7.3,15.4,7.3,14.8L7.3,14.8z M7.3,14.8"/>
	<path fill="#D4CDD1" d="M32.8,8.1V7h1.1c0.5,0,1-0.4,1-1c0-0.5-0.4-1-1-1h-1.1V4c0-0.5-0.4-1-1-1v6C32.3,9.1,32.8,8.6,32.8,8.1
		L32.8,8.1z M32.8,8.1"/>
	<path fill="#D4CDD1" d="M59.4,11.8h-1.1v-1.1c0-0.5-0.4-1-1-1c0,0,0,0-0.1,0v6c0,0,0,0,0.1,0c0.5,0,1-0.4,1-1v-1.1h1.1
		c0.5,0,1-0.4,1-1C60.3,12.3,59.9,11.8,59.4,11.8L59.4,11.8z M59.4,11.8"/>
</g>
</svg>
