<svg version="1.1" xmlns="http://www.w3.org/2000/svg" xmlns:xlink="http://www.w3.org/1999/xlink" x="0px" y="0px"  viewBox="0 0 48 48" enable-background="new 0 0 48 48" xml:space="preserve">
<path fill="#DD9F05" d="M35.371,12.629l2.304-6.547l0.161-0.16C37.931,5.827,38.792,5,40.01,5c0.523,0,1.307,0.16,2.068,0.922&#10;&#9;c1.557,1.557,0.853,3.39,0,4.242l-0.16,0.161L35.371,12.629z M39.394,7.225l-0.751,2.133l2.146-0.756&#10;&#9;c0.241-0.324,0.364-0.776-0.125-1.266C40.328,7,40.088,7,40.01,7C39.778,7,39.547,7.12,39.394,7.225z"/>
<g>
	<g>
		<path fill="#FFC107" d="M38.47,10.65c1.17,1.17,1.17,3.07,0,4.24l-0.84,0.84c0,0-1.63,0.27-3.63-1.73s-1.85-4.1-1.85-4.1&#10;&#9;&#9;&#9;l0.659-0.66c1.171-1.17,3.07-1.18,4.25,0L38.47,10.65z"/>
	</g>
	<g>
	</g>
</g>
<path fill="#FF3D00" d="M5,24.5C5,14.832,12.834,7,22.5,7S40,14.832,40,24.5C40,34.165,32.166,42,22.5,42S5,34.165,5,24.5z"/>
<g>
	<path fill="#DD2C00" d="M36.078,26.072l-0.425-8.028l-6.299,5.091l-6.974-1.385l2.051,7.108l-4.059,6.963l7.529-0.413l3.44,4.176&#10;&#9;&#9;c0.814-0.479,1.597-1.008,2.32-1.608l1.439-4.429l3.198-1.563c0.516-1.086,0.922-2.229,1.206-3.422L36.078,26.072z"/>
	<path fill="#DD2C00" d="M15.049,26.134l-5.53-0.659l-3.855-5.7C5.242,21.28,5,22.86,5,24.5c0,5.244,2.318,9.937,5.972,13.145&#10;&#9;&#9;c0,0,0,0,0,0l3.599,1.469l-2.197-7.577L15.049,26.134z"/>
	<path fill="#DD2C00" d="M12.574,10.094L12.574,10.094c-0.001,0-0.001,0.001-0.003,0.002c0,0,0,0,0,0l0.048,0.096l-2.922,5.909&#10;&#9;&#9;l6.532-1.727l3.929,2.766l1.218-5.054l5.494-3.63l-3.752-1.353l-0.037-0.075C22.886,7.023,22.696,7,22.5,7&#10;&#9;&#9;C18.812,7,15.395,8.146,12.574,10.094z"/>
</g>
<g>
	<polygon fill="#FFF8E1" points="28.803,33.356 31.856,37.063 33.463,32.123 37.971,29.919 34.132,27.131 33.863,22.063 &#10;&#9;&#9;29.884,25.279 25.213,24.352 26.591,29.126 23.971,33.621 &#9;"/>
	<path fill="#FFF8E1" d="M8.374,27.352l-2.471-3.652l-0.771,2.87c0.334,2.823,1.328,5.444,2.842,7.692l3.524,1.438l-1.263-4.354&#10;&#9;&#9;L12,27.784L8.374,27.352z"/>
	<path fill="#FFF8E1" d="M14.853,10.187l-1.413,2.857l3.179-0.84l2.284,1.607l0.713-2.959l2.824-1.866l-2.74-0.987l-0.145-0.732&#10;&#9;&#9;c-1.874,0.318-3.65,0.921-5.271,1.784L14.853,10.187z"/>
</g>
</svg>