<?xml version="1.0" encoding="utf-8"?>
<!-- Generator: Adobe Illustrator 18.0.0, SVG Export Plug-In . SVG Version: 6.00 Build 0)  -->
<!DOCTYPE svg PUBLIC "-//W3C//DTD SVG 1.1//EN" "http://www.w3.org/Graphics/SVG/1.1/DTD/svg11.dtd">
<svg version="1.1" id="Layer_1" xmlns="http://www.w3.org/2000/svg" xmlns:xlink="http://www.w3.org/1999/xlink" x="0px" y="0px"
	 viewBox="0 0 248.5 335.1" enable-background="new 0 0 248.5 335.1" xml:space="preserve">
<g>
	<g>
		<g>
			<g>
				<g>
					<path fill="#9BB281" d="M126.1,88.5c0,0-10.1-4.9-16.1-4.6c0,0,5.1,8,6.6,12.1c1.2,3.5,4,11.1,7.9,11.4c3.9,0.3,8-7.1,9.8-10.4
						c2.1-3.8,8.2-10.1,8.2-10.1C136.6,85.6,126.1,88.5,126.1,88.5z"/>
					<path fill="#9BB281" d="M134.6,86.8c-3.1,6.8-9.8,12-17.6,9.1c-0.2-0.1-0.4-0.2-0.6-0.2c0,0.1,0.1,0.2,0.1,0.3
						c1.2,3.5,4,11.1,7.9,11.4c3.9,0.3,8-7.1,9.8-10.4c2.1-3.8,8.2-10.1,8.2-10.1C140.3,86.4,137.4,86.5,134.6,86.8z"/>
					<path fill="#C4C6C8" d="M137.8,86.6c-0.2,3.5-2.2,7.3-4.4,9.9c-3.1,3.7-8.5,7.9-13.7,5.3c-0.4-0.2-0.8-0.4-1.1-0.6
						c1.4,3,3.4,6,5.9,6.2c3.9,0.3,8-7.1,9.8-10.4c2.1-3.8,8.2-10.1,8.2-10.1C141.1,86.6,139.5,86.5,137.8,86.6z"/>
				</g>
			</g>
			<g>
				<path fill="#FBC0A7" d="M163,53.7c-2.2-12.3-13.2-37.6-13.2-37.6l-17.5-1.5l0,0l-17.4-1.5c0,0-15.2,23-19.4,34.8
					c-4,11.2,11.4,37,30.4,41.3v0c0,0,0,0,0,0c0,0,0,0,0,0v0C145.4,88.3,165,65.4,163,53.7z"/>
				<path fill="#FBC0A7" d="M163,53.7c-2.2-12.3-13.2-37.6-13.2-37.6l-17.5-1.5l0,0l-17.4-1.5c0,0-15.2,23-19.4,34.8
					c-4,11.2,11.4,37,30.4,41.3v0c0,0,0,0,0,0c0,0,0,0,0,0v0C145.4,88.3,165,65.4,163,53.7z"/>
				<path fill="#FCD6D5" d="M99.6,49.2c5.1-11.1,19.9-30.9,23.3-35.4l-7.9-0.7c0,0-15.2,23-19.5,34.8c-1.8,4.9,0.3,12.8,4.7,20.4
					C97.9,60.8,97.5,53.7,99.6,49.2z"/>
				<path fill="#FCD9D1" d="M163,53.7c-1.8-10.4-10-30.1-12.5-35.9c-5.1,4.5-12.5,10.4-19.7,12.8c-12.4,4.1-30.2,0.5-24,26.5
					c2.6,10.8,5.4,20.2,9.6,28.2c3,1.8,6.1,3.2,9.4,3.9v0c0,0,0,0,0,0c0,0,0,0,0,0v0C145.4,88.3,165,65.4,163,53.7z"/>
				<path fill="#FDD0B6" d="M163,53.7c-1.6-9.3-8.3-25.9-11.5-33.5c-4,3.8-12.1,11.2-19.9,13.8c-10.6,3.5-25.9,0.4-20.6,22.7
					c3.2,13.1,6.7,23.9,13.5,32.1c0.5,0.1,1,0.3,1.4,0.4v0c0,0,0,0,0,0c0,0,0,0,0,0v0C145.5,88.3,165.1,65.4,163,53.7z"/>
				<path opacity="0.34" fill="#FDD0B6" d="M163,53.7c-1.6-9.3-8.3-25.9-11.5-33.5c-0.7,0.7-1.6,1.5-2.6,2.4c1.7,3,2.6,6.4,2.3,10.1
					c-0.6,6.4-1.9,12.8-3.8,18.9c-2.3,7.2-5.7,14.3-11.4,19.4c-4.6,4.1-10.4,6.3-15.7,9.2c-0.4,0.2-0.7,0.4-1.1,0.6
					c1.5,2.9,3.2,5.6,5.3,8c0.5,0.1,1,0.3,1.4,0.4v0c0,0,0,0,0,0c0,0,0,0,0,0v0C145.5,88.3,165.1,65.4,163,53.7z"/>
				<path opacity="0.34" fill="#FDD0B6" d="M163,53.7c-1.6-9.3-8.3-25.9-11.5-33.5c-0.3,0.3-0.7,0.7-1.1,1.1
					c4.7,7.5,6.1,16.3,5.6,25.2c-0.3,4.3-1.2,8.5-2.2,12.6c-1.4,5.5-4.5,9.7-8.3,13.8c-4.9,5.3-12.1,8.2-18.4,11.4
					c-1.5,0.7-2.9,1.5-4.4,2.1c0.6,0.8,1.2,1.6,1.8,2.4c0.5,0.1,1,0.3,1.4,0.4v0c0,0,0,0,0,0c0,0,0,0,0,0v0
					C145.5,88.3,165.1,65.4,163,53.7z"/>
				<path fill="#FCD6D5" d="M145.8,30.1c-3.3,3.2-14.9,8.2-21.8,9.6c-6.9,1.4-12.5,2.7-11.2,8.8c0.6,3.3,5.3,4.3,9.9,2.4
					c9.5-3.8,23.1-13.6,26.2-18C151.7,29.1,149.5,26.4,145.8,30.1z"/>
				<g>
					<path fill="#FBC0A7" d="M150,16.5c-0.3,3.4-8.5,5.5-18.3,4.6c-9.8-0.8-17.5-4.3-17.2-7.7c0.3-3.4,8.5-5.5,18.3-4.6
						C142.6,9.6,150.3,13.1,150,16.5z"/>
					<path fill="#FCD9D1" d="M144.4,11.3c-3.5,2.9-7.7,5.1-12.6,5.8c-5.2,0.7-10.6,0.2-15.5-1.6c-0.5-0.2-0.9-0.3-1.3-0.5
						c1.7,2.8,8.5,5.4,16.8,6.2c9.8,0.8,18-1.2,18.3-4.6C150.2,14.6,148,12.8,144.4,11.3z"/>
					<path fill="#FCD9D1" d="M148.3,13.5c-3.5,2.9-8.1,4.9-12.6,5.1c-5.1,0.2-8,0-13.1-1.3c-2.9-0.8-5.3-1.9-8-3.3
						c0,0-0.1,0-0.1-0.1c0.5,3.2,7.9,6.4,17.2,7.2c9.8,0.8,18-1.2,18.3-4.6C150.1,15.5,149.5,14.5,148.3,13.5z"/>
				</g>
			</g>
			<g>
				<g>
					<g>
						<path fill="#9BB281" d="M125.6,89.2c0,0,10.8-5.4,15.2-11.5c2.4-3.5,2.3-9.1,2.3-9.1s-2,4.3-5.5,6.9
							C134,78.1,122.1,84.6,125.6,89.2z"/>
						<path fill="#9BB281" d="M141.7,70.9c-0.3,1.9-0.8,4.2-2.1,6c-3.7,5.3-12.2,10-14.6,11.2c0.1,0.4,0.3,0.7,0.5,1.1
							c0,0,10.8-5.4,15.2-11.5c2.4-3.5,2.3-9.1,2.3-9.1S142.6,69.6,141.7,70.9z"/>
						<path fill="#FCD6D5" d="M138.2,76.2c2.3-1.7,4-4.2,4.8-5.7c0.1-1.2,0.1-2,0.1-2s-2,4.3-5.5,6.9c-3.5,2.6-15.5,9.1-12,13.7
							c0,0,0.1,0,0.2-0.1C124,84.6,134.8,78.7,138.2,76.2z"/>
					</g>
					<g>
						<path fill="#9BB281" d="M125.4,89.1c0,0,7.1,5.3,15.8-1.1c8.8-6.5,14-11.9,19.1-21.7c0,0-2.1,2.2-6.6,5.1
							c-4.6,2.8-8,6.4-11.7,8.6C138.2,82,130.9,83.7,125.4,89.1z"/>
						<path fill="#FCD6D5" d="M141.8,81.1c3.7-2.2,7.2-5.8,11.7-8.6c2.5-1.5,4.2-2.9,5.3-3.8c0.5-0.8,0.9-1.6,1.4-2.5
							c0,0-2.1,2.3-6.6,5.1c-4.6,2.8-8,6.4-11.7,8.6c-3.7,2.2-11,3.9-16.6,9.2c0,0,0.3,0.2,0.8,0.5
							C131.5,84.8,138.3,83.2,141.8,81.1z"/>
						<path fill="#9BB281" d="M158,68.3c-4.5,7.6-9.5,12.5-17.1,18.1c-6.6,4.8-12.2,3.1-14.6,1.9c-0.3,0.3-0.6,0.5-0.9,0.8
							c0,0,7.1,5.3,15.8-1.2c8.8-6.5,14-11.9,19.1-21.7C160.4,66.2,159.6,67,158,68.3z"/>
					</g>
				</g>
				<g>
					<g>
						<path fill="#9BB281" d="M126.3,89.3c0,0-9.8-7.1-13-13.9c-1.8-3.8-0.7-9.4-0.7-9.4s1.2,4.6,4.2,7.8
							C119.9,76.9,130.5,85.3,126.3,89.3z"/>
						<path fill="#9BB281" d="M113.5,68.5c-0.1,1.9,0.1,4.3,1,6.3c2.8,5.8,10.3,11.9,12.4,13.5c-0.2,0.3-0.4,0.7-0.7,1
							c0,0-9.8-7.1-13-13.9c-1.8-3.8-0.7-9.4-0.7-9.4S112.9,67,113.5,68.5z"/>
						<path fill="#FCD6D5" d="M116.1,74.3c-2-2.1-3.2-4.8-3.8-6.4c0.1-1.2,0.3-2,0.3-2s1.2,4.6,4.2,7.8c3,3.2,13.7,11.6,9.4,15.5
							c0,0,0,0-0.1-0.1C128.6,85,119,77.3,116.1,74.3z"/>
					</g>
					<g>
						<path fill="#9BB281" d="M126.5,89.2c0,0-7.9,4-15.4-3.8c-7.5-7.9-11.8-14.1-15.1-24.7c0,0,1.7,2.6,5.7,6.1
							c4,3.5,6.8,7.7,10.1,10.5C115.1,80,122,83,126.5,89.2z"/>
						<path fill="#FCD6D5" d="M111.7,78.5c-3.3-2.8-6.1-6.9-10.1-10.5c-2.2-1.9-3.6-3.6-4.6-4.6c-0.3-0.9-0.6-1.8-0.9-2.7
							c0,0,1.7,2.6,5.7,6.1c4,3.5,6.8,7.7,10.1,10.5c3.3,2.8,10.2,5.7,14.7,11.9c0,0-0.3,0.2-0.9,0.4
							C121.2,83.9,114.8,81.2,111.7,78.5z"/>
						<path fill="#9BB281" d="M97.9,63.1c3.1,8.3,7.2,13.9,13.8,20.7c5.6,5.9,11.5,5.1,14,4.3c0.2,0.3,0.5,0.6,0.7,0.9
							c0,0-7.9,4-15.4-3.8c-7.5-7.9-11.8-14.1-15.1-24.7C95.9,60.6,96.5,61.6,97.9,63.1z"/>
					</g>
				</g>
			</g>
		</g>
		<g>
			<path fill="#FBC0A7" d="M200.7,88.5c0.7-12.5-4.1-39.6-4.1-39.6l-16.6-5.5l0,0L163.3,38c0,0-20.1,18.8-27,29.3
				c-6.5,9.9,2.5,38.7,20.1,47.2v0c0,0,0,0,0,0c0,0,0,0,0,0l0,0C175.6,118.1,200,100.4,200.7,88.5z"/>
			<path fill="#FBC0A7" d="M200.7,88.5c0.7-12.5-4.1-39.6-4.1-39.6l-16.6-5.5l0,0L163.3,38c0,0-20.1,18.8-27,29.3
				c-6.5,9.9,2.5,38.7,20.1,47.2v0c0,0,0,0,0,0c0,0,0,0,0,0l0,0C175.6,118.1,200,100.4,200.7,88.5z"/>
			<path fill="#FCD6D5" d="M140,69.5c7.5-9.6,26.5-25.5,30.9-29.1l-7.6-2.5c0,0-20.1,18.9-27,29.3c-2.9,4.4-2.7,12.5-0.1,20.9
				C135.7,80.4,137,73.4,140,69.5z"/>
			<path fill="#FCD9D1" d="M200.7,88.5c0.6-10.6-2.8-31.6-3.8-37.8c-6,3.2-14.6,7.3-22.1,7.9c-13,1.1-29.5-6.5-29.4,20.2
				c0,11.1,0.6,20.9,2.9,29.6c2.5,2.5,5.2,4.5,8.3,6v0c0,0,0,0,0,0c0,0,0,0,0,0l0,0C175.6,118.1,200,100.4,200.7,88.5z"/>
			<path fill="#FDD0B6" d="M200.7,88.6c0.6-9.4-2.1-27.1-3.4-35.3c-4.8,2.8-14.4,8.1-22.6,8.8c-11.2,1-25.3-5.6-25.3,17.4
				c0,13.5,1,24.8,5.7,34.3c0.4,0.2,0.9,0.5,1.3,0.7l0,0c0,0,0,0,0,0c0,0,0,0,0,0v0C175.6,118.1,200,100.4,200.7,88.6z"/>
			<path opacity="0.34" fill="#FDD0B6" d="M200.7,88.6c0.6-9.4-2.1-27.1-3.4-35.3c-0.9,0.5-1.9,1.1-3.1,1.8c1,3.3,1,6.9-0.1,10.3
				c-2,6.1-4.8,12-8.1,17.5c-3.9,6.5-8.8,12.6-15.5,16.3c-5.4,3-11.6,3.7-17.4,5.3c-0.4,0.1-0.8,0.2-1.2,0.3c0.8,3.2,1.9,6.2,3.3,9
				c0.4,0.2,0.9,0.5,1.3,0.7l0,0c0,0,0,0,0,0c0,0,0,0,0,0v0C175.6,118.1,200,100.4,200.7,88.6z"/>
			<path opacity="0.34" fill="#FDD0B6" d="M200.7,88.6c0.6-9.4-2.1-27.1-3.4-35.3c-0.4,0.2-0.9,0.5-1.4,0.8
				c2.8,8.4,2.2,17.3-0.4,25.8c-1.2,4.1-3.1,8-5,11.8c-2.6,5-6.6,8.4-11.3,11.5c-6,4-13.7,5.2-20.6,6.8c-1.6,0.4-3.2,0.7-4.8,1.1
				c0.4,0.9,0.8,1.9,1.2,2.7c0.4,0.2,0.9,0.5,1.3,0.7l0,0c0,0,0,0,0,0c0,0,0,0,0,0v0C175.6,118.1,200,100.4,200.7,88.6z"/>
			<path fill="#FCD6D5" d="M189.4,61.6c-4,2.4-16.4,4.6-23.4,4.3c-7-0.3-12.7-0.3-13,6c-0.1,3.3,4.1,5.4,9.1,4.7
				c10.1-1.5,25.6-7.9,29.6-11.4C195.4,62,193.9,58.9,189.4,61.6z"/>
			<g>
				<path fill="#FBC0A7" d="M196.7,49.3c-1.1,3.2-9.5,3.4-18.8,0.3c-9.3-3.1-16-8.2-14.9-11.5c1.1-3.2,9.5-3.4,18.8-0.3
					C191,41,197.7,46.1,196.7,49.3z"/>
				<path fill="#FCD9D1" d="M192.4,43c-4.1,2-8.7,3.2-13.6,2.7c-5.2-0.5-10.4-2.2-14.7-5.1c-0.4-0.3-0.8-0.5-1.2-0.8
					c1,3.2,7,7.3,14.9,9.9c9.3,3.1,17.8,2.9,18.8-0.3C197.3,47.6,195.5,45.3,192.4,43z"/>
				<path fill="#FCD9D1" d="M195.7,46.1c-4.1,2-9,2.9-13.4,2c-5-1-7.8-1.8-12.4-4.3c-2.7-1.4-4.7-3.1-7-5c0,0-0.1-0.1-0.1-0.1
					c-0.3,3.3,6.2,8,15,10.9c9.3,3.1,17.8,2.9,18.8-0.3C197,48.4,196.6,47.3,195.7,46.1z"/>
			</g>
		</g>
		<g>
			<path fill="#FBC0A7" d="M53.1,87.8c-0.7-12.5,4.1-39.6,4.1-39.6l16.6-5.5l0,0l16.6-5.5c0,0,20.1,18.9,27,29.3
				c6.5,9.9-2.5,38.7-20.1,47.2v0c0,0,0,0,0,0c0,0,0,0,0,0v0C78.1,117.3,53.8,99.6,53.1,87.8z"/>
			<path fill="#FBC0A7" d="M53.1,87.8c-0.7-12.5,4.1-39.6,4.1-39.6l16.6-5.5l0,0l16.6-5.5c0,0,20.1,18.9,27,29.3
				c6.5,9.9-2.5,38.7-20.1,47.2v0c0,0,0,0,0,0c0,0,0,0,0,0v0C78.1,117.3,53.8,99.6,53.1,87.8z"/>
			<path fill="#FCD6D5" d="M113.7,68.7c-7.6-9.6-26.5-25.5-30.9-29.1l7.6-2.5c0,0,20.1,18.9,27,29.3c2.9,4.4,2.7,12.5,0.1,20.9
				C118,79.6,116.8,72.6,113.7,68.7z"/>
			<path fill="#FCD9D1" d="M53.1,87.8c-0.6-10.6,2.8-31.6,3.8-37.8c6,3.2,14.6,7.3,22.1,7.9c13,1.2,29.5-6.5,29.5,20.2
				c0,11.1-0.6,20.9-2.9,29.6c-2.5,2.5-5.2,4.5-8.3,6v0c0,0,0,0,0,0c0,0,0,0,0,0v0C78.1,117.3,53.8,99.6,53.1,87.8z"/>
			<path fill="#FDD0B6" d="M53.1,87.8c-0.6-9.4,2.1-27.1,3.4-35.3c4.8,2.8,14.4,8.1,22.6,8.9c11.2,1,25.3-5.6,25.3,17.4
				c0,13.5-1,24.8-5.7,34.3c-0.4,0.2-0.9,0.5-1.3,0.7v0c0,0,0,0,0,0c0,0,0,0,0,0v0C78.1,117.4,53.7,99.6,53.1,87.8z"/>
			<path opacity="0.34" fill="#FDD0B6" d="M53.1,87.8c-0.6-9.4,2.1-27.1,3.4-35.3c0.9,0.5,1.9,1.1,3.1,1.8c-1,3.3-1,6.9,0.1,10.3
				c2,6.1,4.8,12,8.1,17.5c3.8,6.5,8.8,12.6,15.5,16.2c5.4,3,11.6,3.7,17.4,5.4c0.4,0.1,0.8,0.2,1.2,0.3c-0.8,3.2-1.9,6.2-3.3,9
				c-0.4,0.2-0.9,0.5-1.3,0.7v0c0,0,0,0,0,0c0,0,0,0,0,0v0C78.1,117.4,53.7,99.6,53.1,87.8z"/>
			<path opacity="0.34" fill="#FDD0B6" d="M53.1,87.8c-0.6-9.4,2.1-27.1,3.4-35.3c0.4,0.2,0.9,0.5,1.4,0.8
				c-2.8,8.4-2.2,17.3,0.4,25.8c1.2,4.1,3.1,8,5,11.8c2.6,5,6.6,8.4,11.3,11.5c6,4,13.7,5.2,20.6,6.8c1.6,0.4,3.2,0.7,4.8,1.1
				c-0.4,0.9-0.8,1.8-1.2,2.7c-0.4,0.2-0.9,0.5-1.3,0.7v0c0,0,0,0,0,0c0,0,0,0,0,0v0C78.1,117.4,53.7,99.6,53.1,87.8z"/>
			<path fill="#FCD6D5" d="M64.3,60.8c4,2.4,16.4,4.6,23.4,4.3c7-0.3,12.7-0.3,13,6c0.1,3.3-4.1,5.4-9.1,4.7
				C81.5,74.3,66,67.8,62,64.4C58.4,61.2,59.9,58.1,64.3,60.8z"/>
			<g>
				<path fill="#FBC0A7" d="M57.1,48.6c1.1,3.2,9.5,3.4,18.8,0.3c9.3-3.1,16-8.2,15-11.5c-1.1-3.2-9.5-3.4-18.8-0.3
					C62.7,40.2,56,45.3,57.1,48.6z"/>
				<path fill="#FCD9D1" d="M61.4,42.3c4.1,2,8.7,3.2,13.6,2.7c5.2-0.5,10.4-2.2,14.7-5.1c0.4-0.3,0.8-0.5,1.2-0.8
					c-1,3.2-7,7.3-14.9,9.9c-9.3,3.1-17.8,2.9-18.8-0.3C56.5,46.8,58.2,44.5,61.4,42.3z"/>
				<path fill="#FCD9D1" d="M58,45.3c4.1,2,9,2.9,13.4,2c5-1,7.8-1.8,12.4-4.3c2.7-1.4,4.7-3.1,7-5c0,0,0.1-0.1,0.1-0.1
					c0.3,3.2-6.2,8-15.1,10.9c-9.3,3.1-17.8,2.9-18.8-0.3C56.8,47.6,57.1,46.5,58,45.3z"/>
			</g>
		</g>
		<g>
			<g>
				<g>
					<path fill="#9BB281" d="M128,148.7c0,0-10.4-4-16.4-3.2c0,0,5.8,7.5,7.6,11.5c1.5,3.4,4.9,10.7,8.9,10.7c4,0,7.4-7.8,8.9-11.2
						c1.8-4,7.3-10.7,7.3-10.7C138.2,145,128,148.7,128,148.7z"/>
					<path fill="#9BB281" d="M136.3,146.4c-2.5,7-8.7,12.8-16.7,10.5c-0.2-0.1-0.4-0.1-0.6-0.2c0.1,0.1,0.1,0.2,0.1,0.3
						c1.5,3.4,4.9,10.7,8.9,10.7c4,0,7.4-7.8,8.9-11.2c1.8-4,7.3-10.7,7.3-10.7C141.9,145.5,139,145.8,136.3,146.4z"/>
					<path fill="#C4C6C8" d="M139.5,145.9c0.1,3.5-1.5,7.4-3.5,10.2c-2.8,4-7.7,8.6-13.2,6.4c-0.4-0.2-0.8-0.3-1.2-0.5
						c1.7,2.9,3.9,5.7,6.4,5.7c4,0,7.4-7.8,8.9-11.2c1.8-4,7.3-10.7,7.3-10.7C142.8,145.6,141.1,145.7,139.5,145.9z"/>
				</g>
			</g>
			<g>
				<path fill="#FBC0A7" d="M161.7,110.9c-3.2-12.1-16.3-36.3-16.3-36.3h-17.5h0h-17.4c0,0-13.2,24.2-16.4,36.3
					c-3.1,11.5,14.5,35.9,33.8,38.5v0c0,0,0,0,0,0c0,0,0,0,0,0v0C147.2,146.9,164.8,122.4,161.7,110.9z"/>
				<path fill="#FBC0A7" d="M161.7,110.9c-3.2-12.1-16.3-36.3-16.3-36.3h-17.5h0h-17.4c0,0-13.2,24.2-16.4,36.3
					c-3.1,11.5,14.5,35.9,33.8,38.5v0c0,0,0,0,0,0c0,0,0,0,0,0v0C147.2,146.9,164.8,122.4,161.7,110.9z"/>
				<path fill="#FCD6D5" d="M98.1,111.9c4.2-11.5,17.2-32.5,20.2-37.3h-8c0,0-13.2,24.2-16.4,36.3c-1.4,5.1,1.3,12.7,6.5,19.9
					C97.5,123.5,96.5,116.5,98.1,111.9z"/>
				<path fill="#FCD9D1" d="M161.7,110.9c-2.7-10.2-12.5-29.1-15.5-34.7c-4.7,5-11.6,11.5-18.5,14.5c-12,5.2-30.1,3.1-21.6,28.4
					c3.5,10.5,7.1,19.6,12,27.2c3.1,1.6,6.4,2.6,9.7,3.1v0c0,0,0,0,0,0c0,0,0,0,0,0v0C147.2,146.9,164.8,122.4,161.7,110.9z"/>
				<path fill="#FDD0B6" d="M161.7,110.9c-2.4-9.1-10.5-25.1-14.3-32.4c-3.6,4.1-11.1,12.2-18.7,15.5c-10.3,4.4-25.8,2.6-18.6,24.4
					c4.3,12.8,8.7,23.2,16.2,30.8c0.5,0.1,1,0.2,1.5,0.2v0c0,0,0,0,0,0c0,0,0,0,0,0v0C147.2,146.9,164.8,122.4,161.7,110.9z"/>
				<path opacity="0.34" fill="#FDD0B6" d="M161.7,110.9c-2.4-9.1-10.5-25.1-14.3-32.4c-0.7,0.8-1.5,1.7-2.4,2.6
					c2,2.8,3.2,6.2,3.1,9.8c0,6.4-0.8,12.9-2.2,19.2c-1.6,7.3-4.4,14.7-9.7,20.3c-4.2,4.5-9.8,7.2-14.9,10.5c-0.3,0.2-0.7,0.5-1,0.7
					c1.8,2.8,3.7,5.3,5.9,7.5c0.5,0.1,1,0.2,1.5,0.2v0c0,0,0,0,0,0c0,0,0,0,0,0v0C147.2,146.9,164.8,122.4,161.7,110.9z"/>
				<path opacity="0.34" fill="#FDD0B6" d="M161.7,110.9c-2.4-9.1-10.5-25.1-14.3-32.4c-0.3,0.4-0.7,0.8-1,1.2
					c5.3,7.1,7.5,15.8,7.7,24.6c0.1,4.3-0.4,8.5-1.1,12.8c-0.9,5.6-3.7,10.1-7.1,14.4c-4.5,5.7-11.3,9.2-17.4,12.9
					c-1.4,0.9-2.8,1.7-4.2,2.5c0.6,0.8,1.3,1.5,2,2.2c0.5,0.1,1,0.2,1.5,0.2v0c0,0,0,0,0,0c0,0,0,0,0,0v0
					C147.2,146.9,164.8,122.4,161.7,110.9z"/>
				<path fill="#FCD6D5" d="M142.6,88.9c-3,3.5-14.1,9.5-20.9,11.4c-6.7,1.9-12.2,3.7-10.4,9.8c0.9,3.2,5.6,3.9,10.1,1.6
					c9.1-4.6,21.8-15.6,24.5-20.1C148.3,87.4,146,84.9,142.6,88.9z"/>
				<g>
					<path fill="#FBC0A7" d="M145.6,75c0,3.4-8,6.2-17.8,6.2c-9.8,0-17.8-2.8-17.8-6.2c0-3.4,8-6.2,17.8-6.2
						C137.7,68.8,145.6,71.6,145.6,75z"/>
					<path fill="#FCD9D1" d="M139.5,70.3c-3.3,3.2-7.2,5.8-12,6.8c-5.1,1.1-10.5,1.1-15.6-0.3c-0.5-0.1-0.9-0.3-1.4-0.4
						c1.9,2.7,8.9,4.7,17.3,4.7c9.8,0,17.8-2.8,17.8-6.2C145.6,73.1,143.3,71.5,139.5,70.3z"/>
					<path fill="#FCD9D1" d="M143.7,72.2c-3.2,3.2-7.6,5.6-12.1,6.1c-5.1,0.6-8,0.7-13.1-0.2c-3-0.5-5.4-1.5-8.3-2.6
						c0,0-0.1,0-0.1-0.1c0.8,3.2,8.4,5.7,17.7,5.7c9.8,0,17.8-2.8,17.8-6.2C145.6,74,144.9,73,143.7,72.2z"/>
				</g>
			</g>
			<g>
				<g>
					<g>
						<path fill="#9BB281" d="M127.5,149.5c0,0,10.3-6.3,14.1-12.8c2.1-3.7,1.5-9.3,1.5-9.3s-1.6,4.5-4.9,7.4
							C135,137.7,123.6,145.3,127.5,149.5z"/>
						<path fill="#9BB281" d="M142,129.9c-0.1,1.9-0.4,4.3-1.5,6.2c-3.2,5.6-11.3,11-13.5,12.4c0.1,0.4,0.3,0.7,0.6,1
							c0,0,10.3-6.3,14.1-12.8c2.1-3.7,1.5-9.3,1.5-9.3S142.8,128.5,142,129.9z"/>
						<path fill="#FCD6D5" d="M138.9,135.5c2.2-1.9,3.6-4.5,4.3-6.1c0-1.2-0.1-2-0.1-2s-1.6,4.5-4.8,7.4
							c-3.3,2.9-14.6,10.4-10.7,14.7c0,0,0.1,0,0.1-0.1C125.5,145.1,135.8,138.2,138.9,135.5z"/>
					</g>
					<g>
						<path fill="#9BB281" d="M127.3,149.4c0,0,7.5,4.7,15.7-2.5c8.2-7.2,13-13.1,17.2-23.3c0,0-1.9,2.4-6.2,5.6
							c-4.3,3.2-7.4,7.1-10.9,9.6C139.5,141.3,132.4,143.6,127.3,149.4z"/>
						<path fill="#FCD6D5" d="M143,140.1c3.5-2.5,6.7-6.4,11-9.6c2.3-1.7,3.9-3.2,4.9-4.2c0.4-0.8,0.8-1.7,1.1-2.6
							c0,0-1.9,2.4-6.2,5.6c-4.3,3.2-7.4,7.1-11,9.6c-3.5,2.5-10.6,4.8-15.7,10.6c0,0,0.3,0.2,0.9,0.4
							C133,144.6,139.6,142.4,143,140.1z"/>
						<path fill="#9BB281" d="M158,125.9c-3.8,8-8.4,13.2-15.5,19.5c-6.1,5.4-11.9,4.1-14.3,3.1c-0.3,0.3-0.5,0.6-0.8,0.9
							c0,0,7.5,4.7,15.7-2.5c8.2-7.2,13-13.1,17.2-23.3C160.2,123.6,159.5,124.5,158,125.9z"/>
					</g>
				</g>
				<g>
					<g>
						<path fill="#9BB281" d="M128.2,149.5c0,0-10.3-6.3-14.1-12.8c-2.1-3.7-1.5-9.3-1.5-9.3s1.6,4.5,4.9,7.4
							C120.7,137.7,132.1,145.3,128.2,149.5z"/>
						<path fill="#9BB281" d="M113.7,129.9c0.1,1.9,0.4,4.3,1.5,6.2c3.2,5.6,11.3,11,13.5,12.4c-0.1,0.4-0.3,0.7-0.6,1
							c0,0-10.3-6.3-14.1-12.8c-2.1-3.7-1.5-9.3-1.5-9.3S113,128.5,113.7,129.9z"/>
						<path fill="#FCD6D5" d="M116.8,135.5c-2.2-1.9-3.6-4.5-4.3-6.1c0-1.2,0.1-2,0.1-2s1.6,4.5,4.9,7.4
							c3.3,2.9,14.6,10.4,10.7,14.7c0,0-0.1,0-0.1-0.1C130.2,145.1,119.9,138.2,116.8,135.5z"/>
					</g>
					<g>
						<path fill="#9BB281" d="M128.4,149.4c0,0-7.5,4.7-15.7-2.5c-8.2-7.2-13-13.1-17.2-23.3c0,0,1.9,2.4,6.2,5.6
							c4.3,3.2,7.4,7.1,11,9.6C116.2,141.3,123.3,143.6,128.4,149.4z"/>
						<path fill="#FCD6D5" d="M112.7,140.1c-3.5-2.5-6.7-6.4-11-9.6c-2.3-1.7-3.9-3.2-4.9-4.2c-0.4-0.8-0.8-1.7-1.1-2.6
							c0,0,1.9,2.4,6.2,5.6c4.3,3.2,7.4,7.1,11,9.6c3.5,2.5,10.6,4.8,15.7,10.6c0,0-0.3,0.2-0.9,0.4
							C122.7,144.6,116.1,142.4,112.7,140.1z"/>
						<path fill="#9BB281" d="M97.7,125.9c3.8,8,8.4,13.2,15.5,19.5c6.1,5.4,11.9,4.1,14.3,3.1c0.3,0.3,0.5,0.6,0.8,0.9
							c0,0-7.5,4.7-15.7-2.5c-8.2-7.2-13-13.1-17.2-23.3C95.5,123.6,96.2,124.5,97.7,125.9z"/>
					</g>
				</g>
			</g>
		</g>
		<g>
			<g>
				<path fill="#FBC0A7" d="M233.3,115.3c3.5-12,4.8-39.5,4.8-39.5l-15-9.1l0,0l-14.9-9c0,0-23.8,13.9-32.8,22.6
					c-8.5,8.2-6.2,38.2,9,50.5l0,0c0,0,0,0,0,0c0,0,0,0,0,0v0C202.2,138.5,229.9,126.6,233.3,115.3z"/>
				<path fill="#FBC0A7" d="M233.3,115.3c3.5-12,4.8-39.5,4.8-39.5l-15-9.1l0,0l-14.9-9c0,0-23.8,13.9-32.8,22.6
					c-8.5,8.2-6.2,38.2,9,50.5l0,0c0,0,0,0,0,0c0,0,0,0,0,0v0C202.2,138.5,229.9,126.6,233.3,115.3z"/>
				<path fill="#FCD6D5" d="M178.4,83.1c9.5-7.7,31.6-18.9,36.6-21.4l-6.8-4.1c0,0-23.8,13.9-32.8,22.6c-3.8,3.6-5.4,11.6-4.8,20.3
					C171.8,92.8,174.6,86.2,178.4,83.1z"/>
				<path fill="#FCD9D1" d="M233.3,115.3c3-10.2,4.4-31.4,4.7-37.7c-6.6,1.8-15.8,3.8-23.3,2.8c-12.9-1.8-27.3-13-33.2,13.1
					c-2.4,10.8-4.1,20.5-3.8,29.5c1.9,3,4.1,5.6,6.7,7.7l0,0c0,0,0,0,0,0c0,0,0,0,0,0v0C202.2,138.5,229.9,126.6,233.3,115.3z"/>
				<path fill="#FDD0B6" d="M233.3,115.3c2.6-9.1,4.1-26.9,4.6-35.1c-5.3,1.6-15.8,4.7-24,3.6c-11.1-1.5-23.4-11.1-28.5,11.3
					c-3,13.1-4.5,24.4-2.1,34.7c0.4,0.3,0.7,0.7,1.1,1l0,0c0,0,0,0,0,0c0,0,0,0,0,0l0,0C202.3,138.5,230,126.7,233.3,115.3z"/>
				<path opacity="0.34" fill="#FDD0B6" d="M233.3,115.3c2.6-9.1,4.1-26.9,4.6-35.1c-1,0.3-2.1,0.6-3.4,1c0.2,3.4-0.5,6.9-2.4,10
					c-3.3,5.5-7.4,10.6-11.8,15.2c-5.2,5.4-11.4,10.3-18.8,12.4c-5.9,1.7-12.1,1-18.2,1.3c-0.4,0-0.8,0-1.2,0.1
					c0.1,3.3,0.4,6.4,1.2,9.5c0.4,0.3,0.7,0.7,1.1,1l0,0c0,0,0,0,0,0c0,0,0,0,0,0l0,0C202.3,138.5,230,126.7,233.3,115.3z"/>
				<path opacity="0.34" fill="#FDD0B6" d="M233.3,115.3c2.6-9.1,4.1-26.9,4.6-35.1c-0.5,0.1-1,0.3-1.5,0.5
					c0.9,8.8-1.7,17.4-6.1,25.1c-2.1,3.7-4.8,7.1-7.5,10.4c-3.7,4.3-8.4,6.7-13.6,8.7c-6.7,2.5-14.5,2-21.6,2.1c-1.6,0-3.3,0-4.9,0
					c0.2,1,0.3,2,0.6,2.9c0.4,0.3,0.7,0.7,1.1,1l0,0c0,0,0,0,0,0c0,0,0,0,0,0l0,0C202.3,138.5,230,126.7,233.3,115.3z"/>
				<path fill="#FCD6D5" d="M228.4,86.5c-4.4,1.4-17,0.8-23.8-1.1c-6.8-1.8-12.4-3.1-14,2.9c-0.9,3.2,2.8,6.2,7.8,6.6
					c10.2,0.8,26.7-2,31.4-4.5C234,88.2,233.3,84.9,228.4,86.5z"/>
				<g>
					<path fill="#FBC0A7" d="M238.1,76.2c-1.8,2.9-10,1.2-18.4-3.9c-8.4-5.1-13.8-11.6-12-14.5c1.8-2.9,10-1.2,18.4,3.9
						C234.5,66.7,239.9,73.2,238.1,76.2z"/>
					<path fill="#FCD9D1" d="M235.4,69c-4.4,1.1-9.2,1.2-13.8-0.4c-4.9-1.7-9.6-4.5-13.2-8.3c-0.3-0.4-0.7-0.7-1-1.1
						c0.2,3.3,5.2,8.6,12.3,13c8.4,5.1,16.7,6.8,18.4,3.9C239.1,74.6,238,71.9,235.4,69z"/>
					<path fill="#FCD9D1" d="M237.9,72.8c-4.4,1-9.4,0.8-13.5-1c-4.7-2.1-7.2-3.5-11.1-6.9c-2.3-2-3.9-4.1-5.7-6.5
						c0,0,0-0.1-0.1-0.1c-1,3.1,4.2,9.2,12.2,14c8.4,5.1,16.7,6.8,18.4,3.9C238.7,75.3,238.6,74.1,237.9,72.8z"/>
				</g>
			</g>
			<g>
				<g>
					<g>
						<path fill="#9BB281" d="M184,130.5c0,0,12.1,0,18.7-3.6c3.7-2,6.1-7.2,6.1-7.2s-3.7,3-8,3.8
							C196.5,124.3,182.9,124.9,184,130.5z"/>
						<path fill="#9BB281" d="M206.6,121.3c-1.1,1.6-2.6,3.4-4.5,4.5c-5.7,3.1-15.4,3.5-18,3.6c-0.1,0.4-0.1,0.8,0,1.2
							c0,0,12.1,0,18.7-3.6c3.7-2,6.1-7.2,6.1-7.2S207.9,120.5,206.6,121.3z"/>
						<path fill="#FCD6D5" d="M201,124.5c2.8-0.5,5.4-2,6.8-3c0.6-1,0.9-1.7,0.9-1.7s-3.7,3-8,3.8c-4.3,0.8-17.9,1.3-16.8,7
							c0,0,0.1,0,0.2,0C184.6,125.7,197,125.2,201,124.5z"/>
					</g>
					<g>
						<path fill="#9BB281" d="M183.9,130.3c0,0,4,7.9,14.7,6c10.7-1.9,17.9-4.5,26.7-11c0,0-2.8,1.1-8.2,1.6
							c-5.3,0.5-10,2.2-14.3,2.5C198.5,129.7,191.2,128,183.9,130.3z"/>
						<path fill="#FCD6D5" d="M202.2,130.5c4.3-0.3,9-2,14.3-2.5c2.9-0.3,5-0.7,6.4-1.1c0.8-0.5,1.5-1.1,2.3-1.7
							c0,0-2.8,1.1-8.2,1.6c-5.3,0.5-10,2.2-14.3,2.5c-4.3,0.3-11.6-1.4-18.9,0.9c0,0,0.2,0.3,0.5,0.8
							C191.3,129.2,198.1,130.8,202.2,130.5z"/>
						<path fill="#9BB281" d="M222.3,126.1c-7.4,4.8-14,7-23.3,8.7c-8,1.4-12.3-2.6-13.9-4.8c-0.4,0.1-0.8,0.2-1.1,0.3
							c0,0,4,7.9,14.7,6c10.7-1.9,17.9-4.5,26.7-11C225.4,125.3,224.4,125.7,222.3,126.1z"/>
					</g>
				</g>
				<g>
					<g>
						<path fill="#9BB281" d="M184.6,130.9c0,0-5.6-10.7-5.5-18.2c0.1-4.2,3.6-8.7,3.6-8.7s-1,4.7,0.3,8.8
							C184.3,117,190.2,129.3,184.6,130.9z"/>
						<path fill="#9BB281" d="M182.4,106.6c-0.9,1.7-1.8,3.9-1.9,6.1c-0.1,6.4,4,15.2,5.2,17.6c-0.3,0.2-0.6,0.4-1.1,0.5
							c0,0-5.6-10.7-5.5-18.2c0.1-4.2,3.6-8.7,3.6-8.7S182.4,105,182.4,106.6z"/>
						<path fill="#FCD6D5" d="M182.1,113c-0.9-2.8-0.7-5.7-0.5-7.4c0.6-1,1.1-1.6,1.1-1.6s-1,4.7,0.3,8.8c1.3,4.2,7.1,16.5,1.6,18.1
							c0,0,0-0.1-0.1-0.1C188.6,128.1,183.3,116.9,182.1,113z"/>
					</g>
					<g>
						<path fill="#9BB281" d="M184.9,130.9c0,0-8.8,0.1-12.1-10.3c-3.3-10.4-4.3-17.9-2.6-28.8c0,0,0.3,3,2.4,8
							c2,5,2.7,9.9,4.4,13.9C178.7,117.6,183.5,123.3,184.9,130.9z"/>
						<path fill="#FCD6D5" d="M176.3,114.8c-1.7-4-2.4-8.9-4.4-13.9c-1.1-2.7-1.7-4.8-2-6.2c0.1-0.9,0.2-1.9,0.4-2.8
							c0,0,0.3,3,2.4,8c2,5,2.7,9.9,4.4,13.9c1.7,4,6.6,9.6,7.9,17.2c0,0-0.4,0-1-0.1C182.4,123.9,177.9,118.5,176.3,114.8z"/>
						<path fill="#9BB281" d="M170.8,94.9c-0.9,8.8,0.3,15.7,3.1,24.7c2.4,7.8,8,9.7,10.7,10.1c0.1,0.4,0.2,0.8,0.2,1.1
							c0,0-8.8,0.1-12.1-10.3c-3.3-10.4-4.3-17.9-2.6-28.8C170.1,91.8,170.2,92.9,170.8,94.9z"/>
					</g>
				</g>
			</g>
		</g>
		<g>
			<g>
				<path fill="#FBC0A7" d="M17.6,115.3c-3.5-12-4.8-39.5-4.8-39.5l15-9.1l0,0l14.9-9c0,0,23.8,13.9,32.8,22.6
					c8.6,8.2,6.2,38.2-9,50.5v0c0,0,0,0,0,0c0,0,0,0,0,0l0,0C48.6,138.5,20.9,126.6,17.6,115.3z"/>
				<path fill="#FBC0A7" d="M17.6,115.3c-3.5-12-4.8-39.5-4.8-39.5l15-9.1l0,0l14.9-9c0,0,23.8,13.9,32.8,22.6
					c8.6,8.2,6.2,38.2-9,50.5v0c0,0,0,0,0,0c0,0,0,0,0,0l0,0C48.6,138.5,20.9,126.6,17.6,115.3z"/>
				<path fill="#FCD6D5" d="M72.4,83.1c-9.5-7.7-31.6-18.9-36.6-21.4l6.8-4.1c0,0,23.8,13.9,32.8,22.6c3.8,3.6,5.4,11.6,4.8,20.3
					C79.1,92.8,76.3,86.2,72.4,83.1z"/>
				<path fill="#FCD9D1" d="M17.6,115.3c-3-10.2-4.4-31.4-4.7-37.7c6.6,1.8,15.8,3.8,23.3,2.8c12.9-1.8,27.3-13,33.2,13.1
					c2.5,10.8,4.1,20.5,3.8,29.5c-1.9,3-4.1,5.6-6.7,7.7v0c0,0,0,0,0,0c0,0,0,0,0,0l0,0C48.6,138.5,20.9,126.6,17.6,115.3z"/>
				<path fill="#FDD0B6" d="M17.6,115.3c-2.6-9.1-4.1-26.9-4.6-35.1c5.3,1.6,15.8,4.7,24,3.6C48.1,82.2,60.4,72.6,65.5,95
					c3,13.1,4.5,24.4,2.1,34.7c-0.4,0.3-0.7,0.7-1.1,1v0c0,0,0,0,0,0c0,0,0,0,0,0l0,0C48.6,138.5,20.9,126.7,17.6,115.3z"/>
				<path opacity="0.34" fill="#FDD0B6" d="M17.6,115.3c-2.6-9.1-4.1-26.9-4.6-35.1c1,0.3,2.1,0.6,3.4,1c-0.2,3.4,0.5,6.9,2.4,10
					c3.3,5.5,7.4,10.6,11.8,15.2c5.2,5.4,11.4,10.3,18.8,12.4c5.9,1.7,12.1,1,18.2,1.3c0.4,0,0.8,0,1.2,0.1
					c-0.1,3.3-0.4,6.4-1.2,9.5c-0.4,0.3-0.7,0.7-1.1,1v0c0,0,0,0,0,0c0,0,0,0,0,0l0,0C48.6,138.5,20.9,126.7,17.6,115.3z"/>
				<path opacity="0.34" fill="#FDD0B6" d="M17.6,115.3c-2.6-9.1-4.1-26.9-4.6-35.1c0.5,0.1,1,0.3,1.5,0.5
					c-0.9,8.8,1.7,17.4,6.1,25.1c2.1,3.7,4.8,7.1,7.5,10.4c3.7,4.3,8.4,6.7,13.6,8.7c6.7,2.5,14.5,2,21.6,2.1c1.6,0,3.3,0,4.9,0
					c-0.2,1-0.3,2-0.6,2.9c-0.4,0.3-0.7,0.7-1.1,1v0c0,0,0,0,0,0c0,0,0,0,0,0l0,0C48.6,138.5,20.9,126.7,17.6,115.3z"/>
				<path fill="#FCD6D5" d="M22.5,86.5c4.4,1.4,17,0.8,23.8-1.1c6.8-1.8,12.4-3.1,14,2.9c0.9,3.2-2.8,6.2-7.8,6.6
					c-10.2,0.8-26.7-2-31.4-4.5C16.8,88.2,17.6,84.9,22.5,86.5z"/>
				<g>
					<path fill="#FBC0A7" d="M12.7,76.2c1.8,2.9,10,1.2,18.4-3.9c8.4-5.1,13.8-11.6,12-14.5c-1.8-2.9-10-1.2-18.4,3.9
						C16.3,66.7,10.9,73.2,12.7,76.2z"/>
					<path fill="#FCD9D1" d="M15.5,69c4.4,1.1,9.2,1.2,13.8-0.4c4.9-1.7,9.6-4.5,13.2-8.3c0.3-0.4,0.7-0.7,1-1.1
						c-0.2,3.3-5.2,8.6-12.3,13c-8.4,5.1-16.7,6.8-18.4,3.9C11.8,74.6,12.9,71.9,15.5,69z"/>
					<path fill="#FCD9D1" d="M12.9,72.8c4.4,1,9.4,0.8,13.5-1c4.7-2.1,7.2-3.5,11.1-6.9c2.3-2,3.9-4.1,5.7-6.5c0,0,0-0.1,0.1-0.1
						c1,3.1-4.2,9.2-12.2,14c-8.4,5.1-16.7,6.8-18.4,3.9C12.2,75.3,12.3,74.1,12.9,72.8z"/>
				</g>
			</g>
			<g>
				<g>
					<g>
						<path fill="#9BB281" d="M66.8,130.5c0,0-12.1,0-18.7-3.6c-3.7-2-6.1-7.2-6.1-7.2s3.7,3,8,3.8C54.4,124.3,68,124.9,66.8,130.5z
							"/>
						<path fill="#9BB281" d="M44.3,121.3c1.1,1.6,2.6,3.4,4.5,4.5c5.7,3.1,15.4,3.5,18,3.6c0.1,0.4,0.1,0.8,0,1.2
							c0,0-12.1,0-18.7-3.6c-3.7-2-6.1-7.2-6.1-7.2S42.9,120.5,44.3,121.3z"/>
						<path fill="#FCD6D5" d="M49.8,124.5c-2.8-0.5-5.4-2-6.8-3c-0.6-1-0.9-1.7-0.9-1.7s3.7,3,8,3.8c4.3,0.8,17.9,1.3,16.8,7
							c0,0-0.1,0-0.2,0C66.2,125.7,53.9,125.2,49.8,124.5z"/>
					</g>
					<g>
						<path fill="#9BB281" d="M67,130.3c0,0-4,7.9-14.7,6c-10.7-1.9-17.9-4.5-26.7-11c0,0,2.8,1.1,8.2,1.6c5.3,0.5,10,2.2,14.3,2.5
							C52.3,129.7,59.6,128,67,130.3z"/>
						<path fill="#FCD6D5" d="M48.7,130.5c-4.3-0.3-9-2-14.3-2.5c-2.9-0.3-5-0.7-6.4-1.1c-0.8-0.5-1.5-1.1-2.3-1.7
							c0,0,2.8,1.1,8.2,1.6c5.3,0.5,10,2.2,14.3,2.5c4.3,0.3,11.6-1.4,18.9,0.9c0,0-0.2,0.3-0.5,0.8
							C59.6,129.2,52.8,130.8,48.7,130.5z"/>
						<path fill="#9BB281" d="M28.5,126.1c7.4,4.8,14,7,23.3,8.7c8,1.4,12.3-2.6,13.9-4.8c0.4,0.1,0.7,0.2,1.1,0.3c0,0-4,7.9-14.7,6
							c-10.7-1.9-17.9-4.5-26.7-11C25.4,125.3,26.5,125.7,28.5,126.1z"/>
					</g>
				</g>
				<g>
					<g>
						<path fill="#9BB281" d="M66.2,130.9c0,0,5.6-10.7,5.5-18.2c-0.1-4.2-3.6-8.7-3.6-8.7s1,4.7-0.3,8.8
							C66.5,117,60.7,129.3,66.2,130.9z"/>
						<path fill="#9BB281" d="M68.5,106.6c0.9,1.7,1.8,3.9,1.9,6.1c0.1,6.4-4,15.2-5.2,17.6c0.3,0.2,0.6,0.4,1.1,0.5
							c0,0,5.6-10.7,5.5-18.2c-0.1-4.2-3.6-8.7-3.6-8.7S68.4,105,68.5,106.6z"/>
						<path fill="#FCD6D5" d="M68.7,113c0.9-2.8,0.7-5.7,0.5-7.4c-0.6-1-1.1-1.6-1.1-1.6s1,4.7-0.3,8.8c-1.3,4.2-7.1,16.5-1.6,18.1
							c0,0,0-0.1,0.1-0.1C62.3,128.1,67.5,116.9,68.7,113z"/>
					</g>
					<g>
						<path fill="#9BB281" d="M66,130.9c0,0,8.8,0.1,12.1-10.3c3.3-10.4,4.3-17.9,2.6-28.8c0,0-0.3,3-2.4,8c-2,5-2.7,9.9-4.4,13.9
							C72.2,117.6,67.3,123.3,66,130.9z"/>
						<path fill="#FCD6D5" d="M74.6,114.8c1.7-4,2.4-8.9,4.4-13.9c1.1-2.7,1.7-4.8,2-6.2c-0.1-0.9-0.2-1.9-0.4-2.8c0,0-0.3,3-2.4,8
							c-2,5-2.7,9.9-4.4,13.9c-1.7,4-6.6,9.6-7.9,17.2c0,0,0.4,0,1-0.1C68.5,123.9,72.9,118.5,74.6,114.8z"/>
						<path fill="#9BB281" d="M80.1,94.9c0.9,8.8-0.3,15.7-3.1,24.7c-2.4,7.8-8,9.7-10.7,10.1c-0.1,0.4-0.2,0.8-0.2,1.1
							c0,0,8.8,0.1,12.1-10.3c3.3-10.4,4.3-17.9,2.6-28.8C80.8,91.8,80.7,92.9,80.1,94.9z"/>
					</g>
				</g>
			</g>
		</g>
		<g>
			<g>
				<path fill="#FBC0A7" d="M51.9,131.9C51.2,119.4,56,92.3,56,92.3l16.6-5.5l0,0l16.6-5.5c0,0,20.1,18.9,27,29.3
					c6.5,9.9-2.5,38.7-20.1,47.2v0c0,0,0,0,0,0c0,0,0,0,0,0l0,0C77,161.4,52.6,143.7,51.9,131.9z"/>
				<path fill="#FBC0A7" d="M51.9,131.9C51.2,119.4,56,92.3,56,92.3l16.6-5.5l0,0l16.6-5.5c0,0,20.1,18.9,27,29.3
					c6.5,9.9-2.5,38.7-20.1,47.2v0c0,0,0,0,0,0c0,0,0,0,0,0l0,0C77,161.4,52.6,143.7,51.9,131.9z"/>
				<path fill="#FCD6D5" d="M112.5,112.8C105,103.2,86,87.3,81.7,83.7l7.6-2.5c0,0,20.1,18.9,27,29.3c2.9,4.4,2.7,12.5,0.1,20.9
					C116.8,123.7,115.6,116.7,112.5,112.8z"/>
				<path fill="#FCD9D1" d="M51.9,131.9c-0.6-10.6,2.8-31.6,3.8-37.8c6,3.2,14.6,7.3,22.1,7.9c13,1.1,29.5-6.5,29.5,20.2
					c0,11.1-0.6,20.9-2.9,29.6c-2.5,2.5-5.2,4.5-8.3,6v0c0,0,0,0,0,0c0,0,0,0,0,0l0,0C77,161.4,52.6,143.7,51.9,131.9z"/>
				<path fill="#FDD0B6" d="M51.9,131.9c-0.6-9.4,2.1-27.1,3.4-35.3c4.8,2.8,14.4,8.1,22.6,8.8c11.2,1,25.3-5.6,25.3,17.4
					c0,13.5-1,24.8-5.7,34.3c-0.4,0.2-0.9,0.5-1.3,0.7l0,0c0,0,0,0,0,0c0,0,0,0,0,0v0C76.9,161.4,52.6,143.7,51.9,131.9z"/>
				<path opacity="0.34" fill="#FDD0B6" d="M51.9,131.9c-0.6-9.4,2.1-27.1,3.4-35.3c0.9,0.5,1.9,1.1,3.1,1.8
					c-1,3.3-1.1,6.9,0.1,10.3c2,6.1,4.8,12,8.1,17.5c3.9,6.5,8.8,12.6,15.5,16.2c5.4,3,11.6,3.7,17.4,5.4c0.4,0.1,0.8,0.2,1.2,0.3
					c-0.8,3.2-1.9,6.2-3.3,9c-0.4,0.2-0.9,0.5-1.3,0.7l0,0c0,0,0,0,0,0c0,0,0,0,0,0v0C76.9,161.4,52.6,143.7,51.9,131.9z"/>
				<path opacity="0.34" fill="#FDD0B6" d="M51.9,131.9c-0.6-9.4,2.1-27.1,3.4-35.3c0.4,0.2,0.9,0.5,1.4,0.8
					c-2.8,8.4-2.2,17.3,0.4,25.8c1.2,4.1,3.1,8,5,11.8c2.6,5,6.6,8.4,11.3,11.5c6,4,13.7,5.2,20.6,6.8c1.6,0.4,3.2,0.7,4.8,1.1
					c-0.4,0.9-0.8,1.8-1.2,2.7c-0.4,0.2-0.9,0.5-1.3,0.7l0,0c0,0,0,0,0,0c0,0,0,0,0,0v0C76.9,161.4,52.6,143.7,51.9,131.9z"/>
				<path fill="#FCD6D5" d="M63.1,104.9c4,2.4,16.4,4.5,23.4,4.3c7-0.3,12.7-0.3,13,6c0.1,3.3-4.1,5.4-9.1,4.7
					c-10.1-1.5-25.6-7.9-29.6-11.4C57.2,105.3,58.7,102.2,63.1,104.9z"/>
				<g>
					<path fill="#FBC0A7" d="M55.9,92.7C57,95.9,65.4,96,74.7,93c9.3-3.1,16-8.2,15-11.5c-1.1-3.2-9.5-3.4-18.8-0.3
						C61.5,84.3,54.8,89.4,55.9,92.7z"/>
					<path fill="#FCD9D1" d="M60.2,86.3c4.1,2,8.7,3.2,13.6,2.7c5.2-0.5,10.4-2.2,14.7-5.1c0.4-0.3,0.8-0.5,1.2-0.8
						c-1,3.2-7,7.3-14.9,9.9C65.4,96,57,95.9,55.9,92.7C55.3,90.9,57,88.6,60.2,86.3z"/>
					<path fill="#FCD9D1" d="M56.9,89.4c4.1,2,9,2.9,13.4,2c5-1,7.8-1.8,12.4-4.3c2.7-1.4,4.7-3.1,7-5c0,0,0.1-0.1,0.1-0.1
						c0.3,3.2-6.2,8-15.1,10.9C65.4,96,57,95.9,55.9,92.7C55.6,91.7,55.9,90.6,56.9,89.4z"/>
				</g>
			</g>
			<g>
				<g>
					<g>
						<path fill="#9BB281" d="M96.5,157.8c0,0-11.8-2.7-17.4-7.7c-3.2-2.8-4.3-8.4-4.3-8.4s2.9,3.8,6.9,5.5
							C85.7,148.9,98.8,152.5,96.5,157.8z"/>
						<path fill="#9BB281" d="M76.6,143.7c0.7,1.8,1.8,3.9,3.4,5.4c4.8,4.3,14.2,6.9,16.8,7.5c0,0.4-0.1,0.8-0.3,1.2
							c0,0-11.8-2.7-17.4-7.7c-3.2-2.8-4.3-8.4-4.3-8.4S75.4,142.6,76.6,143.7z"/>
						<path fill="#FCD6D5" d="M81.3,148c-2.7-1.1-4.8-3.2-6-4.4c-0.4-1.1-0.5-1.9-0.5-1.9s2.9,3.8,6.9,5.5c4,1.7,17.1,5.3,14.8,10.6
							c0,0-0.1,0-0.2,0C97,152.9,85.1,149.7,81.3,148z"/>
					</g>
					<g>
						<path fill="#9BB281" d="M96.7,157.6c0,0-5.6,6.8-15.7,2.5c-10-4.3-16.4-8.4-23.6-16.7c0,0,2.5,1.7,7.6,3.4
							c5.1,1.7,9.3,4.4,13.4,5.7C82.5,153.7,90,153.7,96.7,157.6z"/>
						<path fill="#FCD6D5" d="M78.8,153.6c-4.1-1.3-8.3-4-13.4-5.7c-2.8-0.9-4.8-1.8-6-2.5c-0.6-0.7-1.3-1.4-1.9-2.1
							c0,0,2.5,1.7,7.6,3.4c5.1,1.7,9.3,4.4,13.4,5.7c4.1,1.3,11.6,1.2,18.2,5.1c0,0-0.2,0.3-0.7,0.7
							C89.7,154.9,82.7,154.8,78.8,153.6z"/>
						<path fill="#9BB281" d="M60.1,144.9c6.1,6.4,12.1,10,20.8,13.7c7.5,3.2,12.5,0.2,14.6-1.5c0.3,0.2,0.7,0.4,1,0.6
							c0,0-5.6,6.8-15.7,2.5c-10-4.3-16.4-8.4-23.6-16.7C57.3,143.4,58.2,144,60.1,144.9z"/>
					</g>
				</g>
				<g>
					<g>
						<path fill="#9BB281" d="M95.8,158c0,0,7.8-9.2,9.4-16.5c0.9-4.1-1.5-9.3-1.5-9.3s-0.1,4.8-2.3,8.5
							C99.2,144.5,90.8,155.1,95.8,158z"/>
						<path fill="#9BB281" d="M103.5,134.8c0.5,1.8,0.9,4.2,0.5,6.3c-1.3,6.3-7.3,14-9,16c0.2,0.3,0.5,0.6,0.9,0.8
							c0,0,7.9-9.2,9.4-16.5c0.9-4.1-1.5-9.3-1.5-9.3S103.7,133.3,103.5,134.8z"/>
						<path fill="#FCD6D5" d="M102.3,141.1c1.5-2.5,2-5.4,2.2-7.1c-0.4-1.1-0.7-1.8-0.7-1.8s-0.1,4.8-2.3,8.5
							c-2.2,3.8-10.6,14.4-5.6,17.3c0,0,0,0,0.1-0.1C92.6,154.4,100.2,144.7,102.3,141.1z"/>
					</g>
					<g>
						<path fill="#9BB281" d="M95.6,157.9c0,0,8.6,2.1,14.1-7.3c5.5-9.4,8.2-16.5,9-27.5c0,0-1,2.9-4.1,7.3
							c-3.1,4.4-4.8,9.1-7.4,12.5C104.6,146.4,98.6,150.8,95.6,157.9z"/>
						<path fill="#FCD6D5" d="M107.6,144.1c2.6-3.5,4.3-8.2,7.4-12.5c1.7-2.4,2.7-4.3,3.4-5.6c0.1-0.9,0.2-1.9,0.3-2.8
							c0,0-1,2.9-4.1,7.3c-3.1,4.4-4.8,9.1-7.4,12.5c-2.6,3.5-8.6,7.9-11.6,15c0,0,0.4,0.1,0.9,0.1
							C99.6,151.6,105.1,147.4,107.6,144.1z"/>
						<path fill="#9BB281" d="M117.4,126c-1.1,8.8-3.8,15.2-8.6,23.4c-4.1,7-10,7.6-12.6,7.5c-0.2,0.4-0.3,0.7-0.5,1.1
							c0,0,8.6,2.1,14.1-7.3c5.5-9.4,8.2-16.5,9-27.5C118.7,123.1,118.4,124.2,117.4,126z"/>
					</g>
				</g>
			</g>
		</g>
		<g>
			<g>
				<path fill="#FBC0A7" d="M204.5,131.9c0.7-12.5-4.1-39.6-4.1-39.6l-16.6-5.5l0,0l-16.6-5.5c0,0-20.1,18.9-27,29.3
					c-6.5,9.9,2.5,38.7,20.1,47.2v0c0,0,0,0,0,0l0,0v0C179.5,161.4,203.8,143.7,204.5,131.9z"/>
				<path fill="#FBC0A7" d="M204.5,131.9c0.7-12.5-4.1-39.6-4.1-39.6l-16.6-5.5l0,0l-16.6-5.5c0,0-20.1,18.9-27,29.3
					c-6.5,9.9,2.5,38.7,20.1,47.2v0c0,0,0,0,0,0l0,0v0C179.5,161.4,203.8,143.7,204.5,131.9z"/>
				<path fill="#FCD6D5" d="M143.9,112.8c7.5-9.6,26.5-25.5,30.8-29.1l-7.6-2.5c0,0-20.1,18.9-27,29.3c-2.9,4.4-2.7,12.5-0.1,20.9
					C139.6,123.7,140.8,116.7,143.9,112.8z"/>
				<path fill="#FCD9D1" d="M204.5,131.9c0.6-10.6-2.8-31.6-3.8-37.8c-6,3.2-14.6,7.3-22.1,7.9c-13,1.1-29.5-6.5-29.4,20.2
					c0,11.1,0.6,20.9,2.9,29.6c2.5,2.5,5.2,4.5,8.3,6v0c0,0,0,0,0,0l0,0v0C179.5,161.4,203.8,143.7,204.5,131.9z"/>
				<path fill="#FDD0B6" d="M204.5,131.9c0.6-9.4-2.1-27.1-3.4-35.3c-4.8,2.8-14.4,8.1-22.6,8.8c-11.2,1-25.3-5.6-25.3,17.4
					c0,13.5,1,24.8,5.7,34.3c0.4,0.2,0.9,0.5,1.3,0.7l0,0c0,0,0,0,0,0c0,0,0,0,0,0v0C179.5,161.4,203.8,143.7,204.5,131.9z"/>
				<path opacity="0.34" fill="#FDD0B6" d="M204.5,131.9c0.6-9.4-2.1-27.1-3.4-35.3c-0.9,0.5-1.9,1.1-3.1,1.8
					c1,3.3,1.1,6.9-0.1,10.3c-2,6.1-4.8,12-8.1,17.5c-3.9,6.5-8.8,12.6-15.5,16.2c-5.4,3-11.6,3.7-17.4,5.4
					c-0.4,0.1-0.8,0.2-1.2,0.3c0.8,3.2,1.9,6.2,3.3,9c0.4,0.2,0.9,0.5,1.3,0.7l0,0c0,0,0,0,0,0c0,0,0,0,0,0v0
					C179.5,161.4,203.8,143.7,204.5,131.9z"/>
				<path opacity="0.34" fill="#FDD0B6" d="M204.5,131.9c0.6-9.4-2.1-27.1-3.4-35.3c-0.4,0.2-0.9,0.5-1.4,0.8
					c2.8,8.4,2.2,17.3-0.4,25.8c-1.2,4.1-3.1,8-5,11.8c-2.6,5-6.6,8.4-11.3,11.5c-6,4-13.7,5.2-20.6,6.8c-1.6,0.4-3.2,0.7-4.8,1.1
					c0.4,0.9,0.8,1.8,1.2,2.7c0.4,0.2,0.9,0.5,1.3,0.7l0,0c0,0,0,0,0,0c0,0,0,0,0,0v0C179.5,161.4,203.8,143.7,204.5,131.9z"/>
				<path fill="#FCD6D5" d="M193.3,104.9c-4,2.4-16.4,4.5-23.4,4.3c-7-0.3-12.7-0.3-13,6c-0.1,3.3,4.1,5.4,9.1,4.7
					c10.1-1.5,25.6-7.9,29.6-11.4C199.2,105.3,197.7,102.2,193.3,104.9z"/>
				<g>
					<path fill="#FBC0A7" d="M200.5,92.7c-1.1,3.2-9.5,3.4-18.8,0.3c-9.3-3.1-16-8.2-15-11.5c1.1-3.2,9.5-3.4,18.8-0.3
						C194.9,84.3,201.6,89.4,200.5,92.7z"/>
					<path fill="#FCD9D1" d="M196.2,86.3c-4.1,2-8.7,3.2-13.6,2.7c-5.2-0.5-10.4-2.2-14.7-5.1c-0.4-0.3-0.8-0.5-1.2-0.8
						c1,3.2,7,7.3,14.9,9.9c9.3,3.1,17.8,2.9,18.8-0.3C201.1,90.9,199.4,88.6,196.2,86.3z"/>
					<path fill="#FCD9D1" d="M199.5,89.4c-4.1,2-9,2.9-13.4,2c-5-1-7.8-1.8-12.4-4.3c-2.7-1.4-4.7-3.1-7-5c0,0-0.1-0.1-0.1-0.1
						c-0.3,3.2,6.2,8,15.1,10.9c9.3,3.1,17.8,2.9,18.8-0.3C200.8,91.7,200.5,90.6,199.5,89.4z"/>
				</g>
			</g>
			<g>
				<g>
					<g>
						<path fill="#9BB281" d="M159.9,157.8c0,0,11.8-2.7,17.4-7.7c3.2-2.8,4.3-8.4,4.3-8.4s-2.9,3.8-6.9,5.5
							C170.7,148.9,157.6,152.5,159.9,157.8z"/>
						<path fill="#9BB281" d="M179.8,143.7c-0.7,1.8-1.8,3.9-3.4,5.4c-4.8,4.3-14.2,6.9-16.7,7.5c0,0.4,0.1,0.8,0.3,1.2
							c0,0,11.8-2.7,17.4-7.7c3.2-2.8,4.3-8.4,4.3-8.4S181,142.6,179.8,143.7z"/>
						<path fill="#FCD6D5" d="M175.1,148c2.7-1.1,4.8-3.2,6-4.4c0.4-1.1,0.5-1.9,0.5-1.9s-2.9,3.8-6.9,5.5
							c-4,1.7-17.1,5.3-14.8,10.6c0,0,0.1,0,0.2,0C159.4,152.9,171.3,149.7,175.1,148z"/>
					</g>
					<g>
						<path fill="#9BB281" d="M159.8,157.6c0,0,5.6,6.8,15.7,2.5c10-4.3,16.4-8.4,23.6-16.7c0,0-2.5,1.7-7.6,3.4
							c-5.1,1.7-9.3,4.4-13.4,5.7C173.9,153.7,166.4,153.7,159.8,157.6z"/>
						<path fill="#FCD6D5" d="M177.6,153.6c4.1-1.3,8.3-4,13.4-5.7c2.8-0.9,4.8-1.8,6-2.5c0.6-0.7,1.3-1.4,1.9-2.1
							c0,0-2.5,1.7-7.6,3.4c-5.1,1.7-9.3,4.4-13.4,5.7c-4.1,1.3-11.6,1.2-18.2,5.1c0,0,0.2,0.3,0.7,0.7
							C166.7,154.9,173.7,154.8,177.6,153.6z"/>
						<path fill="#9BB281" d="M196.3,144.9c-6.1,6.4-12.1,10-20.8,13.7c-7.5,3.2-12.5,0.2-14.6-1.5c-0.3,0.2-0.7,0.4-1,0.6
							c0,0,5.6,6.8,15.7,2.5c10-4.3,16.4-8.4,23.6-16.7C199.1,143.4,198.2,144,196.3,144.9z"/>
					</g>
				</g>
				<g>
					<g>
						<path fill="#9BB281" d="M160.6,158c0,0-7.9-9.2-9.4-16.5c-0.9-4.1,1.5-9.3,1.5-9.3s0.1,4.8,2.3,8.5
							C157.2,144.5,165.6,155.1,160.6,158z"/>
						<path fill="#9BB281" d="M153,134.8c-0.5,1.8-0.9,4.2-0.5,6.3c1.3,6.3,7.3,14,9,16c-0.2,0.3-0.5,0.6-0.9,0.8
							c0,0-7.9-9.2-9.4-16.5c-0.9-4.1,1.5-9.3,1.5-9.3S152.7,133.3,153,134.8z"/>
						<path fill="#FCD6D5" d="M154.1,141.1c-1.5-2.5-2-5.4-2.2-7.1c0.4-1.1,0.7-1.8,0.7-1.8s0.1,4.8,2.3,8.5
							c2.2,3.8,10.6,14.4,5.6,17.3c0,0,0,0-0.1-0.1C163.8,154.4,156.2,144.7,154.1,141.1z"/>
					</g>
					<g>
						<path fill="#9BB281" d="M160.8,157.9c0,0-8.6,2.1-14.1-7.3c-5.5-9.4-8.2-16.5-9-27.5c0,0,1,2.9,4.1,7.3
							c3.1,4.4,4.8,9.1,7.4,12.5C151.8,146.4,157.8,150.8,160.8,157.9z"/>
						<path fill="#FCD6D5" d="M148.8,144.1c-2.6-3.5-4.3-8.2-7.4-12.5c-1.7-2.4-2.7-4.3-3.4-5.6c-0.1-0.9-0.2-1.9-0.3-2.8
							c0,0,1,2.9,4.1,7.3c3.1,4.4,4.8,9.1,7.4,12.5c2.6,3.5,8.6,7.9,11.6,15c0,0-0.4,0.1-1,0.1C156.8,151.6,151.3,147.4,148.8,144.1
							z"/>
						<path fill="#9BB281" d="M139,126c1.1,8.8,3.8,15.2,8.6,23.4c4.1,7,10,7.6,12.6,7.5c0.2,0.4,0.3,0.7,0.5,1.1
							c0,0-8.6,2.1-14.1-7.3c-5.5-9.4-8.2-16.5-9-27.5C137.7,123.1,138,124.2,139,126z"/>
					</g>
				</g>
			</g>
		</g>
	</g>
	<path fill="#FAB390" d="M211.2,133.2c0,0-23.9,25.7-40.2,42.5c-16.4,16.9-24.8,35.9-30.2,48.9c-11.3,27.5,5.6,71.7,25.6,95.7
		c0,0-19.4,11.2-32.7,4.1c-13.3-7.2-19.8-1.8-25.4,0.3c-5.6,2-23.6,5.4-28.2-1.8c0,0,42.4-63.5,25.6-99.8
		c-10.8-23.2-21.3-34.9-36.4-53.4c-8.4-10.4-21.2-23-37.3-40.3c-0.3-0.3,41-3.4,64.9,9.7c23.8,13,30.7-0.5,53.7-7.7
		C173.4,124.4,180.9,142.6,211.2,133.2z"/>
	<g>
		<path fill="#768961" d="M142.6,230.1c0.1,1.1-0.7,2-1.8,2.1l-31.8,4.3c-1.1,0.1-2-0.7-2.1-1.7l0,0c-0.1-1.1,0.7-2,1.7-2.1
			l31.9-4.3C141.6,228.2,142.5,229,142.6,230.1L142.6,230.1z"/>
		<path fill="#899E70" d="M140,242.5c-0.2,1.1-1.2,1.7-2.2,1.6l-31.3-4.4c-1-0.2-1.7-1.2-1.5-2.3l0,0c0.2-1,1.2-1.7,2.2-1.6
			l31.3,4.4C139.5,240.5,140.2,241.5,140,242.5L140,242.5z"/>
		<path fill="#9BB281" d="M140.6,235.7c0,1.1-0.9,1.9-1.9,1.9H108c-1.1,0-1.9-0.9-1.9-1.9l0,0c0-1.1,0.9-1.9,1.9-1.9h30.6
			C139.7,233.8,140.6,234.6,140.6,235.7L140.6,235.7z"/>
	</g>
</g>
</svg>
