<?xml version="1.0" encoding="iso-8859-1"?>
<!-- Generator: Adobe Illustrator 19.0.0, SVG Export Plug-In . SVG Version: 6.00 Build 0)  -->
<svg version="1.1" id="Capa_1" xmlns="http://www.w3.org/2000/svg" xmlns:xlink="http://www.w3.org/1999/xlink" x="0px" y="0px"
	 viewBox="0 0 514.133 514.133" style="enable-background:new 0 0 514.133 514.133;" xml:space="preserve">
<path style="fill:#FFD15C;" d="M290.133,438.237c1.067-16,4.267-33.067,7.467-50.133c7.467-35.2,36.267-62.933,72.533-67.2
	c3.2,0,6.4-1.067,8.533,0c20.267,1.067,29.867-14.933,29.867-14.933s21.333-20.267,32-25.6c0,0,12.8-20.267,14.933-21.333
	c0,0,9.6-19.2,19.2-23.467l2.133-4.267c0,0,10.667-28.8,20.267-32c8.533-3.2,16-2.133,17.067,4.267c0,0-2.133,10.667-6.4,18.133
	L492.8,270.77c0,0-1.067,12.8-5.333,21.333c-4.267,9.6-16,42.667-18.133,54.4c-2.133,11.733,0,22.4-21.333,32
	c-21.333,9.6-64,35.2-64,35.2s-21.333,11.733-25.6,35.2c-5.333,23.467-5.333,24.533-5.333,24.533l-67.2-9.6L290.133,438.237z"/>
<g>
	<path style="fill:#F7B64C;" d="M453.333,316.637c2.133-2.133,3.2-3.2,5.333-5.333c2.133-2.133,3.2-4.267,4.267-6.4
		c1.067-2.133,2.133-4.267,3.2-7.467c0-2.133,0-5.333-1.067-7.467s-2.133-4.267-4.267-6.4c-2.133-2.133-4.267-3.2-6.4-4.267
		c-2.133-1.067-4.267-1.067-7.467-1.067c-2.133,0-4.267,1.067-7.467,1.067l0,0c-1.067,0-1.067,1.067-2.133,1.067
		c1.067,0,1.067,0,2.133-1.067c2.133-1.067,4.267-1.067,7.467-1.067c2.133,0,5.333,0,7.467,1.067
		c2.133,1.067,4.267,2.133,5.333,4.267c1.067,2.133,3.2,4.267,3.2,6.4c1.067,2.133,1.067,4.267,0,7.467
		c0,2.133-1.067,4.267-2.133,6.4c-1.067,2.133-3.2,4.267-4.267,6.4c-1.067,2.133-3.2,3.2-5.333,5.333
		c-2.133,2.133-3.2,3.2-5.333,5.333c-2.133,2.133-3.2,3.2-5.333,5.333c-2.133,2.133-3.2,3.2-5.333,5.333
		c-2.133,1.067-4.267,3.2-6.4,4.267c-2.133,1.067-4.267,2.133-6.4,3.2c-2.133,1.067-4.267,2.133-6.4,2.133l0,0l0,0
		c-2.133,1.067-3.2,2.133-5.333,3.2s-3.2,2.133-5.333,3.2c-2.133,1.067-3.2,2.133-5.333,4.267c-1.067,1.067-1.067,1.067-2.133,2.133
		c-1.067,1.067-1.067,1.067-2.133,2.133v1.067c-1.067,1.067-1.067,1.067-2.133,2.133c-1.067,1.067-3.2,3.2-4.267,4.267
		c-1.067,1.067-3.2,2.133-5.333,3.2c-2.133,1.067-3.2,2.133-5.333,3.2c2.133-1.067,3.2-1.067,5.333-2.133
		c2.133-1.067,3.2-2.133,5.333-3.2s3.2-2.133,4.267-4.267c1.067-1.067,1.067-1.067,2.133-2.133l2.133-2.133
		c1.067-1.067,1.067-1.067,2.133-2.133c1.067-1.067,1.067-1.067,2.133-2.133c1.067-1.067,3.2-2.133,5.333-3.2
		c2.133-1.067,3.2-2.133,5.333-3.2c2.133-1.067,3.2-2.133,5.333-2.133c2.133-1.067,4.267-2.133,7.467-2.133
		c2.133-1.067,4.267-2.133,6.4-3.2c2.133-1.067,4.267-3.2,6.4-4.267c2.133-1.067,4.267-3.2,5.333-5.333
		c2.133-2.133,3.2-3.2,5.333-5.333C450.133,319.837,452.267,318.77,453.333,316.637z"/>
	<path style="fill:#F7B64C;" d="M502.4,218.504c-1.067,0-1.067-1.067-2.133-1.067c-1.067,0-2.133-1.067-2.133-1.067h-1.067H496
		c-1.067,0-2.133,0-2.133,0H492.8h-1.067h-1.067c-1.067,0-1.067,1.067-2.133,1.067c-1.067,0-1.067,1.067-2.133,1.067
		c-1.067,1.067-1.067,1.067-2.133,2.133c-1.067,1.067-1.067,1.067-2.133,2.133c-1.067,2.133-2.133,2.133-2.133,3.2
		c-1.067,1.067-2.133,3.2-3.2,4.267c0,0,0,1.067-1.067,1.067l-2.133,3.2l0,0l0,0l0,0l0,0c1.067-1.067,2.133-3.2,3.2-4.267
		s2.133-3.2,3.2-4.267s1.067-1.067,2.133-2.133c1.067-1.067,1.067-1.067,2.133-2.133c1.067-1.067,1.067-1.067,2.133-2.133
		c1.067,0,1.067-1.067,2.133-1.067c1.067,0,1.067-1.067,2.133-1.067h1.067h1.067h1.067c1.067,0,2.133,0,2.133,0h1.067h1.067
		c1.067,0,2.133,0,2.133,1.067C500.267,218.504,501.333,218.504,502.4,218.504c1.067,2.133,2.133,3.2,3.2,4.267
		c-1.067,3.2-2.133,5.333-3.2,8.533c-1.067,1.067-1.067,3.2-2.133,4.267c0,1.067-1.067,1.067-1.067,2.133v1.067v1.067l0,0l0,0
		l-8.533,21.333c0,1.067-1.067,2.133-1.067,3.2c0,1.067-1.067,2.133-1.067,3.2c-1.067,2.133-1.067,3.2-2.133,5.333
		c-1.067,3.2-2.133,7.467-3.2,10.667l0,0l0,0c0,2.133-1.067,4.267-1.067,7.467c-1.067,2.133-1.067,4.267-2.133,6.4
		c0,1.067-1.067,2.133-1.067,3.2l-2.133,3.2c-1.067,2.133-2.133,4.267-3.2,6.4s-2.133,4.267-3.2,6.4l-3.2,6.4
		c-2.133,4.267-3.2,9.6-5.333,13.867l0,0l0,0c-1.067,2.133-1.067,4.267-2.133,5.333c0,2.133-1.067,4.267-1.067,6.4
		c0,1.067,0,2.133,0,3.2s0,2.133,0,3.2c0,2.133-1.067,4.267-1.067,5.333c-1.067,2.133-1.067,3.2-2.133,5.333
		c0,1.067-1.067,2.133-1.067,2.133c-1.067,1.067-1.067,1.067-2.133,2.133c-1.067,1.067-1.067,1.067-2.133,2.133
		c-1.067,1.067-1.067,1.067-2.133,2.133c-1.067,1.067-2.133,1.067-2.133,1.067c-1.067,0-2.133,1.067-2.133,1.067l0,0l0,0
		c-3.2,1.067-5.333,3.2-8.533,5.333c-3.2,2.133-5.333,3.2-8.533,5.333c2.133-2.133,5.333-4.267,8.533-5.333
		c3.2-2.133,5.333-3.2,8.533-4.267c1.067,0,2.133-1.067,3.2-1.067s2.133-1.067,2.133-1.067c1.067-1.067,2.133-1.067,2.133-2.133
		c1.067-1.067,1.067-1.067,2.133-2.133c1.067-1.067,1.067-1.067,2.133-2.133c1.067-1.067,1.067-2.133,2.133-2.133
		c1.067-2.133,2.133-3.2,2.133-5.333c1.067-2.133,1.067-4.267,1.067-5.333s0-2.133,0-3.2s0-2.133,0-3.2c0-2.133,0-4.267,1.067-5.333
		c0-2.133,1.067-3.2,2.133-5.333c1.067-2.133,2.133-4.267,3.2-6.4l3.2-6.4l3.2-6.4c1.067-2.133,2.133-4.267,3.2-6.4
		c1.067-2.133,2.133-4.267,3.2-6.4l2.133-3.2c1.067-1.067,1.067-2.133,2.133-3.2c1.067-2.133,2.133-4.267,2.133-7.467
		c1.067-2.133,1.067-4.267,1.067-7.467c1.067-3.2,2.133-7.467,3.2-10.667c1.067-2.133,1.067-3.2,2.133-5.333
		c0-1.067,1.067-2.133,1.067-3.2s1.067-2.133,1.067-3.2l8.533-21.333c0-1.067,1.067-1.067,1.067-2.133
		c0-1.067,1.067-1.067,1.067-2.133s1.067-2.133,1.067-3.2l3.2-9.6C504.533,220.637,503.467,219.57,502.4,218.504z"/>
</g>
<g>
	<path style="fill:#FFFFFF;" d="M505.6,221.704c0,0-5.333,14.933-6.4,17.067C496,237.704,497.067,220.637,505.6,221.704z"/>
	<path style="fill:#FFFFFF;" d="M513.067,202.504c0,0-2.133,10.667-6.4,18.133C502.4,219.57,504.533,203.57,513.067,202.504z"/>
	<path style="fill:#FFFFFF;" d="M437.333,295.304c-2.133-1.067-3.2-5.333-1.067-6.4l0,0c3.2-3.2,5.333-5.333,5.333-5.333
		s4.267-3.2,8.533-2.133c3.2,1.067,7.467,2.133,10.667,8.533c2.133,3.2,2.133,6.4,1.067,9.6c0,1.067-1.067,2.133-2.133,3.2
		c-4.267,3.2-5.333,4.267-5.333,4.267s-5.333,3.2-7.467,0C444.8,303.837,441.6,298.504,437.333,295.304z"/>
</g>
<path style="fill:#F7B64C;" d="M472.533,237.704c0-1.067,1.067-2.133,1.067-3.2l0,0l0,0l0,0v-1.067l0,0v1.067
	c-9.6,4.267-19.2,23.467-19.2,23.467c-1.067,1.067-13.867,20.267-14.933,21.333h2.133c0,0,7.467-1.067,10.667,0
	c1.067-3.2,2.133-5.333,3.2-8.533s2.133-5.333,3.2-8.533c1.067-2.133,2.133-5.333,4.267-7.467c1.067-2.133,3.2-5.333,4.267-7.467
	l0,0l0,0l3.2-6.4L472.533,237.704z"/>
<rect x="288.59" y="414.015" transform="matrix(0.9918 0.128 -0.128 0.9918 57.5825 -39.2174)" style="fill:#E8EAE9;" width="90.669" height="28.801"/>
<rect x="293.666" y="407.734" transform="matrix(-0.1281 0.9918 -0.9918 -0.1281 837.3292 203.0701)" style="fill:#415A6B;" width="71.469" height="123.738"/>
<circle style="fill:#344A5E;" cx="363.733" cy="470.237" r="12.8"/>
<path style="fill:#FFD15C;" d="M224,438.237c-1.067-16-4.267-33.067-7.467-50.133c-7.467-35.2-36.267-62.933-72.533-67.2
	c-3.2,0-6.4-1.067-8.533,0C115.2,321.97,105.6,305.97,105.6,305.97s-21.333-20.267-32-25.6c0,0-12.8-20.267-14.933-21.333
	c0,0-9.6-19.2-19.2-23.467l-2.133-4.267c0,0-10.667-28.8-20.267-32c-8.533-3.2-16-2.133-17.067,4.267c0,0,2.133,10.667,6.4,18.133
	l14.933,49.067c0,0,1.067,12.8,5.333,21.333c4.267,9.6,16,42.667,18.133,54.4c2.133,11.733,0,22.4,21.333,32
	c21.333,9.6,64,35.2,64,35.2s21.333,11.733,25.6,35.2c3.2,23.467,3.2,24.533,3.2,24.533l67.2-9.6L224,438.237z"/>
<g>
	<path style="fill:#F7B64C;" d="M60.8,316.637c-2.133-2.133-3.2-3.2-5.333-5.333c-2.133-2.133-3.2-4.267-4.267-6.4
		s-2.133-4.267-3.2-7.467c0-2.133,0-5.333,1.067-7.467s2.133-4.267,4.267-6.4c2.133-2.133,4.267-3.2,6.4-4.267
		c2.133-1.067,4.267-1.067,7.467-1.067c2.133,0,4.267,1.067,7.467,1.067l0,0c1.067,0,1.067,1.067,2.133,1.067
		c-1.067,0-1.067,0-2.133-1.067c-2.133-1.067-4.267-1.067-7.467-1.067c-2.133,0-5.333,0-7.467,1.067
		c-2.133,1.067-4.267,2.133-5.333,4.267c-1.067,2.133-3.2,4.267-3.2,6.4c-1.067,2.133-1.067,4.267,0,7.467
		c0,2.133,1.067,4.267,2.133,6.4s3.2,4.267,4.267,6.4c1.067,2.133,3.2,3.2,5.333,5.333c1.067,1.067,2.133,3.2,4.267,5.333
		s3.2,3.2,5.333,5.333c2.133,2.133,3.2,3.2,5.333,5.333c2.133,1.067,4.267,3.2,6.4,4.267c2.133,1.067,4.267,2.133,6.4,3.2
		s4.267,2.133,6.4,2.133l0,0l0,0c2.133,1.067,3.2,2.133,5.333,3.2c2.133,1.067,3.2,2.133,5.333,3.2s3.2,2.133,5.333,4.267
		c1.067,1.067,1.067,1.067,2.133,2.133c1.067,1.067,1.067,1.067,2.133,2.133l2.133,2.133c1.067,1.067,1.067,1.067,2.133,2.133
		c1.067,1.067,3.2,3.2,4.267,4.267c1.067,1.067,3.2,2.133,5.333,3.2s3.2,2.133,5.333,3.2c-2.133-1.067-3.2-1.067-5.333-2.133
		c-2.133-1.067-3.2-2.133-5.333-3.2c-2.133-1.067-3.2-2.133-4.267-4.267c-1.067-1.067-1.067-1.067-2.133-2.133l-2.133-2.133
		c-1.067-1.067-1.067-1.067-2.133-2.133c-1.067-1.067-1.067-1.067-2.133-2.133c-1.067-1.067-3.2-2.133-5.333-3.2
		s-3.2-2.133-5.333-3.2s-3.2-2.133-5.333-2.133c-2.133-1.067-4.267-2.133-7.467-2.133c-2.133-1.067-4.267-2.133-6.4-3.2
		s-4.267-3.2-6.4-4.267c-2.133-1.067-4.267-3.2-5.333-5.333c-2.133-2.133-3.2-3.2-5.333-5.333
		C64,319.837,61.867,318.77,60.8,316.637z"/>
	<path style="fill:#F7B64C;" d="M11.733,218.504c1.067,0,1.067-1.067,2.133-1.067S16,216.37,16,216.37h1.067h1.067
		c1.067,0,2.133,0,2.133,0h1.067H22.4h1.067c1.067,0,1.067,1.067,2.133,1.067c1.067,0,1.067,1.067,2.133,1.067
		c1.067,1.067,1.067,1.067,2.133,2.133c1.067,1.067,1.067,1.067,2.133,2.133c1.067,2.133,2.133,2.133,2.133,3.2
		c1.067,1.067,2.133,3.2,3.2,4.267c0,0,0,1.067,1.067,1.067l2.133,3.2l0,0l0,0l0,0l0,0c-1.067-1.067-2.133-3.2-3.2-4.267
		s-2.133-3.2-3.2-4.267c0,0-1.067-1.067-2.133-2.133c-1.067-1.067-1.067-1.067-2.133-2.133c-1.067-1.067-1.067-1.067-2.133-2.133
		c-1.067,0-1.067-1.067-2.133-1.067c-1.067,0-1.067-1.067-2.133-1.067H22.4h-1.067h-1.067c-1.067,0-2.133,0-2.133,0h-1.067H16
		c-1.067,0-2.133,0-2.133,1.067C13.867,218.504,12.8,218.504,11.733,218.504c-1.067,2.133-2.133,3.2-3.2,4.267
		c1.067,2.133,2.133,5.333,3.2,7.467c1.067,1.067,1.067,3.2,2.133,4.267c0,1.067,1.067,1.067,1.067,2.133v1.067v1.067l0,0l0,0
		l8.533,21.333c0,1.067,1.067,2.133,1.067,3.2c0,1.067,1.067,2.133,1.067,3.2c1.067,2.133,1.067,3.2,2.133,5.333
		c1.067,3.2,2.133,7.467,3.2,10.667l0,0l0,0c0,2.133,1.067,4.267,1.067,7.467c1.067,2.133,1.067,4.267,2.133,6.4
		c0,1.067,1.067,2.133,1.067,3.2l2.133,3.2c1.067,2.133,2.133,4.267,3.2,6.4c2.133,3.2,3.2,5.333,3.2,7.467l3.2,6.4
		c2.133,4.267,3.2,9.6,5.333,13.867l0,0l0,0c1.067,2.133,2.133,4.267,2.133,6.4s1.067,4.267,1.067,6.4c0,1.067,0,2.133,0,3.2
		s0,2.133,0,3.2c0,2.133,1.067,4.267,1.067,5.333c1.067,2.133,1.067,3.2,2.133,5.333c0,1.067,1.067,2.133,1.067,2.133
		c1.067,1.067,1.067,1.067,2.133,2.133c1.067,1.067,1.067,1.067,2.133,2.133c1.067,1.067,1.067,1.067,2.133,2.133
		c1.067,1.067,2.133,1.067,2.133,1.067c1.067,0,2.133,1.067,2.133,1.067l0,0l0,0c3.2,1.067,5.333,3.2,8.533,5.333
		c3.2,2.133,5.333,3.2,8.533,5.333c-2.133-2.133-5.333-4.267-8.533-5.333c-3.2-2.133-5.333-3.2-8.533-4.267
		c-1.067,0-2.133-1.067-3.2-1.067c-1.067,0-2.133-1.067-2.133-1.067c1.067-2.133,0-3.2-1.067-3.2
		c-1.067-1.067-1.067-1.067-2.133-2.133c-1.067-1.067-1.067-1.067-2.133-2.133c-1.067-1.067-1.067-2.133-2.133-2.133
		c-1.067-2.133-2.133-3.2-2.133-5.333c-1.067-2.133-1.067-4.267-1.067-5.333s0-2.133,0-3.2s0-2.133,0-3.2
		c0-2.133,0-4.267-1.067-5.333c0-2.133-1.067-3.2-2.133-5.333c-1.067-2.133-2.133-4.267-3.2-6.4l-3.2-6.4l-3.2-6.4
		c-1.067-2.133-2.133-4.267-3.2-6.4s-2.133-4.267-3.2-6.4l-2.133-3.2c1.067-4.267,1.067-5.333,0-6.4
		c-1.067-2.133-2.133-4.267-2.133-7.467c-1.067-2.133-1.067-4.267-1.067-7.467c-1.067-3.2-2.133-7.467-3.2-10.667
		c-1.067-2.133-1.067-3.2-2.133-5.333c0-1.067-1.067-2.133-1.067-3.2c0-1.067-1.067-2.133-1.067-3.2l-8.533-21.333
		c0-1.067-1.067-1.067-1.067-2.133c0-1.067-1.067-1.067-1.067-2.133c0-1.067-1.067-2.133-1.067-3.2l-3.2-9.6
		C9.6,220.637,10.667,219.57,11.733,218.504z"/>
</g>
<g>
	<path style="fill:#FFFFFF;" d="M8.533,221.704c0,0,5.333,14.933,6.4,17.067C18.133,237.704,17.067,220.637,8.533,221.704z"/>
	<path style="fill:#FFFFFF;" d="M1.067,202.504c0,0,2.133,10.667,6.4,18.133C11.733,219.57,9.6,203.57,1.067,202.504z"/>
	<path style="fill:#FFFFFF;" d="M76.8,295.304c2.133-1.067,3.2-5.333,1.067-6.4l0,0c-3.2-3.2-5.333-5.333-5.333-5.333
		s-4.267-3.2-8.533-2.133c-3.2,1.067-7.467,2.133-10.667,8.533c-2.133,3.2-2.133,6.4-1.067,9.6c0,1.067,1.067,2.133,2.133,3.2
		c4.267,3.2,5.333,4.267,5.333,4.267s5.333,3.2,7.467,0C69.333,303.837,72.533,298.504,76.8,295.304z"/>
</g>
<path style="fill:#F7B64C;" d="M41.6,237.704c0-1.067-1.067-2.133-1.067-3.2l0,0l0,0l0,0v-1.067l0,0v1.067
	c9.6,4.267,19.2,23.467,19.2,23.467c1.067,1.067,13.867,20.267,14.933,21.333h-2.133c0,0-7.467-1.067-10.667,0
	c-1.067-3.2-2.133-5.333-3.2-8.533c-1.067-3.2-2.133-5.333-3.2-8.533c-1.067-2.133-2.133-5.333-4.267-7.467
	c-1.067-2.133-3.2-5.333-4.267-7.467l0,0l0,0l-3.2-6.4L41.6,237.704z"/>
<rect x="134.461" y="414.8" transform="matrix(-0.9918 0.128 -0.128 -0.9918 413.0488 831.8563)" style="fill:#E8EAE9;" width="90.669" height="28.801"/>
<rect x="150.073" y="407.995" transform="matrix(0.1281 0.9918 -0.9918 0.1281 628.0002 225.3999)" style="fill:#415A6B;" width="71.469" height="123.738"/>
<circle style="fill:#344A5E;" cx="150.4" cy="470.237" r="12.8"/>
<path style="fill:#F3705A;" d="M257.067,369.97C340.267,254.77,480,261.17,480,115.037C480,52.104,427.733,0.904,364.8,0.904
	c-49.067,0-91.733,32-107.733,75.733c-16-43.733-58.667-75.733-107.733-75.733c-62.933,0-115.2,51.2-115.2,114.133
	C34.133,264.37,174.933,256.904,257.067,369.97z"/>
<path style="fill:#FFFFFF;" d="M417.067,57.437c16,13.867,22.4,30.933,14.933,39.467c-7.467,7.467-25.6,3.2-40.533-10.667
	c-16-13.867-22.4-30.933-14.933-39.467C384,39.304,402.133,43.57,417.067,57.437z"/>
<g>
</g>
<g>
</g>
<g>
</g>
<g>
</g>
<g>
</g>
<g>
</g>
<g>
</g>
<g>
</g>
<g>
</g>
<g>
</g>
<g>
</g>
<g>
</g>
<g>
</g>
<g>
</g>
<g>
</g>
</svg>
