<?xml version="1.0" encoding="utf-8"?>
<!-- Generator: Adobe Illustrator 18.0.0, SVG Export Plug-In . SVG Version: 6.00 Build 0)  -->
<!DOCTYPE svg PUBLIC "-//W3C//DTD SVG 1.1//EN" "http://www.w3.org/Graphics/SVG/1.1/DTD/svg11.dtd">
<svg version="1.1" id="Layer_1" xmlns="http://www.w3.org/2000/svg" xmlns:xlink="http://www.w3.org/1999/xlink" x="0px" y="0px"
	 viewBox="0 0 64 64" enable-background="new 0 0 64 64" xml:space="preserve">
<g>
	<g>
		<g>
			<g>
				<path fill="#475F8E" d="M32,0c17.7,0,32,14.3,32,32S49.7,64,32,64S0,49.7,0,32S14.3,0,32,0z"/>
			</g>
		</g>
	</g>
	<g>
		<g>
			<g>
				<path fill="#FFDA71" d="M47.1,16.3C47.1,16.3,47.1,16.3,47.1,16.3C47,15.5,45,11,43,11c-4.9-0.1-11.2,8.4-9.9,10.2
					C35.1,23.9,46.6,19.3,47.1,16.3z"/>
			</g>
		</g>
	</g>
	<g>
		<g>
			<g>
				
					<ellipse transform="matrix(-0.9046 0.4262 -0.4262 -0.9046 84.7841 19.1307)" fill="#FFB54A" cx="40.3" cy="19.1" rx="6.5" ry="1"/>
			</g>
		</g>
	</g>
	<g>
		<g>
			<g>
				<path fill="#FFDA71" d="M16.9,16.3C16.9,16.3,16.9,16.3,16.9,16.3C17,15.5,19,11,21,11c4.9-0.1,11.2,8.4,9.9,10.2
					C28.9,23.9,17.4,19.3,16.9,16.3z"/>
			</g>
		</g>
	</g>
	<g>
		<g>
			<g>
				
					<ellipse transform="matrix(0.9046 0.4262 -0.4262 0.9046 10.3831 -8.3041)" fill="#FFB54A" cx="23.7" cy="19.1" rx="6.5" ry="1"/>
			</g>
		</g>
	</g>
	<g>
		<g>
			<g>
				<path fill="#FFB54A" d="M35,22v-1.5c0-1.6-1.3-2.5-3-2.5l0,0c-1.6,0-3,0.9-3,2.5V22H35z"/>
			</g>
		</g>
	</g>
	<g>
		<g>
			<g>
				<path fill="#F45858" d="M45,51H19c-1.1,0-2-0.9-2-2V29h30v20C47,50.1,46.1,51,45,51z"/>
			</g>
		</g>
	</g>
	<g>
		<g>
			<g>
				<path fill="#F45858" d="M48,29H16c-1.1,0-2-0.9-2-2v-4c0-1.1,0.9-2,2-2h32c1.1,0,2,0.9,2,2v4C50,28.1,49.1,29,48,29z"/>
			</g>
		</g>
	</g>
	<g>
		<g>
			<g>
				<rect x="17" y="29" fill="#D84848" width="30" height="2"/>
			</g>
		</g>
	</g>
	<g>
		<g>
			<g>
				<rect x="28" y="21" fill="#FFDA71" width="8" height="30"/>
			</g>
		</g>
	</g>
	<g>
		<g>
			<g>
				<rect x="28" y="29" fill="#FFB54A" width="8" height="2"/>
			</g>
		</g>
	</g>
</g>
</svg>
