<?xml version="1.0" encoding="utf-8"?>
<!-- Generator: Adobe Illustrator 18.0.0, SVG Export Plug-In . SVG Version: 6.00 Build 0)  -->
<!DOCTYPE svg PUBLIC "-//W3C//DTD SVG 1.1//EN" "http://www.w3.org/Graphics/SVG/1.1/DTD/svg11.dtd">
<svg version="1.1" id="Layer_1" xmlns="http://www.w3.org/2000/svg" xmlns:xlink="http://www.w3.org/1999/xlink" x="0px" y="0px"
	 viewBox="0 0 61.5 62" enable-background="new 0 0 61.5 62" xml:space="preserve">
<g>
	<path fill="#E3E3E3" d="M55.3,60.7l-2.8-2V42.2c0-0.5-0.4-0.9-0.9-0.9c-0.5,0-0.9,0.4-0.9,0.9v16.5l-2.8,2
		c-0.5,0.3-0.2,1.1,0.3,1.1H55C55.6,61.8,55.8,61.1,55.3,60.7L55.3,60.7z M55.3,60.7"/>
	<path fill="#D3D2D1" d="M55,61.8c0.6,0,0.8-0.7,0.3-1.1l-2.8-2V42.2c0-0.5-0.4-0.9-0.9-0.9v20.5H55z M55,61.8"/>
	<path fill="#E3E3E3" d="M15.4,60.7l-2.8-2V42.2c0-0.5-0.4-0.9-0.9-0.9c-0.5,0-0.9,0.4-0.9,0.9v16.5l-2.8,2
		c-0.5,0.3-0.2,1.1,0.3,1.1h6.7C15.6,61.8,15.9,61.1,15.4,60.7L15.4,60.7z M15.4,60.7"/>
	<g>
		<defs>
			<rect id="SVGID_1_" x="4.6" y="2.7" width="54.2" height="59.2"/>
		</defs>
		<clipPath id="SVGID_2_">
			<use xlink:href="#SVGID_1_"  overflow="visible"/>
		</clipPath>
		<path clip-path="url(#SVGID_2_)" fill="#D3D2D1" d="M15.1,61.8c0.6,0,0.8-0.7,0.3-1.1l-2.8-2V42.2c0-0.5-0.4-0.9-0.9-0.9v20.5
			H15.1z M15.1,61.8"/>
		<path clip-path="url(#SVGID_2_)" fill="#E3E3E3" d="M17.5,31.7H5.9c-0.2,0-0.4,0.2-0.4,0.4l-0.8,9c-0.4,4.1,2.9,7.6,7,7.6
			c4.1,0,7.4-3.5,7-7.6l-0.8-9C17.9,31.8,17.7,31.7,17.5,31.7L17.5,31.7z M17.5,31.7"/>
		<path clip-path="url(#SVGID_2_)" fill="#D3D2D1" d="M18.7,41l-0.8-9c0-0.2-0.2-0.4-0.4-0.4h-6.3c0.2,0,0.4,0.2,0.4,0.4l0.8,9
			c0.3,3-1.4,5.7-3.9,6.9c0.9,0.5,2,0.7,3.1,0.7C15.8,48.7,19.1,45.1,18.7,41L18.7,41z M18.7,41"/>
		<path clip-path="url(#SVGID_2_)" fill="#E3E3E3" d="M57.4,31.7H45.9c-0.2,0-0.4,0.2-0.4,0.4l-0.8,9c-0.4,4.1,2.9,7.6,7,7.6
			s7.4-3.5,7-7.6l-0.8-9C57.8,31.8,57.6,31.7,57.4,31.7L57.4,31.7z M57.4,31.7"/>
		<path clip-path="url(#SVGID_2_)" fill="#D3D2D1" d="M58.6,41l-0.8-9c0-0.2-0.2-0.4-0.4-0.4h-6.1c0.2,0,0.4,0.2,0.4,0.4l0.8,9
			c0.3,3-1.4,5.7-3.9,6.9c0.9,0.4,2,0.7,3.1,0.7C55.8,48.7,59,45.1,58.6,41L58.6,41z M58.6,41"/>
		<path clip-path="url(#SVGID_2_)" fill="#F48D9D" d="M4.7,41c-0.4,4.1,2.9,7.6,7,7.6c4.1,0,7.4-3.5,7-7.6l-0.1-0.9H4.8L4.7,41z
			 M4.7,41"/>
		<path clip-path="url(#SVGID_2_)" fill="#F37B8E" d="M18.7,41l-0.1-0.9h-6.3l0.1,0.9c0.3,3-1.4,5.7-3.9,6.9C8.7,48,8.8,48,8.9,48.1
			c0,0,0,0,0,0c0.1,0,0.2,0.1,0.3,0.1c0,0,0,0,0.1,0c0.1,0,0.2,0.1,0.3,0.1c0,0,0.1,0,0.1,0c0.1,0,0.2,0.1,0.3,0.1c0,0,0.1,0,0.1,0
			c0.1,0,0.2,0,0.3,0.1c0,0,0.1,0,0.1,0c0.1,0,0.2,0,0.3,0c0,0,0.1,0,0.1,0c0.1,0,0.2,0,0.3,0c0,0,0.1,0,0.1,0c0.1,0,0.3,0,0.4,0
			C15.8,48.7,19.1,45.1,18.7,41L18.7,41z M18.7,41"/>
		<path clip-path="url(#SVGID_2_)" fill="#F48D9D" d="M44.7,41c-0.4,4.1,2.9,7.6,7,7.6c4.1,0,7.4-3.5,7-7.6l-0.1-0.9H44.7L44.7,41z
			 M44.7,41"/>
		<path clip-path="url(#SVGID_2_)" fill="#F37B8E" d="M58.6,41l-0.1-0.9h-6.1l0.1,0.9c0.3,3-1.4,5.7-3.9,6.9
			c0.1,0.1,0.2,0.1,0.3,0.2c0,0,0,0,0,0c0.1,0,0.2,0.1,0.3,0.1c0,0,0,0,0,0c0.1,0,0.2,0.1,0.3,0.1c0,0,0,0,0,0
			c0.1,0,0.2,0.1,0.3,0.1c0,0,0,0,0.1,0c0.1,0,0.2,0,0.3,0.1c0,0,0.1,0,0.1,0c0.1,0,0.2,0,0.3,0c0,0,0.1,0,0.1,0c0.1,0,0.2,0,0.3,0
			c0,0,0.1,0,0.1,0c0.1,0,0.3,0,0.4,0C55.8,48.7,59,45.1,58.6,41L58.6,41z M58.6,41"/>
	</g>
	<path fill="#655160" d="M34.4,17.7V4.2h-5.5v13.5c0,2.7-0.9,5.3-2.6,7.3c-1.7,2.1-2.6,4.6-2.6,7.3v26.9c0,1.4,1.1,2.5,2.5,2.5h11.1
		c1.4,0,2.5-1.1,2.5-2.5V32.3c0-2.7-0.9-5.3-2.6-7.3C35.4,23,34.4,20.4,34.4,17.7L34.4,17.7z M34.4,17.7"/>
	<path fill="#5E4A59" d="M37.1,25c-1.7-2.1-2.6-4.6-2.6-7.3V4.2h-2.8v13.5c0.2,5.4,1.8,6,1.8,8.7v32.9c0,1.4-1.1,2.5-2.5,2.5h6.3
		c1.4,0,2.5-1.1,2.5-2.5V32.3C39.7,29.7,38.8,27.1,37.1,25L37.1,25z M37.1,25"/>
	<path fill="#F7A8B4" d="M34.9,11.8h-6.5V4c0-0.6,0.5-1.2,1.2-1.2h4.2c0.6,0,1.2,0.5,1.2,1.2V11.8z M34.9,11.8"/>
	<path fill="#F59BA9" d="M39.7,48.5h-9.3c-0.6,0-1.1-0.5-1.1-1.1v-9.3c0-0.6,0.5-1.1,1.1-1.1h9.3V48.5z M39.7,48.5"/>
	<rect x="33.4" y="37.1" fill="#F4899A" width="6.3" height="11.5"/>
	<path fill="#F69DAB" d="M33.8,2.8h-2.1v9h3.3V4C34.9,3.3,34.4,2.8,33.8,2.8L33.8,2.8z M33.8,2.8"/>
	<path fill="#F591A1" d="M35.4,12.4h-7.5c-0.5,0-0.8-0.4-0.8-0.8v-1.3c0-0.5,0.4-0.8,0.8-0.8h7.5c0.5,0,0.8,0.4,0.8,0.8v1.3
		C36.3,12,35.9,12.4,35.4,12.4L35.4,12.4z M35.4,12.4"/>
	<path fill="#F38597" d="M36.3,11.6v-1.3c0-0.5-0.4-0.8-0.8-0.8h-3.8v2.9h3.8C35.9,12.4,36.3,12,36.3,11.6L36.3,11.6z M36.3,11.6"/>
</g>
</svg>
