<svg xmlns="http://www.w3.org/2000/svg" width="220.014" height="45" style="isolation:isolate">
  <defs>
    <clipPath id="_clipPath_BAP4zSKVOk7PRhhzQgSoUXaETQXyCkw8">
      <path d="M0 0h220.014v45H0z"/>
    </clipPath>
  </defs>
  <g fill="#FFF" fill-rule="evenodd" clip-path="url(#_clipPath_BAP4zSKVOk7PRhhzQgSoUXaETQXyCkw8)">
    <path d="M41.927 33.919c3.109 1.787 6.146 3.706 9.106 5.751-3.107 1.643-6.141 3.429-9.106 5.33-2.966-1.901-6-3.687-9.106-5.33 2.959-2.045 5.997-3.964 9.106-5.751zm-15.515-7.904c3.688 1.613 7.312 3.373 10.85 5.303-3.099 1.857-6.121 3.849-9.076 5.946-3.546-1.758-7.169-3.354-10.854-4.796 2.949-2.272 5.974-4.43 9.08-6.453zM9.095 19.708c4.447 1.297 8.819 2.822 13.103 4.567-3.095 2.102-6.112 4.328-9.056 6.661-4.3-1.555-8.686-2.875-13.142-3.954 2.961-2.526 5.985-4.964 9.095-7.274zm48.346 6.307c3.106 2.023 6.131 4.181 9.08 6.453-3.685 1.442-7.308 3.038-10.853 4.796-2.956-2.097-5.978-4.089-9.076-5.946 3.537-1.93 7.162-3.69 10.849-5.303zM41.927 16.87c3.702 1.896 7.328 3.948 10.867 6.153-3.698 1.684-7.32 3.536-10.867 5.528-3.548-1.992-7.17-3.844-10.868-5.528 3.539-2.205 7.165-4.257 10.868-6.153zM24.728 9.16c4.422 1.68 8.77 3.553 13.021 5.634-3.714 1.963-7.34 4.094-10.888 6.36-4.274-1.85-8.639-3.486-13.077-4.917 3.566-2.498 7.208-4.871 10.944-7.077zm50.03 10.548c3.109 2.31 6.134 4.748 9.095 7.274-4.456 1.079-8.842 2.399-13.141 3.954-2.944-2.333-5.962-4.559-9.056-6.661 4.284-1.745 8.656-3.27 13.102-4.567zM59.125 9.16c3.736 2.206 7.378 4.579 10.943 7.077-4.436 1.431-8.802 3.067-13.076 4.917-3.548-2.266-7.175-4.397-10.888-6.36 4.251-2.081 8.599-3.954 13.021-5.634zM41.927.033c4.456 2.03 8.818 4.269 13.093 6.671-4.449 1.759-8.813 3.725-13.093 5.863-4.281-2.138-8.645-4.104-13.093-5.863C33.108 4.302 37.47 2.063 41.927.033zm100.799 43.226h5.443v1.161h-6.777v-9.338h6.59v1.16h-5.256v2.868h4.682v1.134h-4.682v3.015zm8.438 1.161v-9.338h1.334v8.177h5.055v1.161h-6.389zm10.091-1.161h5.443v1.161h-6.777v-9.338h6.59v1.16h-5.256v2.868h4.683v1.134h-4.683v3.015zm18.376 1.161h-1.28l-.014-6.804-3.375 5.67h-.613l-3.376-5.63v6.764h-1.28v-9.338h1.094l3.895 6.563 3.842-6.563h1.094l.013 9.338zm4.969-1.161h5.443v1.161h-6.777v-9.338h6.59v1.16H184.6v2.868h4.683v1.134H184.6v3.015zm15.135-8.177h1.334v9.338h-1.094l-5.603-6.964v6.964h-1.334v-9.338h1.094l5.603 6.963v-6.963zm6.823 9.338v-8.178h-3.202v-1.16h7.724v1.16h-3.201v8.178h-1.321zm9.531.106q-1.053 0-2.034-.326-.98-.327-1.541-.847l.494-1.041q.533.48 1.367.78.834.301 1.714.301 1.161 0 1.735-.394.573-.394.573-1.047 0-.48-.313-.781-.314-.3-.774-.46-.46-.16-1.301-.36-1.054-.253-1.701-.507-.647-.253-1.107-.78-.46-.527-.46-1.421 0-.747.394-1.347.393-.601 1.193-.961.801-.36 1.988-.36.827 0 1.628.213.8.214 1.374.614l-.441 1.067q-.587-.373-1.254-.567-.667-.193-1.307-.193-1.134 0-1.701.413-.567.414-.567 1.068 0 .48.321.78.32.3.793.467.474.167 1.288.353 1.053.254 1.694.507.64.254 1.1.774.461.52.461 1.401 0 .733-.401 1.34-.4.607-1.214.961-.813.353-2.001.353zm-115.084-9.444h1.334v9.338h-1.334v-4.162h-5.363v4.162h-1.334v-9.338h1.334v4.015h5.363v-4.015zm6.824 9.338v-8.178h-3.202v-1.16h7.724v1.16h-3.202v8.178h-1.32zm16.748 0h-1.281l-.013-6.804-3.375 5.67h-.614l-3.375-5.63v6.764h-1.28v-9.338h1.094l3.895 6.563 3.842-6.563h1.094l.013 9.338zm3.635 0v-9.338h1.334v8.177h5.056v1.161h-6.39zm89.596-24.238l2.206 6.414q-2.084 1.185-5.679 1.185-4.698 0-7.231-2.268-2.533-2.267-2.533-6.802v-5.72h-3.064v-6.74h3.064V0h9.233v6.251h4.576v6.74h-4.576v5.638q0 1.022.531 1.594.531.572 1.389.572 1.185 0 2.084-.613zM192.87 7.435q2.451-2.819 7.231-2.819v8.171q-1.103-.163-2.042-.163-4.739 0-4.739 4.821v9.927h-9.233V5.025h8.783v2.41zm-45.688-2.819q4.044 0 6.475 2.493 2.431 2.492 2.431 7.517v12.746h-9.233V16.219q0-3.84-2.492-3.84-1.308 0-2.104.98-.797.981-.797 3.105v10.908h-9.233V16.219q0-3.84-2.492-3.84-1.307 0-2.104.98-.797.981-.797 3.105v10.908h-9.233V5.025h8.784v2.084q2.492-2.493 6.332-2.493 2.247 0 4.045.838 1.797.837 2.941 2.553 1.349-1.634 3.269-2.513 1.92-.878 4.208-.878zm22.085 0q5.883 0 8.988 2.635 3.105 2.636 3.105 8.11v12.011h-8.58v-2.941q-1.593 3.35-6.332 3.35-2.656 0-4.514-.92-1.859-.919-2.819-2.491-.96-1.574-.96-3.535 0-3.309 2.533-5.025 2.532-1.715 7.68-1.715h3.718q-.45-2.615-4.208-2.615-1.512 0-3.064.469-1.553.471-2.656 1.288l-2.941-6.088q1.92-1.184 4.637-1.859 2.716-.674 5.413-.674zm-.041 17.608q.98 0 1.757-.531.776-.531 1.144-1.593v-1.552h-2.288q-2.819 0-2.819 1.879 0 .776.593 1.287.592.51 1.613.51zm-65.094 5.557q-2.86 0-5.638-.613T94 25.574l2.533-6.087q1.552.94 3.677 1.471 2.124.531 4.126.531 1.593 0 2.226-.266.634-.265.634-.796t-.797-.735q-.797-.205-2.594-.409-2.737-.327-4.657-.838-1.921-.51-3.371-1.981t-1.45-4.208q0-2.165 1.307-3.881 1.307-1.716 3.901-2.737 2.595-1.022 6.231-1.022 2.533 0 4.963.47 2.431.47 4.147 1.369l-2.533 6.087q-2.941-1.634-6.455-1.634-3.023 0-3.023 1.062 0 .531.817.756.817.225 2.574.429 2.737.327 4.637.858 1.9.531 3.35 2.002 1.45 1.47 1.45 4.208 0 2.083-1.307 3.799-1.307 1.716-3.922 2.737-2.615 1.022-6.332 1.022z"/>
  </g>
</svg>
