<svg xmlns="http://www.w3.org/2000/svg" xmlns:xlink="http://www.w3.org/1999/xlink" x="0px" y="0px" width="48px" height="48px" viewBox="0 0 48 48"><g >
<path fill="#69ACE0" d="M48,9.11341c-1.76603,0.78322-3.66389,1.31268-5.65607,1.55067
	c2.03332-1.21873,3.5948-3.14867,4.33001-5.44828c-1.90268,1.12855-4.01024,1.94811-6.25344,2.3898
	c-1.79636-1.914-4.35574-3.10992-7.18805-3.10992c-5.43885,0-9.84807,4.40923-9.84807,9.84756
	c0,0.77191,0.0871,1.5234,0.25495,2.24422c-8.1844-0.41065-15.4407-4.33121-20.29778-10.28923
	C2.49387,7.75272,2.0083,9.44432,2.0083,11.24909c0,3.41649,1.73858,6.43073,4.38093,8.19676
	c-1.61427-0.05109-3.13272-0.49415-4.4605-1.23177c-0.00069,0.04115-0.00084,0.08231-0.00084,0.1238
	c0,4.77144,3.39452,8.75168,7.8996,9.6563c-0.82642,0.22494-1.69641,0.34532-2.5945,0.34532
	c-0.63458,0-1.25149-0.06173-1.8528-0.17661c1.25319,3.91234,4.89001,6.75958,9.19929,6.83914
	c-3.37036,2.64116-7.61654,4.21549-12.23032,4.21549C1.55427,39.21751,0.77036,39.17088,0,39.08
	c4.35814,2.79408,9.53447,4.42431,15.09573,4.42431c18.11374,0,28.0189-15.00571,28.0189-28.01916
	c0-0.42694-0.00959-0.85164-0.02846-1.27394C45.01011,12.82274,46.67978,11.08826,48,9.11341z"/>
</g></svg>