<svg xmlns="http://www.w3.org/2000/svg" xmlns:xlink="http://www.w3.org/1999/xlink" x="0px" y="0px" width="48px" height="48px" viewBox="0 0 48 48"><g >
<path fill="#DE4D3B" d="M48,22h-4v-4h-4v4h-4v4h4v4h4v-4h4V22z"/>
<path fill="#DE4D3B" d="M33.05286,22.00891L18,22v6h8.60217c-0.46423,2.53943-3.0072,7.17175-9.60217,7.17175
	c-5.80432,0-10.54004-4.80859-10.54004-10.73425c0-5.92567,4.73572-10.73426,10.54004-10.73426
	c3.30286,0,5.51282,1.40857,6.77576,2.6228l4.61426-4.44421C25.42712,9.11316,21.58997,7.43751,17,7.43751
	c-9.39856,0-17,7.60143-17,17c0,9.39855,7.60144,17,17,17C28.69557,41.43751,34.71981,31.73002,33.05286,22.00891z"/>
</g></svg>